{"glyphs":{"0":{"ha":1053,"x_min":58,"x_max":994,"o":"m 172 451 q 200 311 172 376 q 276 197 228 246 q 389 119 325 147 q 526 92 453 92 q 664 119 600 92 q 776 197 728 147 q 853 311 825 246 q 881 451 881 376 q 853 592 881 526 q 776 706 825 657 q 664 783 728 756 q 526 811 600 811 q 389 783 453 811 q 276 706 325 756 q 200 592 228 657 q 172 451 172 526 m 58 451 q 94 633 58 549 q 195 781 131 717 q 344 880 260 844 q 526 915 429 915 q 708 880 624 915 q 858 781 793 844 q 958 633 922 717 q 994 451 994 549 q 958 270 994 354 q 858 122 922 186 q 708 23 793 58 q 526 -12 624 -12 q 344 23 429 -12 q 195 122 260 58 q 94 270 131 186 q 58 451 58 354 z "},"1":{"ha":426,"x_min":21,"x_max":322,"o":"m 21 804 q 134 828 79 813 q 237 867 189 844 q 322 915 285 889 l 322 0 l 211 0 l 211 807 l 290 792 q 224 751 264 769 q 132 719 183 732 q 21 700 81 707 l 21 804 z "},"2":{"ha":696,"x_min":42,"x_max":661,"o":"m 42 0 l 429 475 q 497 575 479 536 q 515 657 515 614 q 492 735 515 700 q 431 790 469 769 q 346 811 393 811 q 259 790 299 811 q 197 735 219 769 q 174 657 174 700 q 190 580 174 614 q 239 514 206 546 l 174 433 q 63 657 63 522 q 100 788 63 729 q 202 881 138 846 q 346 915 267 915 q 490 881 426 915 q 592 789 554 847 q 629 657 629 731 q 619 583 629 618 q 586 509 610 547 q 522 421 563 471 l 193 17 l 189 104 l 661 104 l 661 0 l 42 0 z "},"3":{"ha":753,"x_min":42,"x_max":704,"o":"m 374 -12 q 201 28 276 -12 q 84 142 126 69 q 42 304 42 214 l 147 304 q 177 194 147 243 q 258 116 207 144 q 374 88 310 88 q 491 115 440 88 q 570 188 542 142 q 599 290 599 233 q 568 395 599 349 q 486 469 538 442 q 371 496 435 496 l 340 496 l 340 593 l 371 593 q 543 554 468 593 q 661 447 618 515 q 704 290 704 379 q 661 134 704 203 q 544 26 618 65 q 374 -12 469 -12 m 524 476 l 454 542 q 505 605 488 571 q 522 675 522 639 q 502 749 522 717 q 446 798 482 781 q 364 815 410 815 q 287 796 322 815 q 230 744 251 776 q 208 671 208 711 l 103 671 q 138 794 103 739 q 232 883 172 850 q 364 915 292 915 q 500 885 440 915 q 594 801 560 854 q 628 679 628 747 q 602 569 628 619 q 524 476 576 519 z "},"4":{"ha":724,"x_min":79,"x_max":633,"o":"m 525 657 l 633 657 l 633 0 l 525 0 l 525 111 q 501 205 525 169 q 437 262 476 240 q 350 299 397 283 q 255 336 303 315 q 167 390 207 357 q 103 480 128 424 q 79 625 79 536 l 79 903 l 190 903 l 190 631 q 213 518 190 560 q 275 453 236 476 q 360 413 314 429 q 451 379 406 397 q 535 331 496 361 q 597 249 574 301 q 619 111 619 197 l 525 240 l 525 657 z "},"5":{"ha":711,"x_min":42,"x_max":661,"o":"m 351 -12 q 192 26 263 -12 q 82 133 122 65 q 42 286 42 201 l 156 286 q 181 188 156 232 q 251 117 207 143 q 351 92 296 92 q 452 117 408 92 q 522 185 496 142 q 547 283 547 229 q 497 415 547 365 q 344 481 446 465 l 92 518 l 167 903 l 571 903 l 571 799 l 226 799 l 257 839 l 201 554 l 163 615 l 357 585 q 585 485 508 561 q 661 283 661 410 q 621 131 661 199 q 511 26 581 64 q 351 -12 442 -12 z "},"6":{"ha":776,"x_min":58,"x_max":718,"o":"m 388 90 q 498 119 449 90 q 576 195 547 147 q 606 301 606 243 q 576 408 606 361 q 498 484 547 456 q 388 513 449 513 q 278 484 328 513 q 200 408 229 456 q 171 301 171 360 q 200 195 171 243 q 278 119 229 147 q 388 90 328 90 m 388 -12 q 222 29 296 -12 q 103 142 147 71 q 58 300 58 214 q 85 442 58 378 q 153 564 113 507 q 237 674 194 621 q 312 783 279 728 q 354 903 344 839 l 468 903 q 435 786 461 839 q 373 687 408 733 q 302 598 338 640 q 238 513 267 556 q 200 425 210 471 l 161 439 q 252 569 188 522 q 397 615 317 615 q 560 574 488 615 q 675 463 632 533 q 718 304 718 392 q 674 144 718 215 q 555 30 629 72 q 388 -12 481 -12 z "},"7":{"ha":638,"x_min":42,"x_max":610,"o":"m 357 0 l 244 0 q 268 247 251 133 q 314 464 285 360 q 388 672 343 568 q 493 888 432 775 l 515 799 l 42 799 l 42 903 l 610 903 q 518 710 557 799 q 451 542 479 622 q 403 379 422 461 q 374 205 385 297 q 357 0 363 113 z "},"8":{"ha":744,"x_min":49,"x_max":696,"o":"m 372 92 q 479 117 432 92 q 554 187 526 143 q 582 285 582 231 q 554 382 582 339 q 479 449 526 425 q 372 474 432 474 q 266 449 314 474 q 190 381 218 424 q 163 285 163 338 q 190 187 163 231 q 266 117 218 143 q 372 92 314 92 m 372 -12 q 208 26 281 -12 q 92 130 135 64 q 49 276 49 196 q 91 424 49 360 q 207 526 133 489 q 372 564 281 564 q 538 526 465 564 q 653 424 611 489 q 696 276 696 360 q 653 130 696 196 q 538 26 611 64 q 372 -12 464 -12 m 372 490 q 251 519 304 490 q 167 596 197 547 q 136 701 136 644 q 167 811 136 763 q 252 888 199 860 q 372 915 306 915 q 492 888 439 915 q 577 811 546 860 q 608 701 608 763 q 577 596 608 644 q 492 519 546 547 q 372 490 439 490 m 372 576 q 440 592 410 576 q 488 635 469 608 q 506 697 506 663 q 488 759 506 732 q 441 802 471 786 q 372 818 411 818 q 304 802 335 818 q 256 759 274 786 q 239 697 239 732 q 257 635 239 663 q 305 592 275 608 q 372 576 335 576 z "},"9":{"ha":776,"x_min":58,"x_max":718,"o":"m 389 813 q 279 784 329 813 q 200 708 229 756 q 171 601 171 661 q 200 495 171 543 q 279 419 229 447 q 389 390 329 390 q 498 419 449 390 q 576 495 547 447 q 606 601 606 543 q 576 708 606 660 q 498 784 547 756 q 389 813 449 813 m 389 915 q 555 874 481 915 q 674 761 629 832 q 718 603 718 690 q 691 460 718 525 q 623 339 664 396 q 540 228 582 282 q 465 119 497 175 q 422 0 432 64 l 308 0 q 342 117 315 64 q 403 216 368 169 q 474 305 439 263 q 538 390 510 347 q 576 478 567 432 l 615 464 q 525 335 589 382 q 379 288 461 288 q 217 329 290 288 q 101 441 144 371 q 58 599 58 511 q 103 759 58 688 q 222 873 147 831 q 389 915 297 915 z "},"\u0000":{"ha":0,"x_min":0,"x_max":0,"o":""},"\r":{"ha":0,"x_min":0,"x_max":0,"o":""}," ":{"ha":297,"x_min":0,"x_max":0,"o":""}," ":{"ha":297,"x_min":0,"x_max":0,"o":""},"A":{"ha":769,"x_min":92,"x_max":678,"o":"m 92 0 l 92 619 q 128 774 92 707 q 232 878 165 840 q 385 915 299 915 q 538 878 472 915 q 641 774 604 840 q 678 619 678 707 l 678 0 l 567 0 l 567 29 q 484 250 567 167 q 244 333 401 333 l 161 333 l 161 438 l 217 438 q 494 373 390 438 q 622 197 597 308 l 567 197 l 567 619 q 543 717 567 675 q 478 783 519 758 q 385 807 438 807 q 290 783 332 807 q 226 717 249 758 q 203 619 203 675 l 203 0 l 92 0 z "},"B":{"ha":768,"x_min":104,"x_max":713,"o":"m 215 799 l 215 697 q 233 618 215 651 q 283 567 250 585 q 361 549 317 549 q 457 585 418 549 q 496 672 496 621 q 456 764 496 729 q 347 799 415 799 l 215 799 m 104 0 l 104 903 l 347 903 q 481 876 424 903 q 572 800 539 849 q 604 688 604 751 q 570 567 604 619 q 474 488 536 515 l 472 519 q 601 472 547 506 q 683 387 654 438 q 713 274 713 336 q 672 133 713 194 q 561 35 632 71 q 399 0 490 0 l 104 0 m 215 104 l 399 104 q 502 127 457 106 q 573 187 547 149 q 599 274 599 225 q 573 358 599 324 q 495 415 547 393 q 361 444 443 436 q 276 464 313 450 q 215 501 240 478 l 215 104 z "},"C":{"ha":1038,"x_min":58,"x_max":989,"o":"m 874 378 l 989 378 q 907 178 972 267 q 743 39 842 90 q 526 -12 644 -12 q 344 23 429 -12 q 195 122 260 58 q 94 270 131 186 q 58 451 58 354 q 94 633 58 549 q 195 781 131 717 q 344 880 260 844 q 526 915 429 915 q 733 869 638 915 q 893 742 828 822 q 982 558 958 661 l 865 558 q 794 689 843 632 q 676 778 744 746 q 526 811 607 811 q 389 783 453 811 q 276 706 325 756 q 200 592 228 657 q 172 451 172 526 q 200 311 172 376 q 276 197 228 246 q 389 119 325 147 q 526 92 453 92 q 685 129 613 92 q 807 232 757 167 q 874 378 857 297 z "},"D":{"ha":765,"x_min":104,"x_max":707,"o":"m 104 0 l 104 903 l 215 903 q 472 844 361 903 q 644 685 582 786 q 707 451 707 583 q 644 219 707 321 q 472 58 582 117 q 215 0 361 0 l 104 0 m 215 46 l 172 104 l 239 104 q 422 150 342 104 q 547 274 501 196 q 593 451 593 353 q 547 628 593 550 q 422 753 501 707 q 239 799 342 799 l 172 799 l 215 856 l 215 46 z "},"E":{"ha":639,"x_min":104,"x_max":581,"o":"m 104 0 l 104 903 l 581 903 l 581 799 l 164 799 l 215 847 l 215 256 l 135 121 q 181 329 135 242 q 314 464 228 417 q 518 511 400 511 l 539 511 l 539 407 l 518 407 q 297 330 379 407 q 215 121 215 253 l 215 56 l 142 104 l 581 104 l 581 0 l 104 0 z "},"F":{"ha":624,"x_min":104,"x_max":575,"o":"m 104 0 l 104 903 l 575 903 l 575 799 l 150 799 l 215 861 l 215 269 l 135 135 q 181 343 135 256 q 314 478 228 431 q 518 525 400 525 l 539 525 l 539 421 l 518 421 q 297 344 379 421 q 215 135 215 267 l 215 0 l 104 0 z "},"G":{"ha":1064,"x_min":58,"x_max":988,"o":"m 950 342 q 865 155 925 235 q 717 31 804 75 q 526 -12 631 -12 q 344 23 429 -12 q 195 122 260 58 q 94 270 131 186 q 58 451 58 354 q 94 633 58 549 q 195 781 131 717 q 344 880 260 844 q 526 915 429 915 q 732 870 638 915 q 892 744 826 825 q 982 558 958 664 l 864 558 q 791 691 842 635 q 672 779 740 747 q 526 811 604 811 q 389 783 453 811 q 276 706 325 756 q 200 592 228 657 q 172 451 172 526 q 200 311 172 376 q 276 197 228 246 q 389 119 325 147 q 526 92 453 92 q 685 128 613 92 q 807 230 757 165 q 874 378 857 294 l 988 378 l 988 0 l 882 0 l 882 342 l 950 342 z "},"H":{"ha":806,"x_min":104,"x_max":701,"o":"m 104 0 l 104 903 l 215 903 l 215 225 l 160 225 q 242 390 181 321 q 399 497 304 460 q 611 535 493 535 l 667 535 l 667 431 l 583 431 q 390 382 472 431 q 261 247 307 333 q 215 43 215 160 l 215 0 l 104 0 m 701 0 l 590 0 l 590 903 l 701 903 l 701 0 z "},"I":{"ha":319,"x_min":104,"x_max":215,"o":"m 215 0 l 104 0 l 104 903 l 215 903 l 215 0 z "},"J":{"ha":449,"x_min":50,"x_max":357,"o":"m 246 844 l 300 799 l 50 799 l 50 903 l 357 903 l 357 260 q 285 69 357 138 q 83 0 213 0 l 50 0 l 50 104 l 83 104 q 203 144 161 104 q 246 260 246 183 l 246 844 z "},"K":{"ha":771,"x_min":104,"x_max":718,"o":"m 104 0 l 104 903 l 215 903 l 215 244 l 136 222 l 579 903 l 704 903 l 360 374 l 283 369 q 346 400 311 389 q 411 411 381 411 q 572 374 503 411 q 680 269 642 336 q 718 114 718 203 l 718 0 l 607 0 l 607 107 q 582 210 607 165 q 513 281 557 256 q 411 307 469 307 q 310 281 354 307 q 240 210 265 256 q 215 107 215 165 l 215 0 l 104 0 z "},"L":{"ha":594,"x_min":104,"x_max":549,"o":"m 549 0 l 104 0 l 104 903 l 215 903 l 215 104 l 549 104 l 549 0 z "},"M":{"ha":1081,"x_min":104,"x_max":976,"o":"m 104 0 l 104 903 l 164 903 q 359 865 272 903 q 503 760 446 828 q 576 600 560 693 l 504 600 q 578 760 522 693 q 722 865 635 828 q 917 903 808 903 l 976 903 l 976 0 l 865 0 l 865 808 l 897 792 l 861 792 q 721 756 781 792 q 628 656 661 721 q 596 503 596 590 l 596 278 l 485 278 l 485 503 q 452 656 485 590 q 360 756 419 721 q 219 792 300 792 l 183 792 l 215 808 l 215 0 l 104 0 z "},"N":{"ha":806,"x_min":104,"x_max":701,"o":"m 104 0 l 104 903 l 208 903 q 388 565 289 714 q 618 288 486 415 l 590 274 l 590 903 l 701 903 l 701 0 l 590 0 l 590 207 l 611 151 q 452 311 528 226 q 313 488 376 396 q 200 675 249 581 l 215 675 l 215 0 l 104 0 z "},"O":{"ha":1053,"x_min":58,"x_max":994,"o":"m 172 451 q 200 311 172 376 q 276 197 228 246 q 389 119 325 147 q 526 92 453 92 q 664 119 600 92 q 776 197 728 147 q 853 311 825 246 q 881 451 881 376 q 853 592 881 526 q 776 706 825 657 q 664 783 728 756 q 526 811 600 811 q 389 783 453 811 q 276 706 325 756 q 200 592 228 657 q 172 451 172 526 m 58 451 q 94 633 58 549 q 195 781 131 717 q 344 880 260 844 q 526 915 429 915 q 708 880 624 915 q 858 781 793 844 q 958 633 922 717 q 994 451 994 549 q 958 270 994 354 q 858 122 922 186 q 708 23 793 58 q 526 -12 624 -12 q 344 23 429 -12 q 195 122 260 58 q 94 270 131 186 q 58 451 58 354 z "},"P":{"ha":735,"x_min":104,"x_max":693,"o":"m 104 0 l 104 903 l 368 903 q 538 868 465 903 q 652 772 611 833 q 693 626 693 710 q 667 494 693 547 q 599 407 642 442 q 505 348 556 372 q 403 300 454 324 q 310 247 353 276 q 241 173 267 218 q 215 60 215 128 l 215 0 l 104 0 m 215 299 q 288 353 249 331 q 368 395 328 376 q 447 433 408 414 q 515 477 485 453 q 562 536 544 501 q 579 621 579 571 q 523 751 579 703 q 372 799 467 799 l 215 799 l 215 299 z "},"Q":{"ha":1069,"x_min":58,"x_max":1056,"o":"m 944 0 l 944 24 q 917 142 944 90 q 842 223 890 193 q 732 253 794 253 q 622 224 671 253 q 547 144 574 194 q 519 25 519 93 l 413 25 q 454 193 413 119 q 568 310 496 267 q 732 353 640 353 q 899 310 826 353 q 1014 194 972 268 q 1056 24 1056 121 l 1056 0 l 944 0 m 526 92 q 664 119 600 92 q 776 197 728 147 q 853 311 825 246 q 881 451 881 376 q 853 592 881 526 q 776 706 825 657 q 664 783 728 756 q 526 811 600 811 q 389 783 453 811 q 276 706 325 756 q 200 592 228 657 q 172 451 172 526 q 200 311 172 376 q 276 197 228 246 q 389 119 325 147 q 526 92 453 92 m 526 -12 q 344 23 429 -12 q 195 122 260 58 q 94 270 131 186 q 58 451 58 354 q 94 633 58 549 q 195 781 131 717 q 344 880 260 844 q 526 915 429 915 q 708 880 624 915 q 858 781 793 844 q 958 633 922 717 q 994 451 994 549 q 974 313 994 379 q 913 188 953 246 l 906 178 q 740 38 839 88 q 526 -12 640 -12 z "},"R":{"ha":781,"x_min":104,"x_max":721,"o":"m 104 0 l 104 903 l 368 903 q 538 868 465 903 q 652 772 611 833 q 693 626 693 710 q 678 528 693 571 q 638 455 664 486 q 580 400 613 424 q 511 357 547 376 q 623 300 576 340 q 695 202 669 260 q 721 72 721 144 l 721 0 l 610 0 l 610 65 q 585 173 610 126 q 515 246 560 219 q 413 272 471 272 q 310 246 354 272 q 240 173 265 219 q 215 65 215 126 l 215 0 l 104 0 m 215 799 l 215 303 q 288 356 249 333 q 368 397 328 378 q 447 435 408 415 q 515 479 485 454 q 562 538 544 504 q 579 621 579 572 q 523 751 579 703 q 372 799 467 799 l 215 799 z "},"S":{"ha":681,"x_min":50,"x_max":628,"o":"m 344 -12 q 198 20 265 -12 q 90 114 131 53 q 50 264 50 175 l 161 264 q 185 175 161 214 q 250 114 208 136 q 344 92 292 92 q 467 133 419 92 q 514 239 514 174 q 490 317 514 286 q 427 369 467 347 q 340 408 388 390 q 246 446 293 425 q 159 496 199 467 q 96 569 119 525 q 72 679 72 613 q 108 798 72 744 q 203 883 143 851 q 335 915 263 915 q 476 883 415 915 q 572 792 538 850 q 607 658 607 735 l 496 658 q 451 769 496 726 q 335 811 406 811 q 260 794 294 811 q 206 747 226 776 q 186 679 186 717 q 210 604 186 633 q 273 553 233 575 q 360 515 313 532 q 454 476 407 497 q 541 425 501 456 q 604 350 581 394 q 628 239 628 306 q 591 110 628 167 q 490 20 554 53 q 344 -12 426 -12 z "},"T":{"ha":642,"x_min":35,"x_max":607,"o":"m 265 0 l 265 851 l 307 811 q 160 806 233 811 q 35 793 88 800 l 35 897 q 166 910 89 904 q 321 915 243 915 q 476 910 399 915 q 607 897 553 904 l 607 793 q 528 801 572 797 q 434 808 483 806 q 335 811 385 811 l 376 851 l 376 0 l 265 0 z "},"U":{"ha":768,"x_min":92,"x_max":676,"o":"m 385 96 q 478 119 438 96 q 542 182 518 142 q 565 274 565 222 l 565 903 l 676 903 l 676 274 q 640 124 676 189 q 538 24 603 60 q 385 -12 472 -12 q 231 24 297 -12 q 128 124 165 60 q 92 274 92 189 l 92 903 l 203 903 l 203 274 q 226 182 203 222 q 291 119 250 142 q 385 96 332 96 z "},"V":{"ha":772,"x_min":104,"x_max":717,"o":"m 179 0 l 104 0 l 104 903 l 215 903 l 215 92 l 199 111 q 385 140 314 111 q 493 236 456 169 q 543 417 531 303 l 601 903 l 717 903 l 658 417 q 585 178 640 269 q 431 43 531 86 q 179 0 331 0 z "},"W":{"ha":1154,"x_min":104,"x_max":1099,"o":"m 104 0 l 104 903 l 215 903 l 215 92 l 200 110 q 441 195 357 110 q 525 438 525 281 l 525 903 l 636 903 l 636 92 l 610 110 q 781 139 715 110 q 881 235 846 168 q 929 417 917 303 l 985 903 l 1099 903 l 1043 417 q 974 174 1026 265 q 827 41 921 82 q 590 0 733 0 l 525 0 l 525 286 l 615 433 q 502 115 615 229 q 185 0 389 0 l 104 0 z "},"X":{"ha":688,"x_min":13,"x_max":675,"o":"m 675 0 l 543 0 l 331 453 l 257 443 l 31 903 l 154 903 l 360 488 l 433 496 l 675 0 m 13 0 l 251 496 l 328 488 l 538 903 l 657 903 l 428 443 l 356 453 l 140 0 l 13 0 z "},"Y":{"ha":704,"x_min":49,"x_max":676,"o":"m 315 0 l 565 903 l 676 903 l 433 0 l 315 0 m 49 636 q 58 753 49 693 q 92 903 68 813 l 201 903 q 167 751 176 810 q 157 636 157 693 q 228 435 157 506 q 431 365 300 365 l 464 365 l 464 261 l 431 261 q 224 306 310 261 q 94 434 139 350 q 49 636 49 518 z "},"Z":{"ha":647,"x_min":49,"x_max":606,"o":"m 606 0 l 49 0 l 476 881 l 476 799 l 49 799 l 49 903 l 606 903 l 179 22 l 179 104 l 606 104 l 606 0 z "},"Æ":{"ha":1074,"x_min":92,"x_max":1015,"o":"m 92 0 l 92 619 q 128 767 92 704 q 232 867 165 831 q 385 903 299 903 l 567 903 l 567 799 l 385 799 q 290 774 332 797 q 226 710 249 750 q 203 619 203 671 l 203 0 l 92 0 m 175 278 l 175 382 l 567 382 l 567 278 l 175 278 m 539 0 l 539 903 l 1015 903 l 1015 799 l 599 799 l 650 847 l 650 256 l 569 135 q 617 335 569 250 q 750 466 664 419 q 953 513 836 513 l 974 513 l 974 407 l 953 407 q 732 333 814 407 q 650 135 650 260 l 650 56 l 576 104 l 1015 104 l 1015 0 l 539 0 z "},"Œ":{"ha":1154,"x_min":58,"x_max":1096,"o":"m 643 0 l 557 0 q 357 33 449 0 q 199 127 265 67 q 95 270 132 188 q 58 451 58 353 q 95 633 58 550 q 199 776 132 715 q 357 869 265 836 q 557 903 449 903 l 643 903 l 643 799 l 526 799 q 389 772 453 799 q 276 697 325 744 q 200 587 228 650 q 172 451 172 524 q 200 316 172 379 q 276 206 228 253 q 389 131 325 158 q 526 104 453 104 l 643 104 l 643 0 m 619 0 l 619 903 l 1096 903 l 1096 799 l 679 799 l 731 847 l 731 256 l 650 135 q 697 335 650 250 q 831 466 744 419 q 1033 513 917 513 l 1054 513 l 1054 407 l 1033 407 q 813 333 894 407 q 731 135 731 260 l 731 56 l 657 104 l 1096 104 l 1096 0 l 619 0 z "},"Ł":{"ha":615,"x_min":14,"x_max":569,"o":"m 446 465 l 14 251 l 14 363 l 446 576 l 446 465 m 569 0 l 125 0 l 125 903 l 236 903 l 236 104 l 569 104 l 569 0 z "},"Ø":{"ha":1053,"x_min":50,"x_max":1003,"o":"m 526 92 q 664 119 600 92 q 776 197 728 147 q 853 311 825 246 q 881 451 881 376 q 853 592 881 526 q 776 706 825 657 q 664 783 728 756 q 526 811 600 811 q 389 783 453 811 q 276 706 325 756 q 200 592 228 657 q 172 451 172 526 q 200 311 172 376 q 276 197 228 246 q 389 119 325 147 q 526 92 453 92 m 526 -12 q 344 23 429 -12 q 195 122 260 58 q 94 270 131 186 q 58 451 58 354 q 94 633 58 549 q 195 781 131 717 q 344 880 260 844 q 526 915 429 915 q 708 880 624 915 q 858 781 793 844 q 958 633 922 717 q 994 451 994 549 q 958 270 994 354 q 858 122 922 186 q 708 23 793 58 q 526 -12 624 -12 m 50 0 l 753 779 l 776 807 l 863 903 l 1003 903 l 303 126 l 282 101 l 190 0 l 50 0 z "},"Ð":{"ha":786,"x_min":14,"x_max":728,"o":"m 404 400 l 14 400 l 14 504 l 404 504 l 404 400 m 125 0 l 125 903 l 236 903 q 492 844 382 903 q 665 685 603 786 q 728 451 728 583 q 665 219 728 321 q 492 58 603 117 q 236 0 382 0 l 125 0 m 236 46 l 193 104 l 260 104 q 442 150 363 104 q 568 274 522 196 q 614 451 614 353 q 568 628 614 550 q 442 753 522 707 q 260 799 363 799 l 193 799 l 236 856 l 236 46 z "},"Þ":{"ha":708,"x_min":104,"x_max":667,"o":"m 104 0 l 104 903 l 217 903 l 217 181 l 161 153 q 226 228 188 199 q 308 280 264 258 q 396 321 353 301 q 474 363 439 340 q 531 420 510 386 q 553 506 553 454 q 497 615 553 575 q 346 656 440 656 l 171 656 l 171 760 l 342 760 q 512 728 439 760 q 626 641 585 697 q 667 511 667 585 q 642 391 667 439 q 578 313 618 343 q 490 260 538 282 q 394 217 442 238 q 306 169 346 196 q 241 102 265 142 q 217 0 217 63 l 104 0 z "},"ẞ":{"ha":824,"x_min":92,"x_max":776,"o":"m 92 0 l 92 619 q 129 767 92 704 q 233 867 167 831 q 386 903 299 903 l 696 903 l 506 494 l 440 568 l 451 568 q 626 534 553 568 q 738 438 699 500 q 776 288 776 375 q 693 76 776 153 q 465 0 610 0 l 394 0 l 394 104 l 465 104 q 612 153 558 104 q 665 288 665 203 q 640 385 665 344 q 566 449 614 426 q 451 471 518 471 l 382 471 l 551 825 l 550 799 l 385 799 q 290 776 332 799 q 226 713 249 753 q 203 619 203 672 l 203 0 l 92 0 z "},"a":{"ha":688,"x_min":56,"x_max":604,"o":"m 315 -12 q 180 15 239 -12 q 88 90 121 42 q 56 200 56 138 q 89 310 56 263 q 181 385 122 358 q 315 413 239 413 q 499 356 431 413 q 568 203 568 299 q 499 47 568 106 q 315 -12 431 -12 m 329 79 q 451 113 406 79 q 496 203 496 147 q 451 290 496 258 q 329 321 407 321 q 208 289 253 321 q 164 200 164 257 q 208 112 164 144 q 329 79 253 79 m 604 0 l 503 0 l 503 146 l 496 146 l 496 415 q 456 531 496 489 q 344 572 415 572 q 253 547 290 572 q 201 475 217 522 l 90 475 q 138 577 103 533 q 226 645 174 621 q 343 669 279 669 q 534 599 464 669 q 604 410 604 529 l 604 0 z "},"b":{"ha":749,"x_min":86,"x_max":693,"o":"m 86 0 l 86 903 l 194 903 l 194 69 l 169 97 l 319 97 q 458 128 399 97 q 551 216 518 160 q 585 346 585 272 q 556 468 585 418 q 478 544 526 518 q 369 571 429 571 q 259 543 310 571 q 164 454 208 515 l 101 496 q 223 626 151 582 q 385 669 294 669 q 541 628 471 669 q 652 515 611 588 q 693 346 693 442 q 645 166 693 244 q 513 44 597 88 q 319 0 429 0 l 86 0 z "},"c":{"ha":783,"x_min":56,"x_max":735,"o":"m 628 261 l 735 261 q 670 119 718 181 q 553 22 622 57 q 400 -12 483 -12 q 226 33 304 -12 q 101 155 147 78 q 56 328 56 232 q 101 501 56 424 q 226 624 147 579 q 400 669 304 669 q 550 637 482 669 q 666 545 618 604 q 732 407 714 486 l 624 407 q 538 526 597 481 q 400 571 478 571 q 281 539 335 571 q 196 452 228 507 q 164 328 164 397 q 196 205 164 260 q 281 118 228 150 q 400 86 335 86 q 501 108 454 86 q 581 170 547 131 q 628 261 614 210 z "},"d":{"ha":749,"x_min":56,"x_max":663,"o":"m 663 0 l 429 0 q 235 43 319 0 q 103 164 150 86 q 56 343 56 242 q 96 511 56 438 q 206 627 136 585 q 367 669 276 669 q 526 631 453 669 q 640 528 599 593 l 585 475 q 492 544 549 518 q 381 571 435 571 q 268 542 317 571 q 192 460 219 513 q 164 340 164 408 q 197 215 164 269 q 288 128 229 160 q 424 97 347 97 l 579 97 l 554 69 l 554 903 l 663 903 l 663 0 z "},"e":{"ha":775,"x_min":56,"x_max":722,"o":"m 393 -12 q 223 33 300 -12 q 101 156 146 78 q 56 328 56 233 q 101 499 56 421 q 223 623 146 576 q 393 669 300 669 q 560 628 486 669 q 678 515 635 588 q 722 349 722 443 l 722 311 l 119 311 l 119 400 l 647 400 l 615 347 l 615 365 q 585 474 615 428 q 506 547 556 521 q 393 574 456 574 q 281 543 333 574 q 196 461 228 513 q 164 346 164 410 l 164 317 q 197 197 164 250 q 281 115 229 144 q 393 85 333 85 q 520 114 464 85 q 613 204 576 143 l 719 204 q 647 89 694 138 q 534 14 599 40 q 393 -12 469 -12 z "},"f":{"ha":457,"x_min":86,"x_max":422,"o":"m 86 0 l 86 688 q 145 847 86 790 q 310 903 204 903 l 422 903 l 422 806 l 310 806 q 223 776 253 806 q 193 688 193 746 l 193 460 l 131 311 q 195 527 131 454 q 383 600 260 600 l 407 600 l 407 501 l 383 501 q 240 452 288 501 q 193 304 193 403 l 193 0 l 86 0 z "},"g":{"ha":697,"x_min":38,"x_max":681,"o":"m 331 122 q 181 158 247 122 q 76 256 114 193 q 38 396 38 318 q 76 535 38 474 q 183 633 115 597 q 333 669 250 669 q 496 631 424 669 l 496 601 q 593 518 560 572 q 626 396 626 464 q 586 256 626 318 q 479 158 546 193 q 331 122 413 122 m 522 396 q 497 490 522 449 q 430 556 472 532 q 333 579 388 579 q 238 556 281 579 q 169 490 194 532 q 144 396 144 449 q 169 303 144 344 q 238 237 194 261 q 333 213 281 213 q 429 238 386 213 q 497 304 472 263 q 522 396 522 346 m 71 -208 l 71 -107 l 410 -107 q 507 -76 471 -107 q 543 8 543 -44 q 507 92 543 61 q 410 122 471 122 l 331 122 l 331 197 l 410 197 q 538 172 483 197 q 624 102 593 147 q 654 -3 654 57 q 626 -109 654 -62 q 542 -182 597 -156 q 410 -208 488 -208 l 71 -208 m 410 576 l 401 657 l 681 657 l 681 567 l 410 576 z "},"h":{"ha":706,"x_min":86,"x_max":622,"o":"m 86 0 l 86 903 l 194 903 l 194 532 l 118 388 q 188 592 118 515 q 375 669 258 669 q 555 598 488 669 q 622 406 622 526 l 622 0 l 514 0 l 514 401 q 471 526 514 479 q 354 572 428 572 q 238 526 282 572 q 194 401 194 479 l 194 0 l 86 0 z "},"i":{"ha":281,"x_min":69,"x_max":211,"o":"m 86 657 l 194 657 l 194 0 l 86 0 l 86 657 m 140 767 q 90 786 110 767 q 69 836 69 806 q 90 886 69 867 q 140 906 110 906 q 192 886 172 906 q 211 836 211 867 q 192 786 211 806 q 140 767 172 767 z "},"j":{"ha":281,"x_min":-24,"x_max":211,"o":"m 86 657 l 194 657 l 194 -21 q 144 -161 194 -114 q -6 -208 93 -208 l -24 -208 l -24 -111 l -6 -111 q 65 -90 43 -111 q 86 -21 86 -68 l 86 657 m 140 767 q 90 786 110 767 q 69 836 69 806 q 90 886 69 867 q 140 906 110 906 q 192 886 172 906 q 211 836 211 867 q 192 786 211 806 q 140 767 172 767 z "},"k":{"ha":700,"x_min":86,"x_max":644,"o":"m 86 0 l 86 903 l 194 903 l 194 268 l 113 99 q 118 188 113 151 q 138 253 124 225 q 178 310 153 281 l 488 657 l 617 657 l 318 322 l 249 322 q 305 353 271 342 q 365 365 339 365 q 570 294 496 365 q 644 97 644 222 l 644 0 l 536 0 l 536 97 q 490 225 536 179 q 365 271 444 271 q 240 225 286 271 q 194 99 194 179 l 194 0 l 86 0 z "},"l":{"ha":332,"x_min":76,"x_max":297,"o":"m 297 0 l 276 0 q 126 49 176 0 q 76 194 76 97 l 76 903 l 185 903 l 185 197 q 208 122 185 146 q 279 97 231 97 l 297 97 l 297 0 z "},"m":{"ha":1078,"x_min":86,"x_max":994,"o":"m 86 0 l 86 657 l 188 657 l 188 485 l 118 388 q 185 592 118 515 q 361 669 251 669 q 530 598 467 669 q 593 406 593 526 l 507 388 q 537 540 507 478 q 621 636 567 603 q 747 669 675 669 q 927 598 860 669 q 994 406 994 526 l 994 0 l 886 0 l 886 401 q 847 526 886 479 q 740 572 807 572 q 634 526 674 572 q 594 401 594 479 l 594 0 l 486 0 l 486 401 q 447 526 486 479 q 340 572 407 572 q 234 526 274 572 q 194 401 194 479 l 194 0 l 86 0 z "},"n":{"ha":706,"x_min":86,"x_max":622,"o":"m 188 485 l 118 388 q 188 592 118 515 q 375 669 258 669 q 555 598 488 669 q 622 406 622 526 l 622 0 l 514 0 l 514 401 q 471 526 514 479 q 354 572 428 572 q 238 526 282 572 q 194 401 194 479 l 194 0 l 86 0 l 86 657 l 188 657 l 188 485 z "},"o":{"ha":806,"x_min":56,"x_max":750,"o":"m 403 -12 q 226 33 306 -12 q 101 155 147 78 q 56 328 56 232 q 101 501 56 424 q 226 624 147 579 q 403 669 306 669 q 580 624 501 669 q 704 501 658 579 q 750 328 750 424 q 704 156 750 233 q 580 33 658 78 q 403 -12 501 -12 m 403 571 q 282 538 336 571 q 196 450 228 506 q 164 328 164 394 q 196 206 164 261 q 282 119 228 151 q 403 86 336 86 q 524 119 469 86 q 610 206 578 151 q 642 328 642 261 q 610 450 642 394 q 524 538 578 506 q 403 571 469 571 z "},"p":{"ha":749,"x_min":86,"x_max":693,"o":"m 86 -208 l 86 657 l 319 657 q 513 613 429 657 q 645 492 597 569 q 693 311 693 414 q 652 142 693 215 q 541 28 611 69 q 385 -12 471 -12 q 223 31 294 -12 q 101 161 151 75 l 164 203 q 259 115 208 143 q 369 86 310 86 q 478 113 429 86 q 556 189 526 139 q 585 311 585 239 q 551 441 585 385 q 458 528 518 497 q 319 560 399 560 l 169 560 l 194 588 l 194 -208 l 86 -208 z "},"q":{"ha":749,"x_min":56,"x_max":663,"o":"m 663 -208 l 554 -208 l 554 601 l 579 560 l 429 560 q 290 528 350 560 q 197 441 231 497 q 164 311 164 385 q 193 189 164 239 q 271 113 222 139 q 379 86 319 86 q 491 115 440 86 q 585 203 542 143 l 647 161 q 526 31 597 75 q 364 -12 454 -12 q 208 28 278 -12 q 97 142 138 69 q 56 311 56 215 q 103 492 56 414 q 236 613 151 569 q 429 657 321 657 l 663 657 l 663 -208 z "},"r":{"ha":451,"x_min":86,"x_max":407,"o":"m 86 0 l 86 657 l 186 657 l 186 485 l 132 389 q 199 597 132 524 q 390 669 267 669 l 407 669 l 407 565 l 375 565 q 240 519 285 565 q 194 381 194 474 l 194 0 l 86 0 z "},"s":{"ha":574,"x_min":56,"x_max":525,"o":"m 65 0 l 65 97 l 306 97 q 389 121 360 97 q 418 186 418 144 q 392 244 418 224 q 324 276 365 264 q 237 299 283 288 q 149 331 190 311 q 82 387 108 351 q 56 483 56 422 q 110 608 56 558 q 257 657 164 657 l 493 657 l 493 560 l 257 560 q 186 540 210 560 q 163 486 163 519 q 189 432 163 451 q 256 400 215 413 q 344 376 297 388 q 431 343 390 364 q 499 285 472 322 q 525 186 525 249 q 467 52 525 104 q 310 0 410 0 l 65 0 z "},"t":{"ha":451,"x_min":76,"x_max":399,"o":"m 396 560 l 154 560 l 154 657 l 396 657 l 396 560 m 301 0 q 133 56 190 0 q 76 221 76 111 l 76 813 l 183 840 l 183 221 q 213 127 183 157 q 304 97 243 97 l 399 97 l 399 0 l 301 0 z "},"u":{"ha":689,"x_min":83,"x_max":606,"o":"m 83 657 l 192 657 l 192 253 q 233 131 192 176 q 344 86 274 86 q 456 131 415 86 q 497 253 497 176 l 497 657 l 606 657 l 606 260 q 535 60 606 132 q 344 -12 464 -12 q 154 60 225 -12 q 83 260 83 132 l 83 657 z "},"v":{"ha":672,"x_min":86,"x_max":624,"o":"m 86 0 l 86 657 l 194 657 l 194 104 l 246 104 q 407 152 354 104 q 474 310 460 200 l 515 657 l 624 657 l 582 310 q 483 74 563 147 q 250 0 404 0 l 86 0 z "},"w":{"ha":1036,"x_min":86,"x_max":988,"o":"m 86 0 l 86 657 l 194 657 l 194 104 l 240 104 q 410 163 347 104 q 472 338 472 224 l 472 657 l 579 657 l 579 104 l 610 104 q 772 151 719 104 q 838 310 824 199 l 879 657 l 988 657 l 946 310 q 847 74 926 147 q 614 0 768 0 l 482 0 l 482 97 q 408 35 456 57 q 325 8 372 17 q 213 0 278 0 l 86 0 z "},"x":{"ha":624,"x_min":19,"x_max":604,"o":"m 19 0 l 229 365 l 294 358 l 471 657 l 589 657 l 389 322 l 326 333 l 142 0 l 19 0 m 604 0 l 481 0 l 292 333 l 233 322 l 36 657 l 153 657 l 329 358 l 392 365 l 604 0 z "},"y":{"ha":686,"x_min":63,"x_max":651,"o":"m 63 349 q 73 497 63 421 q 106 657 83 572 l 215 657 q 181 483 190 551 q 171 349 171 414 q 236 160 171 226 q 411 94 301 94 l 431 94 l 431 -7 l 411 -7 q 229 35 308 -7 q 106 156 150 76 q 63 349 63 236 m 297 -208 l 540 657 l 651 657 l 413 -208 l 297 -208 z "},"z":{"ha":572,"x_min":42,"x_max":528,"o":"m 524 0 l 42 0 l 400 638 l 410 560 l 43 560 l 43 657 l 528 657 l 171 19 l 167 97 l 524 97 l 524 0 z "},"æ":{"ha":1208,"x_min":56,"x_max":1163,"o":"m 833 -12 q 663 33 739 -12 q 541 156 586 79 q 496 328 496 233 q 542 499 496 422 q 664 623 588 576 q 833 669 740 669 q 1002 628 928 669 q 1119 514 1076 586 q 1163 349 1163 442 l 1163 311 l 560 311 l 560 400 l 1088 400 l 1056 347 l 1056 365 q 1026 472 1056 425 q 947 547 997 519 q 833 574 897 574 q 719 542 771 574 q 635 460 667 511 q 604 346 604 408 l 604 317 q 635 200 604 253 q 719 116 667 147 q 833 85 771 85 q 963 115 907 85 q 1053 204 1018 144 l 1160 204 q 1087 89 1135 138 q 974 14 1039 40 q 833 -12 910 -12 m 315 -12 q 180 15 239 -12 q 88 90 121 42 q 56 200 56 138 q 89 310 56 263 q 181 385 122 358 q 315 413 239 413 q 499 356 431 413 q 568 203 568 299 q 499 47 568 106 q 315 -12 431 -12 m 329 79 q 451 113 406 79 q 496 203 496 147 q 451 290 496 258 q 329 321 407 321 q 208 289 253 321 q 164 200 164 257 q 208 112 164 144 q 329 79 253 79 m 514 0 l 514 118 l 496 118 l 496 415 q 456 531 496 489 q 344 572 415 572 q 253 548 290 572 q 201 475 217 524 l 90 475 q 140 578 104 535 q 227 646 175 622 q 343 669 279 669 q 529 599 461 669 q 597 410 597 529 l 597 146 l 615 146 l 615 0 l 514 0 z "},"œ":{"ha":1361,"x_min":56,"x_max":1308,"o":"m 403 86 q 524 119 469 86 q 610 206 578 151 q 642 328 642 261 q 610 450 642 394 q 524 538 578 506 q 403 571 469 571 q 282 538 336 571 q 196 450 228 506 q 164 328 164 394 q 196 206 164 261 q 282 119 228 151 q 403 86 336 86 m 403 -12 q 226 33 306 -12 q 101 155 147 78 q 56 328 56 232 q 101 501 56 424 q 226 624 147 579 q 403 669 306 669 q 541 640 476 669 q 653 559 606 611 q 722 436 700 507 l 665 436 q 735 558 688 506 q 845 640 782 611 q 979 669 908 669 q 1148 628 1074 669 q 1265 514 1222 586 q 1308 349 1308 442 l 1308 311 l 706 311 l 706 400 l 1233 400 l 1201 347 l 1201 365 q 1172 472 1201 425 q 1093 547 1143 519 q 979 574 1043 574 q 865 542 917 574 q 781 460 813 511 q 750 346 750 408 l 750 317 q 781 200 750 253 q 865 116 813 147 q 979 85 917 85 q 1108 115 1053 85 q 1199 204 1164 144 l 1306 204 q 1233 89 1281 138 q 1120 14 1185 40 q 979 -12 1056 -12 q 844 16 907 -12 q 735 96 782 44 q 665 217 689 147 l 721 217 q 651 96 699 147 q 540 16 604 44 q 403 -12 476 -12 z "},"ł":{"ha":378,"x_min":21,"x_max":336,"o":"m 336 468 l 21 319 l 21 426 l 336 574 l 336 468 m 336 0 l 315 0 q 165 49 215 0 q 115 194 115 97 l 115 903 l 224 903 l 224 197 q 247 122 224 146 q 318 97 269 97 l 336 97 l 336 0 z "},"ø":{"ha":819,"x_min":46,"x_max":774,"o":"m 410 -12 q 233 33 313 -12 q 108 155 154 78 q 63 328 63 232 q 108 501 63 424 q 233 624 154 579 q 410 669 313 669 q 587 624 508 669 q 711 501 665 579 q 757 328 757 424 q 711 156 757 233 q 587 33 665 78 q 410 -12 508 -12 m 410 571 q 289 538 343 571 q 203 450 235 506 q 171 328 171 394 q 203 206 171 261 q 289 119 235 151 q 410 86 343 86 q 531 119 476 86 q 617 206 585 151 q 649 328 649 261 q 617 450 649 394 q 531 538 585 506 q 410 571 476 571 m 642 657 l 774 657 l 178 0 l 46 0 l 642 657 z "},"ð":{"ha":743,"x_min":56,"x_max":688,"o":"m 372 86 q 476 114 429 86 q 551 188 524 142 q 579 290 579 235 q 551 394 579 347 q 476 469 524 442 q 372 497 429 497 q 268 469 315 497 q 192 394 221 442 q 164 290 164 347 q 192 187 164 233 q 267 113 219 140 q 372 86 315 86 m 369 -12 q 210 28 282 -12 q 97 137 139 68 q 56 290 56 206 q 98 444 56 375 q 212 553 140 513 q 372 593 283 593 q 505 558 443 593 q 596 469 567 524 l 542 453 l 251 903 l 368 903 l 607 529 q 656 442 639 481 q 681 367 674 403 q 688 293 688 332 q 645 139 688 208 q 531 28 603 69 q 369 -12 458 -12 m 626 790 l 183 653 l 183 740 l 626 878 l 626 790 z "},"þ":{"ha":749,"x_min":86,"x_max":693,"o":"m 86 -208 l 86 903 l 194 903 l 194 -208 l 86 -208 m 385 -12 q 223 31 294 -12 q 101 161 151 75 l 164 201 q 259 113 208 142 q 369 85 310 85 q 478 111 429 85 q 556 188 526 138 q 585 311 585 239 q 551 441 585 385 q 458 528 518 497 q 319 560 399 560 l 169 560 l 169 657 l 319 657 q 513 613 429 657 q 645 492 597 569 q 693 311 693 414 q 652 142 693 215 q 541 28 611 69 q 385 -12 471 -12 z "},"ß":{"ha":806,"x_min":86,"x_max":757,"o":"m 86 0 l 86 614 q 120 773 86 706 q 217 878 154 840 q 367 915 279 915 q 499 888 443 915 q 585 816 554 861 q 615 717 615 771 q 600 634 615 668 q 565 576 585 600 q 531 531 546 551 q 515 490 515 511 q 540 445 515 464 q 600 408 564 426 q 672 363 636 389 q 733 299 708 338 q 757 200 757 260 q 696 54 757 108 q 532 0 635 0 l 356 0 l 356 97 l 532 97 q 619 125 589 97 q 650 200 650 153 q 626 267 650 240 q 565 313 601 293 q 493 352 529 332 q 433 399 457 372 q 408 469 408 426 q 424 538 408 510 q 458 591 439 567 q 493 642 478 615 q 508 703 508 668 q 470 785 508 754 q 367 817 432 817 q 239 760 283 817 q 194 614 194 704 l 194 0 l 86 0 z "},"ı":{"ha":281,"x_min":86,"x_max":194,"o":"m 86 657 l 194 657 l 194 0 l 86 0 l 86 657 z "},"ȷ":{"ha":281,"x_min":-24,"x_max":194,"o":"m 86 657 l 194 657 l 194 -21 q 144 -161 194 -114 q -6 -208 93 -208 l -24 -208 l -24 -111 l -6 -111 q 65 -90 43 -111 q 86 -21 86 -68 l 86 657 z "},"Á":{"ha":769,"x_min":92,"x_max":678,"o":"m 333 989 l 431 1208 l 550 1208 l 431 989 l 333 989 m 92 0 l 92 619 q 128 774 92 707 q 232 878 165 840 q 385 915 299 915 q 538 878 472 915 q 641 774 604 840 q 678 619 678 707 l 678 0 l 567 0 l 567 29 q 484 250 567 167 q 244 333 401 333 l 161 333 l 161 438 l 217 438 q 494 373 390 438 q 622 197 597 308 l 567 197 l 567 619 q 543 717 567 675 q 478 783 519 758 q 385 807 438 807 q 290 783 332 807 q 226 717 249 758 q 203 619 203 675 l 203 0 l 92 0 z "},"Â":{"ha":769,"x_min":92,"x_max":678,"o":"m 92 0 l 92 619 q 128 774 92 707 q 232 878 165 840 q 385 915 299 915 q 538 878 472 915 q 641 774 604 840 q 678 619 678 707 l 678 0 l 567 0 l 567 29 q 484 250 567 167 q 244 333 401 333 l 161 333 l 161 438 l 217 438 q 494 373 390 438 q 622 197 597 308 l 567 197 l 567 619 q 543 717 567 675 q 478 783 519 758 q 385 807 438 807 q 290 783 332 807 q 226 717 249 758 q 203 619 203 675 l 203 0 l 92 0 m 442 1208 l 596 989 l 483 989 l 358 1171 l 408 1171 l 285 989 l 174 989 l 326 1208 l 442 1208 z "},"Ä":{"ha":769,"x_min":92,"x_max":678,"o":"m 92 0 l 92 619 q 128 774 92 707 q 232 878 165 840 q 385 915 299 915 q 538 878 472 915 q 641 774 604 840 q 678 619 678 707 l 678 0 l 567 0 l 567 29 q 484 250 567 167 q 244 333 401 333 l 161 333 l 161 438 l 217 438 q 494 373 390 438 q 622 197 597 308 l 567 197 l 567 619 q 543 717 567 675 q 478 783 519 758 q 385 807 438 807 q 290 783 332 807 q 226 717 249 758 q 203 619 203 675 l 203 0 l 92 0 m 261 1021 q 210 1040 231 1021 q 190 1090 190 1060 q 210 1140 190 1121 q 261 1160 231 1160 q 313 1140 293 1160 q 332 1090 332 1121 q 313 1040 332 1060 q 261 1021 293 1021 m 508 1021 q 458 1040 478 1021 q 438 1090 438 1060 q 458 1140 438 1121 q 508 1160 478 1160 q 560 1140 540 1160 q 579 1090 579 1121 q 560 1040 579 1060 q 508 1021 540 1021 z "},"À":{"ha":769,"x_min":92,"x_max":678,"o":"m 92 0 l 92 619 q 128 774 92 707 q 232 878 165 840 q 385 915 299 915 q 538 878 472 915 q 641 774 604 840 q 678 619 678 707 l 678 0 l 567 0 l 567 29 q 484 250 567 167 q 244 333 401 333 l 161 333 l 161 438 l 217 438 q 494 373 390 438 q 622 197 597 308 l 567 197 l 567 619 q 543 717 567 675 q 478 783 519 758 q 385 807 438 807 q 290 783 332 807 q 226 717 249 758 q 203 619 203 675 l 203 0 l 92 0 m 431 989 l 333 989 l 207 1208 l 326 1208 l 431 989 z "},"Å":{"ha":769,"x_min":92,"x_max":678,"o":"m 385 915 q 441 935 421 915 q 461 989 461 956 q 441 1042 461 1022 q 385 1063 421 1063 q 329 1042 350 1063 q 308 989 308 1022 q 329 935 308 956 q 385 915 350 915 m 92 0 l 92 619 q 151 808 92 731 q 308 907 210 885 l 308 849 q 243 905 268 868 q 218 989 218 942 q 265 1101 218 1056 q 385 1146 313 1146 q 471 1125 433 1146 q 530 1069 508 1104 q 551 989 551 1033 q 527 905 551 942 q 461 849 503 868 l 461 907 q 619 808 560 885 q 678 619 678 731 l 678 0 l 567 0 l 567 29 q 484 250 567 167 q 244 333 401 333 l 161 333 l 161 438 l 217 438 q 494 373 390 438 q 622 197 597 308 l 567 197 l 567 619 q 543 717 567 675 q 478 783 519 758 q 385 807 438 807 q 290 783 332 807 q 226 717 249 758 q 203 619 203 675 l 203 0 l 92 0 z "},"Ã":{"ha":769,"x_min":92,"x_max":678,"o":"m 92 0 l 92 619 q 128 774 92 707 q 232 878 165 840 q 385 915 299 915 q 538 878 472 915 q 641 774 604 840 q 678 619 678 707 l 678 0 l 567 0 l 567 29 q 484 250 567 167 q 244 333 401 333 l 161 333 l 161 438 l 217 438 q 494 373 390 438 q 622 197 597 308 l 567 197 l 567 619 q 543 717 567 675 q 478 783 519 758 q 385 807 438 807 q 290 783 332 807 q 226 717 249 758 q 203 619 203 675 l 203 0 l 92 0 m 176 989 l 176 1078 q 206 1177 176 1142 q 290 1213 236 1213 q 351 1198 326 1213 q 392 1163 375 1183 q 422 1121 410 1142 q 447 1085 435 1100 q 474 1071 458 1071 q 498 1083 490 1071 q 506 1119 506 1094 l 506 1208 l 593 1208 l 593 1119 q 563 1020 593 1056 q 479 985 533 985 q 419 999 443 985 q 377 1035 394 1014 q 347 1076 360 1056 q 323 1112 335 1097 q 296 1126 311 1126 q 264 1078 264 1126 l 264 989 l 176 989 z "},"Ă":{"ha":769,"x_min":92,"x_max":678,"o":"m 385 1072 q 468 1098 438 1072 q 499 1174 499 1124 l 499 1208 l 588 1208 l 588 1174 q 532 1033 588 1082 q 385 985 476 985 q 237 1033 292 985 q 182 1174 182 1082 l 182 1208 l 271 1208 l 271 1174 q 301 1098 271 1124 q 385 1072 331 1072 m 92 0 l 92 619 q 128 774 92 707 q 232 878 165 840 q 385 915 299 915 q 538 878 472 915 q 641 774 604 840 q 678 619 678 707 l 678 0 l 567 0 l 567 29 q 484 250 567 167 q 244 333 401 333 l 161 333 l 161 438 l 217 438 q 494 373 390 438 q 622 197 597 308 l 567 197 l 567 619 q 543 717 567 675 q 478 783 519 758 q 385 807 438 807 q 290 783 332 807 q 226 717 249 758 q 203 619 203 675 l 203 0 l 92 0 z "},"Ā":{"ha":769,"x_min":92,"x_max":678,"o":"m 211 1132 l 558 1132 l 558 1035 l 211 1035 l 211 1132 m 92 0 l 92 619 q 128 774 92 707 q 232 878 165 840 q 385 915 299 915 q 538 878 472 915 q 641 774 604 840 q 678 619 678 707 l 678 0 l 567 0 l 567 29 q 484 250 567 167 q 244 333 401 333 l 161 333 l 161 438 l 217 438 q 494 373 390 438 q 622 197 597 308 l 567 197 l 567 619 q 543 717 567 675 q 478 783 519 758 q 385 807 438 807 q 290 783 332 807 q 226 717 249 758 q 203 619 203 675 l 203 0 l 92 0 z "},"Ą":{"ha":769,"x_min":92,"x_max":678,"o":"m 92 0 l 92 619 q 128 774 92 707 q 232 878 165 840 q 385 915 299 915 q 538 878 472 915 q 641 774 604 840 q 678 619 678 707 l 678 0 q 606 -51 631 -25 q 581 -104 581 -78 q 595 -136 581 -125 q 636 -147 610 -147 l 678 -147 l 678 -231 l 631 -231 q 526 -199 565 -231 q 486 -112 486 -167 q 501 -58 486 -83 q 544 -8 515 -32 q 613 35 572 15 l 613 0 l 567 0 l 567 29 q 484 250 567 167 q 244 333 401 333 l 161 333 l 161 438 l 217 438 q 494 373 390 438 q 622 197 597 308 l 567 197 l 567 619 q 543 717 567 675 q 478 783 519 758 q 385 807 438 807 q 290 783 332 807 q 226 717 249 758 q 203 619 203 675 l 203 0 l 92 0 z "},"Ç":{"ha":1038,"x_min":58,"x_max":989,"o":"m 58 451 q 94 633 58 549 q 195 781 131 717 q 344 880 260 844 q 526 915 429 915 q 731 869 636 915 q 892 744 825 824 q 982 558 958 664 l 865 558 q 792 690 843 633 q 673 779 742 747 q 526 811 604 811 q 389 783 453 811 q 276 706 325 756 q 200 592 228 657 q 172 451 172 526 q 200 311 172 376 q 276 197 228 246 q 389 119 325 147 q 526 92 453 92 q 683 128 611 92 q 806 230 756 165 q 874 378 857 294 l 989 378 q 936 224 976 294 q 833 100 896 153 q 694 17 771 47 q 533 -12 618 -12 l 583 44 l 583 -189 l 475 -189 l 489 44 l 526 -12 q 344 23 429 -12 q 195 122 260 58 q 94 270 131 186 q 58 451 58 354 z "},"Ć":{"ha":1038,"x_min":58,"x_max":989,"o":"m 874 378 l 989 378 q 907 178 972 267 q 743 39 842 90 q 526 -12 644 -12 q 344 23 429 -12 q 195 122 260 58 q 94 270 131 186 q 58 451 58 354 q 94 633 58 549 q 195 781 131 717 q 344 880 260 844 q 526 915 429 915 q 733 869 638 915 q 893 742 828 822 q 982 558 958 661 l 865 558 q 794 689 843 632 q 676 778 744 746 q 526 811 607 811 q 389 783 453 811 q 276 706 325 756 q 200 592 228 657 q 172 451 172 526 q 200 311 172 376 q 276 197 228 246 q 389 119 325 147 q 526 92 453 92 q 685 129 613 92 q 807 232 757 167 q 874 378 857 297 m 469 989 l 567 1208 l 686 1208 l 567 989 l 469 989 z "},"Č":{"ha":1038,"x_min":58,"x_max":989,"o":"m 874 378 l 989 378 q 907 178 972 267 q 743 39 842 90 q 526 -12 644 -12 q 344 23 429 -12 q 195 122 260 58 q 94 270 131 186 q 58 451 58 354 q 94 633 58 549 q 195 781 131 717 q 344 880 260 844 q 526 915 429 915 q 733 869 638 915 q 893 742 828 822 q 982 558 958 661 l 865 558 q 794 689 843 632 q 676 778 744 746 q 526 811 607 811 q 389 783 453 811 q 276 706 325 756 q 200 592 228 657 q 172 451 172 526 q 200 311 172 376 q 276 197 228 246 q 389 119 325 147 q 526 92 453 92 q 685 129 613 92 q 807 232 757 167 q 874 378 857 297 m 464 989 l 310 1208 l 422 1208 l 547 1026 l 497 1026 l 621 1208 l 732 1208 l 579 989 l 464 989 z "},"Ĉ":{"ha":1038,"x_min":58,"x_max":989,"o":"m 874 378 l 989 378 q 907 178 972 267 q 743 39 842 90 q 526 -12 644 -12 q 344 23 429 -12 q 195 122 260 58 q 94 270 131 186 q 58 451 58 354 q 94 633 58 549 q 195 781 131 717 q 344 880 260 844 q 526 915 429 915 q 733 869 638 915 q 893 742 828 822 q 982 558 958 661 l 865 558 q 794 689 843 632 q 676 778 744 746 q 526 811 607 811 q 389 783 453 811 q 276 706 325 756 q 200 592 228 657 q 172 451 172 526 q 200 311 172 376 q 276 197 228 246 q 389 119 325 147 q 526 92 453 92 q 685 129 613 92 q 807 232 757 167 q 874 378 857 297 m 578 1208 l 732 989 l 619 989 l 494 1171 l 544 1171 l 421 989 l 310 989 l 463 1208 l 578 1208 z "},"Ċ":{"ha":1038,"x_min":58,"x_max":989,"o":"m 874 378 l 989 378 q 907 178 972 267 q 743 39 842 90 q 526 -12 644 -12 q 344 23 429 -12 q 195 122 260 58 q 94 270 131 186 q 58 451 58 354 q 94 633 58 549 q 195 781 131 717 q 344 880 260 844 q 526 915 429 915 q 733 869 638 915 q 893 742 828 822 q 982 558 958 661 l 865 558 q 794 689 843 632 q 676 778 744 746 q 526 811 607 811 q 389 783 453 811 q 276 706 325 756 q 200 592 228 657 q 172 451 172 526 q 200 311 172 376 q 276 197 228 246 q 389 119 325 147 q 526 92 453 92 q 685 129 613 92 q 807 232 757 167 q 874 378 857 297 m 521 1021 q 465 1042 486 1021 q 443 1097 443 1064 q 465 1152 443 1131 q 521 1174 486 1174 q 577 1152 556 1174 q 599 1097 599 1131 q 577 1042 599 1064 q 521 1021 556 1021 z "},"Ď":{"ha":765,"x_min":104,"x_max":707,"o":"m 104 0 l 104 903 l 215 903 q 472 844 361 903 q 644 685 582 786 q 707 451 707 583 q 644 219 707 321 q 472 58 582 117 q 215 0 361 0 l 104 0 m 215 46 l 172 104 l 239 104 q 422 150 342 104 q 547 274 501 196 q 593 451 593 353 q 547 628 593 550 q 422 753 501 707 q 239 799 342 799 l 172 799 l 215 856 l 215 46 m 281 989 l 126 1208 l 239 1208 l 364 1026 l 314 1026 l 438 1208 l 549 1208 l 396 989 l 281 989 z "},"Đ":{"ha":786,"x_min":14,"x_max":728,"o":"m 404 400 l 14 400 l 14 504 l 404 504 l 404 400 m 125 0 l 125 903 l 236 903 q 492 844 382 903 q 665 685 603 786 q 728 451 728 583 q 665 219 728 321 q 492 58 603 117 q 236 0 382 0 l 125 0 m 236 46 l 193 104 l 260 104 q 442 150 363 104 q 568 274 522 196 q 614 451 614 353 q 568 628 614 550 q 442 753 522 707 q 260 799 363 799 l 193 799 l 236 856 l 236 46 z "},"É":{"ha":639,"x_min":104,"x_max":581,"o":"m 104 0 l 104 903 l 581 903 l 581 799 l 164 799 l 215 847 l 215 256 l 135 121 q 181 329 135 242 q 314 464 228 417 q 518 511 400 511 l 539 511 l 539 407 l 518 407 q 297 330 379 407 q 215 121 215 253 l 215 56 l 142 104 l 581 104 l 581 0 l 104 0 m 286 989 l 383 1208 l 503 1208 l 383 989 l 286 989 z "},"Ê":{"ha":639,"x_min":104,"x_max":581,"o":"m 104 0 l 104 903 l 581 903 l 581 799 l 164 799 l 215 847 l 215 256 l 135 121 q 181 329 135 242 q 314 464 228 417 q 518 511 400 511 l 539 511 l 539 407 l 518 407 q 297 330 379 407 q 215 121 215 253 l 215 56 l 142 104 l 581 104 l 581 0 l 104 0 m 394 1208 l 549 989 l 436 989 l 311 1171 l 361 1171 l 238 989 l 126 989 l 279 1208 l 394 1208 z "},"Ë":{"ha":639,"x_min":104,"x_max":581,"o":"m 104 0 l 104 903 l 581 903 l 581 799 l 164 799 l 215 847 l 215 256 l 135 121 q 181 329 135 242 q 314 464 228 417 q 518 511 400 511 l 539 511 l 539 407 l 518 407 q 297 330 379 407 q 215 121 215 253 l 215 56 l 142 104 l 581 104 l 581 0 l 104 0 m 214 1021 q 163 1040 183 1021 q 143 1090 143 1060 q 163 1140 143 1121 q 214 1160 183 1160 q 265 1140 246 1160 q 285 1090 285 1121 q 265 1040 285 1060 q 214 1021 246 1021 m 461 1021 q 410 1040 431 1021 q 390 1090 390 1060 q 410 1140 390 1121 q 461 1160 431 1160 q 513 1140 493 1160 q 532 1090 532 1121 q 513 1040 532 1060 q 461 1021 493 1021 z "},"È":{"ha":639,"x_min":104,"x_max":581,"o":"m 104 0 l 104 903 l 581 903 l 581 799 l 164 799 l 215 847 l 215 256 l 135 121 q 181 329 135 242 q 314 464 228 417 q 518 511 400 511 l 539 511 l 539 407 l 518 407 q 297 330 379 407 q 215 121 215 253 l 215 56 l 142 104 l 581 104 l 581 0 l 104 0 m 401 989 l 304 989 l 178 1208 l 297 1208 l 401 989 z "},"Ĕ":{"ha":639,"x_min":104,"x_max":581,"o":"m 104 0 l 104 903 l 581 903 l 581 799 l 164 799 l 215 847 l 215 256 l 135 121 q 181 329 135 242 q 314 464 228 417 q 518 511 400 511 l 539 511 l 539 407 l 518 407 q 297 330 379 407 q 215 121 215 253 l 215 56 l 142 104 l 581 104 l 581 0 l 104 0 m 338 1072 q 421 1098 390 1072 q 451 1174 451 1124 l 451 1208 l 540 1208 l 540 1174 q 485 1033 540 1082 q 338 985 429 985 q 190 1033 244 985 q 135 1174 135 1082 l 135 1208 l 224 1208 l 224 1174 q 253 1098 224 1124 q 338 1072 283 1072 z "},"Ě":{"ha":639,"x_min":104,"x_max":581,"o":"m 104 0 l 104 903 l 581 903 l 581 799 l 164 799 l 215 847 l 215 256 l 135 121 q 181 329 135 242 q 314 464 228 417 q 518 511 400 511 l 539 511 l 539 407 l 518 407 q 297 330 379 407 q 215 121 215 253 l 215 56 l 142 104 l 581 104 l 581 0 l 104 0 m 281 989 l 126 1208 l 239 1208 l 364 1026 l 314 1026 l 438 1208 l 549 1208 l 396 989 l 281 989 z "},"Ė":{"ha":639,"x_min":104,"x_max":581,"o":"m 104 0 l 104 903 l 581 903 l 581 799 l 164 799 l 215 847 l 215 256 l 135 121 q 181 329 135 242 q 314 464 228 417 q 518 511 400 511 l 539 511 l 539 407 l 518 407 q 297 330 379 407 q 215 121 215 253 l 215 56 l 142 104 l 581 104 l 581 0 l 104 0 m 338 1021 q 281 1042 303 1021 q 260 1097 260 1064 q 281 1152 260 1131 q 338 1174 303 1174 q 394 1152 372 1174 q 415 1097 415 1131 q 394 1042 415 1064 q 338 1021 372 1021 z "},"Ē":{"ha":639,"x_min":104,"x_max":581,"o":"m 104 0 l 104 903 l 581 903 l 581 799 l 164 799 l 215 847 l 215 256 l 135 121 q 181 329 135 242 q 314 464 228 417 q 518 511 400 511 l 539 511 l 539 407 l 518 407 q 297 330 379 407 q 215 121 215 253 l 215 56 l 142 104 l 581 104 l 581 0 l 104 0 m 164 1132 l 511 1132 l 511 1035 l 164 1035 l 164 1132 z "},"Ę":{"ha":639,"x_min":104,"x_max":581,"o":"m 104 0 l 104 903 l 581 903 l 581 799 l 164 799 l 215 847 l 215 256 l 135 121 q 181 329 135 242 q 314 464 228 417 q 518 511 400 511 l 539 511 l 539 407 l 518 407 q 297 330 379 407 q 215 121 215 253 l 215 56 l 142 104 l 581 104 l 581 0 q 508 -51 533 -25 q 483 -104 483 -78 q 498 -136 483 -125 q 539 -147 513 -147 l 581 -147 l 581 -231 l 533 -231 q 428 -199 468 -231 q 389 -112 389 -167 q 403 -58 389 -83 q 447 -8 418 -32 q 515 35 475 15 l 515 0 l 104 0 z "},"Ğ":{"ha":1064,"x_min":58,"x_max":988,"o":"m 950 342 q 865 155 925 235 q 717 31 804 75 q 526 -12 631 -12 q 344 23 429 -12 q 195 122 260 58 q 94 270 131 186 q 58 451 58 354 q 94 633 58 549 q 195 781 131 717 q 344 880 260 844 q 526 915 429 915 q 732 870 638 915 q 892 744 826 825 q 982 558 958 664 l 864 558 q 791 691 842 635 q 672 779 740 747 q 526 811 604 811 q 389 783 453 811 q 276 706 325 756 q 200 592 228 657 q 172 451 172 526 q 200 311 172 376 q 276 197 228 246 q 389 119 325 147 q 526 92 453 92 q 685 128 613 92 q 807 230 757 165 q 874 378 857 294 l 988 378 l 988 0 l 882 0 l 882 342 l 950 342 m 535 1072 q 618 1098 588 1072 q 649 1174 649 1124 l 649 1208 l 738 1208 l 738 1174 q 682 1033 738 1082 q 535 985 626 985 q 387 1033 442 985 q 332 1174 332 1082 l 332 1208 l 421 1208 l 421 1174 q 451 1098 421 1124 q 535 1072 481 1072 z "},"Ĝ":{"ha":1064,"x_min":58,"x_max":988,"o":"m 950 342 q 865 155 925 235 q 717 31 804 75 q 526 -12 631 -12 q 344 23 429 -12 q 195 122 260 58 q 94 270 131 186 q 58 451 58 354 q 94 633 58 549 q 195 781 131 717 q 344 880 260 844 q 526 915 429 915 q 732 870 638 915 q 892 744 826 825 q 982 558 958 664 l 864 558 q 791 691 842 635 q 672 779 740 747 q 526 811 604 811 q 389 783 453 811 q 276 706 325 756 q 200 592 228 657 q 172 451 172 526 q 200 311 172 376 q 276 197 228 246 q 389 119 325 147 q 526 92 453 92 q 685 128 613 92 q 807 230 757 165 q 874 378 857 294 l 988 378 l 988 0 l 882 0 l 882 342 l 950 342 m 592 1208 l 746 989 l 633 989 l 508 1171 l 558 1171 l 435 989 l 324 989 l 476 1208 l 592 1208 z "},"Ģ":{"ha":1064,"x_min":58,"x_max":988,"o":"m 950 342 q 865 155 925 235 q 717 31 804 75 q 526 -12 631 -12 q 344 23 429 -12 q 195 122 260 58 q 94 270 131 186 q 58 451 58 354 q 94 633 58 549 q 195 781 131 717 q 344 880 260 844 q 526 915 429 915 q 732 870 638 915 q 892 744 826 825 q 982 558 958 664 l 864 558 q 791 691 842 635 q 672 779 740 747 q 526 811 604 811 q 389 783 453 811 q 276 706 325 756 q 200 592 228 657 q 172 451 172 526 q 200 311 172 376 q 276 197 228 246 q 389 119 325 147 q 526 92 453 92 q 685 128 613 92 q 807 230 757 165 q 874 378 857 294 l 988 378 l 988 0 l 882 0 l 882 342 l 950 342 m 469 -312 q 505 -231 490 -271 q 525 -157 519 -192 l 568 -206 q 531 -219 557 -219 q 480 -201 500 -219 q 460 -151 460 -182 q 480 -101 460 -121 q 531 -82 500 -82 q 582 -102 563 -82 q 601 -156 601 -122 q 586 -227 601 -186 q 543 -312 571 -268 l 469 -312 z "},"Ġ":{"ha":1064,"x_min":58,"x_max":988,"o":"m 950 342 q 865 155 925 235 q 717 31 804 75 q 526 -12 631 -12 q 344 23 429 -12 q 195 122 260 58 q 94 270 131 186 q 58 451 58 354 q 94 633 58 549 q 195 781 131 717 q 344 880 260 844 q 526 915 429 915 q 732 870 638 915 q 892 744 826 825 q 982 558 958 664 l 864 558 q 791 691 842 635 q 672 779 740 747 q 526 811 604 811 q 389 783 453 811 q 276 706 325 756 q 200 592 228 657 q 172 451 172 526 q 200 311 172 376 q 276 197 228 246 q 389 119 325 147 q 526 92 453 92 q 685 128 613 92 q 807 230 757 165 q 874 378 857 294 l 988 378 l 988 0 l 882 0 l 882 342 l 950 342 m 535 1021 q 478 1042 500 1021 q 457 1097 457 1064 q 478 1152 457 1131 q 535 1174 500 1174 q 591 1152 569 1174 q 613 1097 613 1131 q 591 1042 613 1064 q 535 1021 569 1021 z "},"Ħ":{"ha":847,"x_min":7,"x_max":840,"o":"m 125 0 l 125 903 l 236 903 l 236 225 l 181 225 q 263 390 201 321 q 419 497 325 460 q 632 535 514 535 l 688 535 l 688 431 l 604 431 q 410 383 493 431 q 282 247 328 335 q 236 43 236 160 l 236 0 l 125 0 m 611 0 l 611 903 l 722 903 l 722 0 l 611 0 m 7 757 l 840 757 l 840 657 l 7 657 l 7 757 z "},"Ĥ":{"ha":806,"x_min":104,"x_max":701,"o":"m 104 0 l 104 903 l 215 903 l 215 225 l 160 225 q 242 390 181 321 q 399 497 304 460 q 611 535 493 535 l 667 535 l 667 431 l 583 431 q 390 382 472 431 q 261 247 307 333 q 215 43 215 160 l 215 0 l 104 0 m 701 0 l 590 0 l 590 903 l 701 903 l 701 0 m 460 1208 l 614 989 l 501 989 l 376 1171 l 426 1171 l 303 989 l 192 989 l 344 1208 l 460 1208 z "},"Í":{"ha":319,"x_min":104,"x_max":328,"o":"m 215 0 l 104 0 l 104 903 l 215 903 l 215 0 m 111 989 l 208 1208 l 328 1208 l 208 989 l 111 989 z "},"Î":{"ha":319,"x_min":-51,"x_max":371,"o":"m 215 0 l 104 0 l 104 903 l 215 903 l 215 0 m 217 1208 l 371 989 l 258 989 l 133 1171 l 183 1171 l 60 989 l -51 989 l 101 1208 l 217 1208 z "},"Ï":{"ha":319,"x_min":-35,"x_max":354,"o":"m 215 0 l 104 0 l 104 903 l 215 903 l 215 0 m 36 1021 q -15 1040 6 1021 q -35 1090 -35 1060 q -15 1140 -35 1121 q 36 1160 6 1160 q 88 1140 68 1160 q 107 1090 107 1121 q 88 1040 107 1060 q 36 1021 68 1021 m 283 1021 q 233 1040 253 1021 q 213 1090 213 1060 q 233 1140 213 1121 q 283 1160 253 1160 q 335 1140 315 1160 q 354 1090 354 1121 q 335 1040 354 1060 q 283 1021 315 1021 z "},"Ì":{"ha":319,"x_min":-18,"x_max":215,"o":"m 215 0 l 104 0 l 104 903 l 215 903 l 215 0 m 206 989 l 108 989 l -18 1208 l 101 1208 l 206 989 z "},"Ĭ":{"ha":319,"x_min":-43,"x_max":363,"o":"m 215 0 l 104 0 l 104 903 l 215 903 l 215 0 m 160 1072 q 243 1098 213 1072 q 274 1174 274 1124 l 274 1208 l 363 1208 l 363 1174 q 307 1033 363 1082 q 160 985 251 985 q 12 1033 67 985 q -43 1174 -43 1082 l -43 1208 l 46 1208 l 46 1174 q 76 1098 46 1124 q 160 1072 106 1072 z "},"İ":{"ha":319,"x_min":82,"x_max":238,"o":"m 215 0 l 104 0 l 104 903 l 215 903 l 215 0 m 160 1021 q 103 1042 125 1021 q 82 1097 82 1064 q 103 1152 82 1131 q 160 1174 125 1174 q 216 1152 194 1174 q 238 1097 238 1131 q 216 1042 238 1064 q 160 1021 194 1021 z "},"Ī":{"ha":319,"x_min":-14,"x_max":333,"o":"m 215 0 l 104 0 l 104 903 l 215 903 l 215 0 m -14 1132 l 333 1132 l 333 1035 l -14 1035 l -14 1132 z "},"Į":{"ha":319,"x_min":24,"x_max":215,"o":"m 150 35 l 150 0 l 104 0 l 104 903 l 215 903 l 215 0 q 143 -51 168 -25 q 118 -104 118 -78 q 133 -136 118 -125 q 174 -147 147 -147 l 215 -147 l 215 -231 l 168 -231 q 63 -199 103 -231 q 24 -112 24 -167 q 38 -58 24 -83 q 81 -8 53 -32 q 150 35 110 15 z "},"Ĩ":{"ha":319,"x_min":-49,"x_max":368,"o":"m 215 0 l 104 0 l 104 903 l 215 903 l 215 0 m -49 989 l -49 1078 q -19 1177 -49 1142 q 65 1213 11 1213 q 126 1198 101 1213 q 167 1163 150 1183 q 197 1121 185 1142 q 222 1085 210 1100 q 249 1071 233 1071 q 273 1083 265 1071 q 281 1119 281 1094 l 281 1208 l 368 1208 l 368 1119 q 338 1020 368 1056 q 254 985 308 985 q 194 999 218 985 q 153 1035 169 1014 q 123 1076 136 1056 q 98 1112 110 1097 q 71 1126 86 1126 q 39 1078 39 1126 l 39 989 l -49 989 z "},"Ĵ":{"ha":449,"x_min":8,"x_max":431,"o":"m 246 844 l 300 799 l 50 799 l 50 903 l 357 903 l 357 260 q 285 69 357 138 q 83 0 213 0 l 50 0 l 50 104 l 83 104 q 203 144 161 104 q 246 260 246 183 l 246 844 m 276 1208 l 431 989 l 318 989 l 193 1171 l 243 1171 l 119 989 l 8 989 l 161 1208 l 276 1208 z "},"Ĳ":{"ha":739,"x_min":104,"x_max":647,"o":"m 215 0 l 104 0 l 104 903 l 215 903 l 215 0 m 536 844 l 590 799 l 340 799 l 340 903 l 647 903 l 647 260 q 575 69 647 138 q 374 0 503 0 l 340 0 l 340 104 l 374 104 q 494 144 451 104 q 536 260 536 183 l 536 844 z "},"Ķ":{"ha":771,"x_min":104,"x_max":718,"o":"m 104 0 l 104 903 l 215 903 l 215 244 l 136 222 l 579 903 l 704 903 l 360 374 l 283 369 q 346 400 311 389 q 411 411 381 411 q 572 374 503 411 q 680 269 642 336 q 718 114 718 203 l 718 0 l 607 0 l 607 107 q 582 210 607 165 q 513 281 557 256 q 411 307 469 307 q 310 281 354 307 q 240 210 265 256 q 215 107 215 165 l 215 0 l 104 0 m 353 -312 q 388 -231 374 -271 q 408 -157 403 -192 l 451 -206 q 414 -219 440 -219 q 363 -201 383 -219 q 343 -151 343 -182 q 363 -101 343 -121 q 414 -82 383 -82 q 465 -102 446 -82 q 485 -156 485 -122 q 469 -227 485 -186 q 426 -312 454 -268 l 353 -312 z "},"Ĺ":{"ha":594,"x_min":104,"x_max":549,"o":"m 549 0 l 104 0 l 104 903 l 215 903 l 215 104 l 549 104 l 549 0 m 111 989 l 208 1208 l 328 1208 l 208 989 l 111 989 z "},"Ľ":{"ha":594,"x_min":104,"x_max":549,"o":"m 549 0 l 104 0 l 104 903 l 215 903 l 215 104 l 549 104 l 549 0 m 439 629 l 439 903 l 549 903 l 528 629 l 439 629 z "},"Ļ":{"ha":594,"x_min":104,"x_max":549,"o":"m 549 0 l 104 0 l 104 903 l 215 903 l 215 104 l 549 104 l 549 0 m 265 -312 q 301 -231 286 -271 q 321 -157 315 -192 l 364 -206 q 326 -219 353 -219 q 276 -201 296 -219 q 256 -151 256 -182 q 276 -101 256 -121 q 326 -82 296 -82 q 378 -102 358 -82 q 397 -156 397 -122 q 382 -227 397 -186 q 339 -312 367 -268 l 265 -312 z "},"Ŀ":{"ha":635,"x_min":104,"x_max":549,"o":"m 549 0 l 104 0 l 104 903 l 215 903 l 215 104 l 549 104 l 549 0 m 475 371 q 424 390 444 371 q 404 440 404 410 q 424 490 404 471 q 475 510 444 510 q 526 490 507 510 q 546 440 546 471 q 526 390 546 410 q 475 371 507 371 z "},"Ñ":{"ha":806,"x_min":104,"x_max":701,"o":"m 104 0 l 104 903 l 208 903 q 388 565 289 714 q 618 288 486 415 l 590 274 l 590 903 l 701 903 l 701 0 l 590 0 l 590 207 l 611 151 q 452 311 528 226 q 313 488 376 396 q 200 675 249 581 l 215 675 l 215 0 l 104 0 m 192 989 l 192 1078 q 222 1177 192 1142 q 306 1213 251 1213 q 366 1198 342 1213 q 408 1163 390 1183 q 438 1121 425 1142 q 462 1085 450 1100 q 489 1071 474 1071 q 513 1083 506 1071 q 521 1119 521 1094 l 521 1208 l 608 1208 l 608 1119 q 578 1020 608 1056 q 494 985 549 985 q 434 999 458 985 q 393 1035 410 1014 q 363 1076 376 1056 q 338 1112 350 1097 q 311 1126 326 1126 q 279 1078 279 1126 l 279 989 l 192 989 z "},"Ń":{"ha":806,"x_min":104,"x_max":701,"o":"m 104 0 l 104 903 l 208 903 q 388 565 289 714 q 618 288 486 415 l 590 274 l 590 903 l 701 903 l 701 0 l 590 0 l 590 207 l 611 151 q 452 311 528 226 q 313 488 376 396 q 200 675 249 581 l 215 675 l 215 0 l 104 0 m 344 989 l 442 1208 l 561 1208 l 442 989 l 344 989 z "},"Ň":{"ha":806,"x_min":104,"x_max":701,"o":"m 104 0 l 104 903 l 208 903 q 388 565 289 714 q 618 288 486 415 l 590 274 l 590 903 l 701 903 l 701 0 l 590 0 l 590 207 l 611 151 q 452 311 528 226 q 313 488 376 396 q 200 675 249 581 l 215 675 l 215 0 l 104 0 m 343 989 l 189 1208 l 301 1208 l 426 1026 l 376 1026 l 500 1208 l 611 1208 l 458 989 l 343 989 z "},"Ņ":{"ha":806,"x_min":104,"x_max":701,"o":"m 104 0 l 104 903 l 208 903 q 388 565 289 714 q 618 288 486 415 l 590 274 l 590 903 l 701 903 l 701 0 l 590 0 l 590 207 l 611 151 q 452 311 528 226 q 313 488 376 396 q 200 675 249 581 l 215 675 l 215 0 l 104 0 m 343 -312 q 378 -231 364 -271 q 399 -157 393 -192 l 442 -206 q 404 -219 431 -219 q 353 -201 374 -219 q 333 -151 333 -182 q 353 -101 333 -121 q 404 -82 374 -82 q 456 -102 436 -82 q 475 -156 475 -122 q 460 -227 475 -186 q 417 -312 444 -268 l 343 -312 z "},"Ó":{"ha":1053,"x_min":58,"x_max":994,"o":"m 172 451 q 200 311 172 376 q 276 197 228 246 q 389 119 325 147 q 526 92 453 92 q 664 119 600 92 q 776 197 728 147 q 853 311 825 246 q 881 451 881 376 q 853 592 881 526 q 776 706 825 657 q 664 783 728 756 q 526 811 600 811 q 389 783 453 811 q 276 706 325 756 q 200 592 228 657 q 172 451 172 526 m 58 451 q 94 633 58 549 q 195 781 131 717 q 344 880 260 844 q 526 915 429 915 q 708 880 624 915 q 858 781 793 844 q 958 633 922 717 q 994 451 994 549 q 958 270 994 354 q 858 122 922 186 q 708 23 793 58 q 526 -12 624 -12 q 344 23 429 -12 q 195 122 260 58 q 94 270 131 186 q 58 451 58 354 m 475 989 l 572 1208 l 692 1208 l 572 989 l 475 989 z "},"Ô":{"ha":1053,"x_min":58,"x_max":994,"o":"m 172 451 q 200 311 172 376 q 276 197 228 246 q 389 119 325 147 q 526 92 453 92 q 664 119 600 92 q 776 197 728 147 q 853 311 825 246 q 881 451 881 376 q 853 592 881 526 q 776 706 825 657 q 664 783 728 756 q 526 811 600 811 q 389 783 453 811 q 276 706 325 756 q 200 592 228 657 q 172 451 172 526 m 58 451 q 94 633 58 549 q 195 781 131 717 q 344 880 260 844 q 526 915 429 915 q 708 880 624 915 q 858 781 793 844 q 958 633 922 717 q 994 451 994 549 q 958 270 994 354 q 858 122 922 186 q 708 23 793 58 q 526 -12 624 -12 q 344 23 429 -12 q 195 122 260 58 q 94 270 131 186 q 58 451 58 354 m 583 1208 l 738 989 l 625 989 l 500 1171 l 550 1171 l 426 989 l 315 989 l 468 1208 l 583 1208 z "},"Ö":{"ha":1053,"x_min":58,"x_max":994,"o":"m 172 451 q 200 311 172 376 q 276 197 228 246 q 389 119 325 147 q 526 92 453 92 q 664 119 600 92 q 776 197 728 147 q 853 311 825 246 q 881 451 881 376 q 853 592 881 526 q 776 706 825 657 q 664 783 728 756 q 526 811 600 811 q 389 783 453 811 q 276 706 325 756 q 200 592 228 657 q 172 451 172 526 m 58 451 q 94 633 58 549 q 195 781 131 717 q 344 880 260 844 q 526 915 429 915 q 708 880 624 915 q 858 781 793 844 q 958 633 922 717 q 994 451 994 549 q 958 270 994 354 q 858 122 922 186 q 708 23 793 58 q 526 -12 624 -12 q 344 23 429 -12 q 195 122 260 58 q 94 270 131 186 q 58 451 58 354 m 403 1021 q 352 1040 372 1021 q 332 1090 332 1060 q 352 1140 332 1121 q 403 1160 372 1160 q 454 1140 435 1160 q 474 1090 474 1121 q 454 1040 474 1060 q 403 1021 435 1021 m 650 1021 q 599 1040 619 1021 q 579 1090 579 1060 q 599 1140 579 1121 q 650 1160 619 1160 q 701 1140 682 1160 q 721 1090 721 1121 q 701 1040 721 1060 q 650 1021 682 1021 z "},"Ò":{"ha":1053,"x_min":58,"x_max":994,"o":"m 172 451 q 200 311 172 376 q 276 197 228 246 q 389 119 325 147 q 526 92 453 92 q 664 119 600 92 q 776 197 728 147 q 853 311 825 246 q 881 451 881 376 q 853 592 881 526 q 776 706 825 657 q 664 783 728 756 q 526 811 600 811 q 389 783 453 811 q 276 706 325 756 q 200 592 228 657 q 172 451 172 526 m 58 451 q 94 633 58 549 q 195 781 131 717 q 344 880 260 844 q 526 915 429 915 q 708 880 624 915 q 858 781 793 844 q 958 633 922 717 q 994 451 994 549 q 958 270 994 354 q 858 122 922 186 q 708 23 793 58 q 526 -12 624 -12 q 344 23 429 -12 q 195 122 260 58 q 94 270 131 186 q 58 451 58 354 m 572 989 l 475 989 l 349 1208 l 468 1208 l 572 989 z "},"Õ":{"ha":1053,"x_min":58,"x_max":994,"o":"m 172 451 q 200 311 172 376 q 276 197 228 246 q 389 119 325 147 q 526 92 453 92 q 664 119 600 92 q 776 197 728 147 q 853 311 825 246 q 881 451 881 376 q 853 592 881 526 q 776 706 825 657 q 664 783 728 756 q 526 811 600 811 q 389 783 453 811 q 276 706 325 756 q 200 592 228 657 q 172 451 172 526 m 58 451 q 94 633 58 549 q 195 781 131 717 q 344 880 260 844 q 526 915 429 915 q 708 880 624 915 q 858 781 793 844 q 958 633 922 717 q 994 451 994 549 q 958 270 994 354 q 858 122 922 186 q 708 23 793 58 q 526 -12 624 -12 q 344 23 429 -12 q 195 122 260 58 q 94 270 131 186 q 58 451 58 354 m 318 989 l 318 1078 q 348 1177 318 1142 q 432 1213 378 1213 q 492 1198 468 1213 q 534 1163 517 1183 q 564 1121 551 1142 q 588 1085 576 1100 q 615 1071 600 1071 q 640 1083 632 1071 q 647 1119 647 1094 l 647 1208 l 735 1208 l 735 1119 q 705 1020 735 1056 q 621 985 675 985 q 560 999 585 985 q 519 1035 536 1014 q 490 1076 503 1056 q 465 1112 476 1097 q 438 1126 453 1126 q 406 1078 406 1126 l 406 989 l 318 989 z "},"Ŏ":{"ha":1053,"x_min":58,"x_max":994,"o":"m 172 451 q 200 311 172 376 q 276 197 228 246 q 389 119 325 147 q 526 92 453 92 q 664 119 600 92 q 776 197 728 147 q 853 311 825 246 q 881 451 881 376 q 853 592 881 526 q 776 706 825 657 q 664 783 728 756 q 526 811 600 811 q 389 783 453 811 q 276 706 325 756 q 200 592 228 657 q 172 451 172 526 m 58 451 q 94 633 58 549 q 195 781 131 717 q 344 880 260 844 q 526 915 429 915 q 708 880 624 915 q 858 781 793 844 q 958 633 922 717 q 994 451 994 549 q 958 270 994 354 q 858 122 922 186 q 708 23 793 58 q 526 -12 624 -12 q 344 23 429 -12 q 195 122 260 58 q 94 270 131 186 q 58 451 58 354 m 526 1072 q 610 1098 579 1072 q 640 1174 640 1124 l 640 1208 l 729 1208 l 729 1174 q 674 1033 729 1082 q 526 985 618 985 q 378 1033 433 985 q 324 1174 324 1082 l 324 1208 l 413 1208 l 413 1174 q 442 1098 413 1124 q 526 1072 472 1072 z "},"Ő":{"ha":1053,"x_min":58,"x_max":994,"o":"m 172 451 q 200 311 172 376 q 276 197 228 246 q 389 119 325 147 q 526 92 453 92 q 664 119 600 92 q 776 197 728 147 q 853 311 825 246 q 881 451 881 376 q 853 592 881 526 q 776 706 825 657 q 664 783 728 756 q 526 811 600 811 q 389 783 453 811 q 276 706 325 756 q 200 592 228 657 q 172 451 172 526 m 58 451 q 94 633 58 549 q 195 781 131 717 q 344 880 260 844 q 526 915 429 915 q 708 880 624 915 q 858 781 793 844 q 958 633 922 717 q 994 451 994 549 q 958 270 994 354 q 858 122 922 186 q 708 23 793 58 q 526 -12 624 -12 q 344 23 429 -12 q 195 122 260 58 q 94 270 131 186 q 58 451 58 354 m 572 989 l 663 1208 l 779 1208 l 669 989 l 572 989 m 354 989 l 431 1208 l 540 1208 l 450 989 l 354 989 z "},"Ō":{"ha":1053,"x_min":58,"x_max":994,"o":"m 172 451 q 200 311 172 376 q 276 197 228 246 q 389 119 325 147 q 526 92 453 92 q 664 119 600 92 q 776 197 728 147 q 853 311 825 246 q 881 451 881 376 q 853 592 881 526 q 776 706 825 657 q 664 783 728 756 q 526 811 600 811 q 389 783 453 811 q 276 706 325 756 q 200 592 228 657 q 172 451 172 526 m 58 451 q 94 633 58 549 q 195 781 131 717 q 344 880 260 844 q 526 915 429 915 q 708 880 624 915 q 858 781 793 844 q 958 633 922 717 q 994 451 994 549 q 958 270 994 354 q 858 122 922 186 q 708 23 793 58 q 526 -12 624 -12 q 344 23 429 -12 q 195 122 260 58 q 94 270 131 186 q 58 451 58 354 m 353 1132 l 700 1132 l 700 1035 l 353 1035 l 353 1132 z "},"Ŕ":{"ha":781,"x_min":104,"x_max":721,"o":"m 104 0 l 104 903 l 368 903 q 538 868 465 903 q 652 772 611 833 q 693 626 693 710 q 678 528 693 571 q 638 455 664 486 q 580 400 613 424 q 511 357 547 376 q 623 300 576 340 q 695 202 669 260 q 721 72 721 144 l 721 0 l 610 0 l 610 65 q 585 173 610 126 q 515 246 560 219 q 413 272 471 272 q 310 246 354 272 q 240 173 265 219 q 215 65 215 126 l 215 0 l 104 0 m 215 799 l 215 303 q 288 356 249 333 q 368 397 328 378 q 447 435 408 415 q 515 479 485 454 q 562 538 544 504 q 579 621 579 572 q 523 751 579 703 q 372 799 467 799 l 215 799 m 311 989 l 408 1208 l 528 1208 l 408 989 l 311 989 z "},"Ř":{"ha":781,"x_min":104,"x_max":721,"o":"m 104 0 l 104 903 l 368 903 q 538 868 465 903 q 652 772 611 833 q 693 626 693 710 q 678 528 693 571 q 638 455 664 486 q 580 400 613 424 q 511 357 547 376 q 623 300 576 340 q 695 202 669 260 q 721 72 721 144 l 721 0 l 610 0 l 610 65 q 585 173 610 126 q 515 246 560 219 q 413 272 471 272 q 310 246 354 272 q 240 173 265 219 q 215 65 215 126 l 215 0 l 104 0 m 215 799 l 215 303 q 288 356 249 333 q 368 397 328 378 q 447 435 408 415 q 515 479 485 454 q 562 538 544 504 q 579 621 579 572 q 523 751 579 703 q 372 799 467 799 l 215 799 m 306 989 l 151 1208 l 264 1208 l 389 1026 l 339 1026 l 463 1208 l 574 1208 l 421 989 l 306 989 z "},"Ŗ":{"ha":781,"x_min":104,"x_max":721,"o":"m 104 0 l 104 903 l 368 903 q 538 868 465 903 q 652 772 611 833 q 693 626 693 710 q 678 528 693 571 q 638 455 664 486 q 580 400 613 424 q 511 357 547 376 q 623 300 576 340 q 695 202 669 260 q 721 72 721 144 l 721 0 l 610 0 l 610 65 q 585 173 610 126 q 515 246 560 219 q 413 272 471 272 q 310 246 354 272 q 240 173 265 219 q 215 65 215 126 l 215 0 l 104 0 m 215 799 l 215 303 q 288 356 249 333 q 368 397 328 378 q 447 435 408 415 q 515 479 485 454 q 562 538 544 504 q 579 621 579 572 q 523 751 579 703 q 372 799 467 799 l 215 799 m 350 -312 q 385 -231 371 -271 q 406 -157 400 -192 l 449 -206 q 411 -219 438 -219 q 360 -201 381 -219 q 340 -151 340 -182 q 360 -101 340 -121 q 411 -82 381 -82 q 463 -102 443 -82 q 482 -156 482 -122 q 467 -227 482 -186 q 424 -312 451 -268 l 350 -312 z "},"Š":{"ha":681,"x_min":50,"x_max":628,"o":"m 344 -12 q 198 20 265 -12 q 90 114 131 53 q 50 264 50 175 l 161 264 q 185 175 161 214 q 250 114 208 136 q 344 92 292 92 q 467 133 419 92 q 514 239 514 174 q 490 317 514 286 q 427 369 467 347 q 340 408 388 390 q 246 446 293 425 q 159 496 199 467 q 96 569 119 525 q 72 679 72 613 q 108 798 72 744 q 203 883 143 851 q 335 915 263 915 q 476 883 415 915 q 572 792 538 850 q 607 658 607 735 l 496 658 q 451 769 496 726 q 335 811 406 811 q 260 794 294 811 q 206 747 226 776 q 186 679 186 717 q 210 604 186 633 q 273 553 233 575 q 360 515 313 532 q 454 476 407 497 q 541 425 501 456 q 604 350 581 394 q 628 239 628 306 q 591 110 628 167 q 490 20 554 53 q 344 -12 426 -12 m 285 989 l 131 1208 l 243 1208 l 368 1026 l 318 1026 l 442 1208 l 553 1208 l 400 989 l 285 989 z "},"Ś":{"ha":681,"x_min":50,"x_max":628,"o":"m 344 -12 q 198 20 265 -12 q 90 114 131 53 q 50 264 50 175 l 161 264 q 185 175 161 214 q 250 114 208 136 q 344 92 292 92 q 467 133 419 92 q 514 239 514 174 q 490 317 514 286 q 427 369 467 347 q 340 408 388 390 q 246 446 293 425 q 159 496 199 467 q 96 569 119 525 q 72 679 72 613 q 108 798 72 744 q 203 883 143 851 q 335 915 263 915 q 476 883 415 915 q 572 792 538 850 q 607 658 607 735 l 496 658 q 451 769 496 726 q 335 811 406 811 q 260 794 294 811 q 206 747 226 776 q 186 679 186 717 q 210 604 186 633 q 273 553 233 575 q 360 515 313 532 q 454 476 407 497 q 541 425 501 456 q 604 350 581 394 q 628 239 628 306 q 591 110 628 167 q 490 20 554 53 q 344 -12 426 -12 m 290 989 l 388 1208 l 507 1208 l 388 989 l 290 989 z "},"Ş":{"ha":681,"x_min":50,"x_max":628,"o":"m 400 44 l 400 -189 l 292 -189 l 306 44 l 344 -12 q 198 20 265 -12 q 90 114 131 53 q 50 264 50 175 l 161 264 q 185 175 161 214 q 250 114 208 136 q 344 92 292 92 q 467 133 419 92 q 514 239 514 174 q 490 317 514 286 q 427 369 467 347 q 340 408 388 390 q 246 446 293 425 q 159 496 199 467 q 96 569 119 525 q 72 679 72 613 q 108 798 72 744 q 203 883 143 851 q 335 915 263 915 q 476 883 415 915 q 572 792 538 850 q 607 658 607 735 l 496 658 q 451 769 496 726 q 335 811 406 811 q 260 794 294 811 q 206 747 226 776 q 186 679 186 717 q 210 604 186 633 q 273 553 233 575 q 360 515 313 532 q 454 476 407 497 q 541 425 501 456 q 604 350 581 394 q 628 239 628 306 q 591 110 628 167 q 491 20 554 53 q 347 -12 428 -12 l 400 44 z "},"Ŝ":{"ha":681,"x_min":50,"x_max":628,"o":"m 344 -12 q 198 20 265 -12 q 90 114 131 53 q 50 264 50 175 l 161 264 q 185 175 161 214 q 250 114 208 136 q 344 92 292 92 q 467 133 419 92 q 514 239 514 174 q 490 317 514 286 q 427 369 467 347 q 340 408 388 390 q 246 446 293 425 q 159 496 199 467 q 96 569 119 525 q 72 679 72 613 q 108 798 72 744 q 203 883 143 851 q 335 915 263 915 q 476 883 415 915 q 572 792 538 850 q 607 658 607 735 l 496 658 q 451 769 496 726 q 335 811 406 811 q 260 794 294 811 q 206 747 226 776 q 186 679 186 717 q 210 604 186 633 q 273 553 233 575 q 360 515 313 532 q 454 476 407 497 q 541 425 501 456 q 604 350 581 394 q 628 239 628 306 q 591 110 628 167 q 490 20 554 53 q 344 -12 426 -12 m 399 1208 l 553 989 l 440 989 l 315 1171 l 365 1171 l 242 989 l 131 989 l 283 1208 l 399 1208 z "},"Ș":{"ha":681,"x_min":50,"x_max":628,"o":"m 344 -12 q 198 20 265 -12 q 90 114 131 53 q 50 264 50 175 l 161 264 q 185 175 161 214 q 250 114 208 136 q 344 92 292 92 q 467 133 419 92 q 514 239 514 174 q 490 317 514 286 q 427 369 467 347 q 340 408 388 390 q 246 446 293 425 q 159 496 199 467 q 96 569 119 525 q 72 679 72 613 q 108 798 72 744 q 203 883 143 851 q 335 915 263 915 q 476 883 415 915 q 572 792 538 850 q 607 658 607 735 l 496 658 q 451 769 496 726 q 335 811 406 811 q 260 794 294 811 q 206 747 226 776 q 186 679 186 717 q 210 604 186 633 q 273 553 233 575 q 360 515 313 532 q 454 476 407 497 q 541 425 501 456 q 604 350 581 394 q 628 239 628 306 q 591 110 628 167 q 490 20 554 53 q 344 -12 426 -12 m 289 -312 q 324 -231 310 -271 q 344 -157 339 -192 l 388 -206 q 350 -219 376 -219 q 299 -201 319 -219 q 279 -151 279 -182 q 299 -101 279 -121 q 350 -82 319 -82 q 401 -102 382 -82 q 421 -156 421 -122 q 406 -227 421 -186 q 363 -312 390 -268 l 289 -312 z "},"Ŧ":{"ha":642,"x_min":35,"x_max":607,"o":"m 265 0 l 265 851 l 307 811 q 160 806 233 811 q 35 793 88 800 l 35 897 q 166 910 89 904 q 321 915 243 915 q 476 910 399 915 q 607 897 553 904 l 607 793 q 528 801 572 797 q 434 808 483 806 q 335 811 385 811 l 376 851 l 376 0 l 265 0 m 90 482 l 551 482 l 551 382 l 90 382 l 90 482 z "},"Ť":{"ha":642,"x_min":35,"x_max":607,"o":"m 265 0 l 265 851 l 307 811 q 160 806 233 811 q 35 793 88 800 l 35 897 q 166 910 89 904 q 321 915 243 915 q 476 910 399 915 q 607 897 553 904 l 607 793 q 528 801 572 797 q 434 808 483 806 q 335 811 385 811 l 376 851 l 376 0 l 265 0 m 267 989 l 113 1208 l 225 1208 l 350 1026 l 300 1026 l 424 1208 l 535 1208 l 382 989 l 267 989 z "},"Ţ":{"ha":642,"x_min":35,"x_max":607,"o":"m 265 0 l 265 851 l 307 811 q 160 806 233 811 q 35 793 88 800 l 35 897 q 166 910 89 904 q 321 915 243 915 q 476 910 399 915 q 607 897 553 904 l 607 793 q 528 801 572 797 q 434 808 483 806 q 335 811 385 811 l 376 851 l 376 0 l 265 0 m 258 -312 q 294 -231 279 -271 q 314 -157 308 -192 l 357 -206 q 319 -219 346 -219 q 269 -201 289 -219 q 249 -151 249 -182 q 269 -101 249 -121 q 319 -82 289 -82 q 371 -102 351 -82 q 390 -156 390 -122 q 375 -227 390 -186 q 332 -312 360 -268 l 258 -312 z "},"Ț":{"ha":642,"x_min":35,"x_max":607,"o":"m 265 0 l 265 851 l 307 811 q 160 806 233 811 q 35 793 88 800 l 35 897 q 166 910 89 904 q 321 915 243 915 q 476 910 399 915 q 607 897 553 904 l 607 793 q 528 801 572 797 q 434 808 483 806 q 335 811 385 811 l 376 851 l 376 0 l 265 0 m 258 -312 q 294 -231 279 -271 q 314 -157 308 -192 l 357 -206 q 319 -219 346 -219 q 269 -201 289 -219 q 249 -151 249 -182 q 269 -101 249 -121 q 319 -82 289 -82 q 371 -102 351 -82 q 390 -156 390 -122 q 375 -227 390 -186 q 332 -312 360 -268 l 258 -312 z "},"Ú":{"ha":768,"x_min":92,"x_max":676,"o":"m 385 96 q 478 119 438 96 q 542 182 518 142 q 565 274 565 222 l 565 903 l 676 903 l 676 274 q 640 124 676 189 q 538 24 603 60 q 385 -12 472 -12 q 231 24 297 -12 q 128 124 165 60 q 92 274 92 189 l 92 903 l 203 903 l 203 274 q 226 182 203 222 q 291 119 250 142 q 385 96 332 96 m 333 989 l 431 1208 l 550 1208 l 431 989 l 333 989 z "},"Û":{"ha":768,"x_min":92,"x_max":676,"o":"m 385 96 q 478 119 438 96 q 542 182 518 142 q 565 274 565 222 l 565 903 l 676 903 l 676 274 q 640 124 676 189 q 538 24 603 60 q 385 -12 472 -12 q 231 24 297 -12 q 128 124 165 60 q 92 274 92 189 l 92 903 l 203 903 l 203 274 q 226 182 203 222 q 291 119 250 142 q 385 96 332 96 m 442 1208 l 596 989 l 483 989 l 358 1171 l 408 1171 l 285 989 l 174 989 l 326 1208 l 442 1208 z "},"Ü":{"ha":768,"x_min":92,"x_max":676,"o":"m 385 96 q 478 119 438 96 q 542 182 518 142 q 565 274 565 222 l 565 903 l 676 903 l 676 274 q 640 124 676 189 q 538 24 603 60 q 385 -12 472 -12 q 231 24 297 -12 q 128 124 165 60 q 92 274 92 189 l 92 903 l 203 903 l 203 274 q 226 182 203 222 q 291 119 250 142 q 385 96 332 96 m 261 1021 q 210 1040 231 1021 q 190 1090 190 1060 q 210 1140 190 1121 q 261 1160 231 1160 q 313 1140 293 1160 q 332 1090 332 1121 q 313 1040 332 1060 q 261 1021 293 1021 m 508 1021 q 458 1040 478 1021 q 438 1090 438 1060 q 458 1140 438 1121 q 508 1160 478 1160 q 560 1140 540 1160 q 579 1090 579 1121 q 560 1040 579 1060 q 508 1021 540 1021 z "},"Ù":{"ha":768,"x_min":92,"x_max":676,"o":"m 385 96 q 478 119 438 96 q 542 182 518 142 q 565 274 565 222 l 565 903 l 676 903 l 676 274 q 640 124 676 189 q 538 24 603 60 q 385 -12 472 -12 q 231 24 297 -12 q 128 124 165 60 q 92 274 92 189 l 92 903 l 203 903 l 203 274 q 226 182 203 222 q 291 119 250 142 q 385 96 332 96 m 431 989 l 333 989 l 207 1208 l 326 1208 l 431 989 z "},"Ŭ":{"ha":768,"x_min":92,"x_max":676,"o":"m 385 96 q 478 119 438 96 q 542 182 518 142 q 565 274 565 222 l 565 903 l 676 903 l 676 274 q 640 124 676 189 q 538 24 603 60 q 385 -12 472 -12 q 231 24 297 -12 q 128 124 165 60 q 92 274 92 189 l 92 903 l 203 903 l 203 274 q 226 182 203 222 q 291 119 250 142 q 385 96 332 96 m 385 1072 q 468 1098 438 1072 q 499 1174 499 1124 l 499 1208 l 588 1208 l 588 1174 q 532 1033 588 1082 q 385 985 476 985 q 237 1033 292 985 q 182 1174 182 1082 l 182 1208 l 271 1208 l 271 1174 q 301 1098 271 1124 q 385 1072 331 1072 z "},"Ű":{"ha":768,"x_min":92,"x_max":676,"o":"m 385 96 q 478 119 438 96 q 542 182 518 142 q 565 274 565 222 l 565 903 l 676 903 l 676 274 q 640 124 676 189 q 538 24 603 60 q 385 -12 472 -12 q 231 24 297 -12 q 128 124 165 60 q 92 274 92 189 l 92 903 l 203 903 l 203 274 q 226 182 203 222 q 291 119 250 142 q 385 96 332 96 m 431 989 l 521 1208 l 638 1208 l 528 989 l 431 989 m 213 989 l 289 1208 l 399 1208 l 308 989 l 213 989 z "},"Ū":{"ha":768,"x_min":92,"x_max":676,"o":"m 385 96 q 478 119 438 96 q 542 182 518 142 q 565 274 565 222 l 565 903 l 676 903 l 676 274 q 640 124 676 189 q 538 24 603 60 q 385 -12 472 -12 q 231 24 297 -12 q 128 124 165 60 q 92 274 92 189 l 92 903 l 203 903 l 203 274 q 226 182 203 222 q 291 119 250 142 q 385 96 332 96 m 211 1132 l 558 1132 l 558 1035 l 211 1035 l 211 1132 z "},"Ų":{"ha":768,"x_min":92,"x_max":676,"o":"m 481 -231 l 433 -231 q 328 -199 368 -231 q 289 -112 289 -167 q 321 -34 289 -69 q 429 35 353 1 l 454 0 q 422 -9 440 -6 q 385 -12 403 -12 q 231 24 297 -12 q 128 124 165 60 q 92 274 92 189 l 92 903 l 203 903 l 203 274 q 226 182 203 222 q 291 119 250 142 q 385 96 332 96 q 478 119 438 96 q 542 182 518 142 q 565 274 565 222 l 565 903 l 676 903 l 676 274 q 633 111 676 174 q 521 15 590 49 q 433 -32 463 -12 q 393 -66 403 -51 q 383 -97 383 -81 q 398 -134 383 -121 q 439 -147 413 -147 l 481 -147 l 481 -231 z "},"Ů":{"ha":768,"x_min":92,"x_max":676,"o":"m 385 96 q 478 119 438 96 q 542 182 518 142 q 565 274 565 222 l 565 903 l 676 903 l 676 274 q 640 124 676 189 q 538 24 603 60 q 385 -12 472 -12 q 231 24 297 -12 q 128 124 165 60 q 92 274 92 189 l 92 903 l 203 903 l 203 274 q 226 182 203 222 q 291 119 250 142 q 385 96 332 96 m 385 1065 q 441 1085 421 1065 q 461 1139 461 1106 q 441 1192 461 1172 q 385 1213 421 1213 q 329 1192 350 1213 q 308 1139 308 1172 q 329 1085 308 1106 q 385 1065 350 1065 m 385 982 q 299 1003 338 982 q 240 1059 261 1024 q 218 1139 218 1094 q 265 1251 218 1206 q 385 1296 313 1296 q 471 1275 433 1296 q 530 1219 508 1254 q 551 1139 551 1183 q 504 1027 551 1072 q 385 982 457 982 z "},"Ũ":{"ha":768,"x_min":92,"x_max":676,"o":"m 385 96 q 478 119 438 96 q 542 182 518 142 q 565 274 565 222 l 565 903 l 676 903 l 676 274 q 640 124 676 189 q 538 24 603 60 q 385 -12 472 -12 q 231 24 297 -12 q 128 124 165 60 q 92 274 92 189 l 92 903 l 203 903 l 203 274 q 226 182 203 222 q 291 119 250 142 q 385 96 332 96 m 176 989 l 176 1078 q 206 1177 176 1142 q 290 1213 236 1213 q 351 1198 326 1213 q 392 1163 375 1183 q 422 1121 410 1142 q 447 1085 435 1100 q 474 1071 458 1071 q 498 1083 490 1071 q 506 1119 506 1094 l 506 1208 l 593 1208 l 593 1119 q 563 1020 593 1056 q 479 985 533 985 q 419 999 443 985 q 377 1035 394 1014 q 347 1076 360 1056 q 323 1112 335 1097 q 296 1126 311 1126 q 264 1078 264 1126 l 264 989 l 176 989 z "},"Ẃ":{"ha":1154,"x_min":104,"x_max":1099,"o":"m 104 0 l 104 903 l 215 903 l 215 92 l 200 110 q 441 195 357 110 q 525 438 525 281 l 525 903 l 636 903 l 636 92 l 610 110 q 781 139 715 110 q 881 235 846 168 q 929 417 917 303 l 985 903 l 1099 903 l 1043 417 q 974 174 1026 265 q 827 41 921 82 q 590 0 733 0 l 525 0 l 525 286 l 615 433 q 502 115 615 229 q 185 0 389 0 l 104 0 m 528 989 l 625 1208 l 744 1208 l 625 989 l 528 989 z "},"Ŵ":{"ha":1154,"x_min":104,"x_max":1099,"o":"m 104 0 l 104 903 l 215 903 l 215 92 l 200 110 q 441 195 357 110 q 525 438 525 281 l 525 903 l 636 903 l 636 92 l 610 110 q 781 139 715 110 q 881 235 846 168 q 929 417 917 303 l 985 903 l 1099 903 l 1043 417 q 974 174 1026 265 q 827 41 921 82 q 590 0 733 0 l 525 0 l 525 286 l 615 433 q 502 115 615 229 q 185 0 389 0 l 104 0 m 636 1208 l 790 989 l 678 989 l 553 1171 l 603 1171 l 479 989 l 368 989 l 521 1208 l 636 1208 z "},"Ẅ":{"ha":1154,"x_min":104,"x_max":1099,"o":"m 104 0 l 104 903 l 215 903 l 215 92 l 200 110 q 441 195 357 110 q 525 438 525 281 l 525 903 l 636 903 l 636 92 l 610 110 q 781 139 715 110 q 881 235 846 168 q 929 417 917 303 l 985 903 l 1099 903 l 1043 417 q 974 174 1026 265 q 827 41 921 82 q 590 0 733 0 l 525 0 l 525 286 l 615 433 q 502 115 615 229 q 185 0 389 0 l 104 0 m 456 1021 q 405 1040 425 1021 q 385 1090 385 1060 q 405 1140 385 1121 q 456 1160 425 1160 q 507 1140 488 1160 q 526 1090 526 1121 q 507 1040 526 1060 q 456 1021 488 1021 m 703 1021 q 652 1040 672 1021 q 632 1090 632 1060 q 652 1140 632 1121 q 703 1160 672 1160 q 754 1140 735 1160 q 774 1090 774 1121 q 754 1040 774 1060 q 703 1021 735 1021 z "},"Ẁ":{"ha":1154,"x_min":104,"x_max":1099,"o":"m 104 0 l 104 903 l 215 903 l 215 92 l 200 110 q 441 195 357 110 q 525 438 525 281 l 525 903 l 636 903 l 636 92 l 610 110 q 781 139 715 110 q 881 235 846 168 q 929 417 917 303 l 985 903 l 1099 903 l 1043 417 q 974 174 1026 265 q 827 41 921 82 q 590 0 733 0 l 525 0 l 525 286 l 615 433 q 502 115 615 229 q 185 0 389 0 l 104 0 m 625 989 l 528 989 l 401 1208 l 521 1208 l 625 989 z "},"Ý":{"ha":704,"x_min":49,"x_max":676,"o":"m 315 0 l 565 903 l 676 903 l 433 0 l 315 0 m 49 636 q 58 753 49 693 q 92 903 68 813 l 201 903 q 167 751 176 810 q 157 636 157 693 q 228 435 157 506 q 431 365 300 365 l 464 365 l 464 261 l 431 261 q 224 306 310 261 q 94 434 139 350 q 49 636 49 518 m 318 989 l 415 1208 l 535 1208 l 415 989 l 318 989 z "},"Ÿ":{"ha":704,"x_min":49,"x_max":676,"o":"m 315 0 l 565 903 l 676 903 l 433 0 l 315 0 m 49 636 q 58 753 49 693 q 92 903 68 813 l 201 903 q 167 751 176 810 q 157 636 157 693 q 228 435 157 506 q 431 365 300 365 l 464 365 l 464 261 l 431 261 q 224 306 310 261 q 94 434 139 350 q 49 636 49 518 m 264 1021 q 213 1040 233 1021 q 193 1090 193 1060 q 213 1140 193 1121 q 264 1160 233 1160 q 315 1140 296 1160 q 335 1090 335 1121 q 315 1040 335 1060 q 264 1021 296 1021 m 511 1021 q 460 1040 481 1021 q 440 1090 440 1060 q 460 1140 440 1121 q 511 1160 481 1160 q 563 1140 543 1160 q 582 1090 582 1121 q 563 1040 582 1060 q 511 1021 543 1021 z "},"Ŷ":{"ha":704,"x_min":49,"x_max":676,"o":"m 315 0 l 565 903 l 676 903 l 433 0 l 315 0 m 49 636 q 58 753 49 693 q 92 903 68 813 l 201 903 q 167 751 176 810 q 157 636 157 693 q 228 435 157 506 q 431 365 300 365 l 464 365 l 464 261 l 431 261 q 224 306 310 261 q 94 434 139 350 q 49 636 49 518 m 444 1208 l 599 989 l 486 989 l 361 1171 l 411 1171 l 288 989 l 176 989 l 329 1208 l 444 1208 z "},"Ỳ":{"ha":704,"x_min":49,"x_max":676,"o":"m 315 0 l 565 903 l 676 903 l 433 0 l 315 0 m 49 636 q 58 753 49 693 q 92 903 68 813 l 201 903 q 167 751 176 810 q 157 636 157 693 q 228 435 157 506 q 431 365 300 365 l 464 365 l 464 261 l 431 261 q 224 306 310 261 q 94 434 139 350 q 49 636 49 518 m 433 989 l 336 989 l 210 1208 l 329 1208 l 433 989 z "},"Ž":{"ha":647,"x_min":49,"x_max":606,"o":"m 606 0 l 49 0 l 476 881 l 476 799 l 49 799 l 49 903 l 606 903 l 179 22 l 179 104 l 606 104 l 606 0 m 275 989 l 121 1208 l 233 1208 l 358 1026 l 308 1026 l 432 1208 l 543 1208 l 390 989 l 275 989 z "},"Ź":{"ha":647,"x_min":49,"x_max":606,"o":"m 606 0 l 49 0 l 476 881 l 476 799 l 49 799 l 49 903 l 606 903 l 179 22 l 179 104 l 606 104 l 606 0 m 243 989 l 340 1208 l 460 1208 l 340 989 l 243 989 z "},"Ż":{"ha":647,"x_min":49,"x_max":606,"o":"m 606 0 l 49 0 l 476 881 l 476 799 l 49 799 l 49 903 l 606 903 l 179 22 l 179 104 l 606 104 l 606 0 m 322 1021 q 266 1042 288 1021 q 244 1097 244 1064 q 266 1152 244 1131 q 322 1174 288 1174 q 378 1152 357 1174 q 400 1097 400 1131 q 378 1042 400 1064 q 322 1021 357 1021 z "},"á":{"ha":688,"x_min":56,"x_max":604,"o":"m 315 -12 q 180 15 239 -12 q 88 90 121 42 q 56 200 56 138 q 89 310 56 263 q 181 385 122 358 q 315 413 239 413 q 499 356 431 413 q 568 203 568 299 q 499 47 568 106 q 315 -12 431 -12 m 329 79 q 451 113 406 79 q 496 203 496 147 q 451 290 496 258 q 329 321 407 321 q 208 289 253 321 q 164 200 164 257 q 208 112 164 144 q 329 79 253 79 m 604 0 l 503 0 l 503 146 l 496 146 l 496 415 q 456 531 496 489 q 344 572 415 572 q 253 547 290 572 q 201 475 217 522 l 90 475 q 138 577 103 533 q 226 645 174 621 q 343 669 279 669 q 534 599 464 669 q 604 410 604 529 l 604 0 m 289 744 l 386 964 l 506 964 l 386 744 l 289 744 z "},"â":{"ha":688,"x_min":56,"x_max":604,"o":"m 315 -12 q 180 15 239 -12 q 88 90 121 42 q 56 200 56 138 q 89 310 56 263 q 181 385 122 358 q 315 413 239 413 q 499 356 431 413 q 568 203 568 299 q 499 47 568 106 q 315 -12 431 -12 m 329 79 q 451 113 406 79 q 496 203 496 147 q 451 290 496 258 q 329 321 407 321 q 208 289 253 321 q 164 200 164 257 q 208 112 164 144 q 329 79 253 79 m 604 0 l 503 0 l 503 146 l 496 146 l 496 415 q 456 531 496 489 q 344 572 415 572 q 253 547 290 572 q 201 475 217 522 l 90 475 q 138 577 103 533 q 226 645 174 621 q 343 669 279 669 q 534 599 464 669 q 604 410 604 529 l 604 0 m 397 964 l 551 744 l 439 744 l 314 926 l 364 926 l 240 744 l 129 744 l 282 964 l 397 964 z "},"ä":{"ha":688,"x_min":56,"x_max":604,"o":"m 315 -12 q 180 15 239 -12 q 88 90 121 42 q 56 200 56 138 q 89 310 56 263 q 181 385 122 358 q 315 413 239 413 q 499 356 431 413 q 568 203 568 299 q 499 47 568 106 q 315 -12 431 -12 m 329 79 q 451 113 406 79 q 496 203 496 147 q 451 290 496 258 q 329 321 407 321 q 208 289 253 321 q 164 200 164 257 q 208 112 164 144 q 329 79 253 79 m 604 0 l 503 0 l 503 146 l 496 146 l 496 415 q 456 531 496 489 q 344 572 415 572 q 253 547 290 572 q 201 475 217 522 l 90 475 q 138 577 103 533 q 226 645 174 621 q 343 669 279 669 q 534 599 464 669 q 604 410 604 529 l 604 0 m 217 776 q 166 796 186 776 q 146 846 146 815 q 166 896 146 876 q 217 915 186 915 q 268 896 249 915 q 288 846 288 876 q 268 796 288 815 q 217 776 249 776 m 464 776 q 413 796 433 776 q 393 846 393 815 q 413 896 393 876 q 464 915 433 915 q 515 896 496 915 q 535 846 535 876 q 515 796 535 815 q 464 776 496 776 z "},"à":{"ha":688,"x_min":56,"x_max":604,"o":"m 315 -12 q 180 15 239 -12 q 88 90 121 42 q 56 200 56 138 q 89 310 56 263 q 181 385 122 358 q 315 413 239 413 q 499 356 431 413 q 568 203 568 299 q 499 47 568 106 q 315 -12 431 -12 m 329 79 q 451 113 406 79 q 496 203 496 147 q 451 290 496 258 q 329 321 407 321 q 208 289 253 321 q 164 200 164 257 q 208 112 164 144 q 329 79 253 79 m 604 0 l 503 0 l 503 146 l 496 146 l 496 415 q 456 531 496 489 q 344 572 415 572 q 253 547 290 572 q 201 475 217 522 l 90 475 q 138 577 103 533 q 226 645 174 621 q 343 669 279 669 q 534 599 464 669 q 604 410 604 529 l 604 0 m 386 744 l 289 744 l 163 964 l 282 964 l 386 744 z "},"å":{"ha":688,"x_min":56,"x_max":604,"o":"m 354 669 q 410 690 390 669 q 431 743 431 710 q 410 797 431 776 q 354 817 390 817 q 299 797 319 817 q 278 743 278 776 q 299 690 278 710 q 354 669 319 669 m 315 -12 q 180 15 239 -12 q 88 90 121 42 q 56 200 56 138 q 89 310 56 263 q 181 385 122 358 q 315 413 239 413 q 499 356 431 413 q 568 203 568 299 q 499 47 568 106 q 315 -12 431 -12 m 329 79 q 451 113 406 79 q 496 203 496 147 q 451 290 496 258 q 329 321 407 321 q 208 289 253 321 q 164 200 164 257 q 208 112 164 144 q 329 79 253 79 m 431 603 l 431 658 q 558 569 513 635 q 604 410 604 503 l 604 0 l 503 0 l 503 146 l 496 146 l 496 415 q 456 531 496 489 q 344 572 415 572 q 253 547 290 572 q 201 475 217 522 l 90 475 q 156 596 107 547 q 278 663 206 644 l 278 601 q 211 660 235 622 q 188 743 188 699 q 235 855 188 810 q 354 900 283 900 q 439 879 401 900 q 499 823 476 858 q 521 743 521 788 q 497 660 521 697 q 431 603 472 622 z "},"ã":{"ha":688,"x_min":56,"x_max":604,"o":"m 315 -12 q 180 15 239 -12 q 88 90 121 42 q 56 200 56 138 q 89 310 56 263 q 181 385 122 358 q 315 413 239 413 q 499 356 431 413 q 568 203 568 299 q 499 47 568 106 q 315 -12 431 -12 m 329 79 q 451 113 406 79 q 496 203 496 147 q 451 290 496 258 q 329 321 407 321 q 208 289 253 321 q 164 200 164 257 q 208 112 164 144 q 329 79 253 79 m 604 0 l 503 0 l 503 146 l 496 146 l 496 415 q 456 531 496 489 q 344 572 415 572 q 253 547 290 572 q 201 475 217 522 l 90 475 q 138 577 103 533 q 226 645 174 621 q 343 669 279 669 q 534 599 464 669 q 604 410 604 529 l 604 0 m 132 744 l 132 833 q 162 933 132 897 q 246 968 192 968 q 306 953 282 968 q 348 918 331 939 q 378 876 365 897 q 402 841 390 856 q 429 826 414 826 q 453 838 446 826 q 461 875 461 850 l 461 964 l 549 964 l 549 875 q 519 776 549 811 q 435 740 489 740 q 374 755 399 740 q 333 790 350 769 q 303 832 317 811 q 278 867 290 853 q 251 882 267 882 q 219 833 219 882 l 219 744 l 132 744 z "},"ă":{"ha":688,"x_min":56,"x_max":604,"o":"m 315 -12 q 180 15 239 -12 q 88 90 121 42 q 56 200 56 138 q 89 310 56 263 q 181 385 122 358 q 315 413 239 413 q 499 356 431 413 q 568 203 568 299 q 499 47 568 106 q 315 -12 431 -12 m 329 79 q 451 113 406 79 q 496 203 496 147 q 451 290 496 258 q 329 321 407 321 q 208 289 253 321 q 164 200 164 257 q 208 112 164 144 q 329 79 253 79 m 604 0 l 503 0 l 503 146 l 496 146 l 496 415 q 456 531 496 489 q 344 572 415 572 q 253 547 290 572 q 201 475 217 522 l 90 475 q 138 577 103 533 q 226 645 174 621 q 343 669 279 669 q 534 599 464 669 q 604 410 604 529 l 604 0 m 340 828 q 424 853 393 828 q 454 929 454 879 l 454 964 l 543 964 l 543 929 q 488 789 543 838 q 340 740 432 740 q 192 789 247 740 q 138 929 138 838 l 138 964 l 226 964 l 226 929 q 256 853 226 879 q 340 828 286 828 z "},"ā":{"ha":688,"x_min":56,"x_max":604,"o":"m 315 -12 q 180 15 239 -12 q 88 90 121 42 q 56 200 56 138 q 89 310 56 263 q 181 385 122 358 q 315 413 239 413 q 499 356 431 413 q 568 203 568 299 q 499 47 568 106 q 315 -12 431 -12 m 329 79 q 451 113 406 79 q 496 203 496 147 q 451 290 496 258 q 329 321 407 321 q 208 289 253 321 q 164 200 164 257 q 208 112 164 144 q 329 79 253 79 m 604 0 l 503 0 l 503 146 l 496 146 l 496 415 q 456 531 496 489 q 344 572 415 572 q 253 547 290 572 q 201 475 217 522 l 90 475 q 138 577 103 533 q 226 645 174 621 q 343 669 279 669 q 534 599 464 669 q 604 410 604 529 l 604 0 m 167 888 l 514 888 l 514 790 l 167 790 l 167 888 z "},"ą":{"ha":688,"x_min":56,"x_max":604,"o":"m 539 35 l 539 0 l 503 0 l 503 146 l 496 146 l 496 415 q 456 531 496 489 q 344 572 415 572 q 254 547 292 572 q 201 475 217 522 l 90 475 q 138 577 103 533 q 226 645 174 621 q 343 669 279 669 q 534 599 464 669 q 604 410 604 529 l 604 0 q 532 -51 557 -25 q 507 -104 507 -78 q 522 -136 507 -125 q 563 -147 536 -147 l 604 -147 l 604 -231 l 557 -231 q 452 -199 492 -231 q 413 -112 413 -167 q 444 -33 413 -71 q 539 35 476 4 m 315 -12 q 180 15 239 -12 q 88 90 121 42 q 56 200 56 138 q 89 310 56 263 q 181 385 122 358 q 315 413 239 413 q 499 356 431 413 q 568 203 568 299 q 499 47 568 106 q 315 -12 431 -12 m 329 79 q 451 113 406 79 q 496 203 496 147 q 451 290 496 258 q 329 321 407 321 q 208 289 253 321 q 164 200 164 257 q 208 112 164 144 q 329 79 253 79 z "},"ç":{"ha":783,"x_min":56,"x_max":735,"o":"m 451 44 l 451 -189 l 343 -189 l 357 44 l 394 -12 q 224 33 301 -12 q 101 156 147 79 q 56 328 56 233 q 101 501 56 424 q 226 624 147 579 q 400 669 304 669 q 551 637 482 669 q 667 545 619 604 q 732 407 714 486 l 624 407 q 536 527 596 483 q 400 571 476 571 q 280 538 333 571 q 195 451 226 506 q 164 328 164 396 q 195 205 164 260 q 280 118 226 150 q 400 86 333 86 q 501 108 454 86 q 581 169 547 129 q 628 261 614 208 l 735 261 q 670 119 718 181 q 554 23 622 58 q 406 -12 486 -12 l 451 44 z "},"ć":{"ha":783,"x_min":56,"x_max":735,"o":"m 628 261 l 735 261 q 670 119 718 181 q 553 22 622 57 q 400 -12 483 -12 q 226 33 304 -12 q 101 155 147 78 q 56 328 56 232 q 101 501 56 424 q 226 624 147 579 q 400 669 304 669 q 550 637 482 669 q 666 545 618 604 q 732 407 714 486 l 624 407 q 538 526 597 481 q 400 571 478 571 q 281 539 335 571 q 196 452 228 507 q 164 328 164 397 q 196 205 164 260 q 281 118 228 150 q 400 86 335 86 q 501 108 454 86 q 581 170 547 131 q 628 261 614 210 m 340 744 l 438 964 l 557 964 l 438 744 l 340 744 z "},"č":{"ha":783,"x_min":56,"x_max":735,"o":"m 628 261 l 735 261 q 670 119 718 181 q 553 22 622 57 q 400 -12 483 -12 q 226 33 304 -12 q 101 155 147 78 q 56 328 56 232 q 101 501 56 424 q 226 624 147 579 q 400 669 304 669 q 550 637 482 669 q 666 545 618 604 q 732 407 714 486 l 624 407 q 538 526 597 481 q 400 571 478 571 q 281 539 335 571 q 196 452 228 507 q 164 328 164 397 q 196 205 164 260 q 281 118 228 150 q 400 86 335 86 q 501 108 454 86 q 581 170 547 131 q 628 261 614 210 m 335 744 l 181 964 l 293 964 l 418 782 l 368 782 l 492 964 l 603 964 l 450 744 l 335 744 z "},"ĉ":{"ha":783,"x_min":56,"x_max":735,"o":"m 628 261 l 735 261 q 670 119 718 181 q 553 22 622 57 q 400 -12 483 -12 q 226 33 304 -12 q 101 155 147 78 q 56 328 56 232 q 101 501 56 424 q 226 624 147 579 q 400 669 304 669 q 550 637 482 669 q 666 545 618 604 q 732 407 714 486 l 624 407 q 538 526 597 481 q 400 571 478 571 q 281 539 335 571 q 196 452 228 507 q 164 328 164 397 q 196 205 164 260 q 281 118 228 150 q 400 86 335 86 q 501 108 454 86 q 581 170 547 131 q 628 261 614 210 m 449 964 l 603 744 l 490 744 l 365 926 l 415 926 l 292 744 l 181 744 l 333 964 l 449 964 z "},"ċ":{"ha":783,"x_min":56,"x_max":735,"o":"m 628 261 l 735 261 q 670 119 718 181 q 553 22 622 57 q 400 -12 483 -12 q 226 33 304 -12 q 101 155 147 78 q 56 328 56 232 q 101 501 56 424 q 226 624 147 579 q 400 669 304 669 q 550 637 482 669 q 666 545 618 604 q 732 407 714 486 l 624 407 q 538 526 597 481 q 400 571 478 571 q 281 539 335 571 q 196 452 228 507 q 164 328 164 397 q 196 205 164 260 q 281 118 228 150 q 400 86 335 86 q 501 108 454 86 q 581 170 547 131 q 628 261 614 210 m 392 776 q 335 798 357 776 q 314 853 314 819 q 335 908 314 886 q 392 929 357 929 q 448 908 426 929 q 469 853 469 886 q 448 798 469 819 q 392 776 426 776 z "},"ď":{"ha":942,"x_min":56,"x_max":897,"o":"m 663 0 l 429 0 q 235 43 319 0 q 103 164 150 86 q 56 343 56 242 q 96 511 56 438 q 206 627 136 585 q 367 669 276 669 q 526 631 453 669 q 640 528 599 593 l 585 475 q 492 544 549 518 q 381 571 435 571 q 268 542 317 571 q 192 460 219 513 q 164 340 164 408 q 197 215 164 269 q 288 128 229 160 q 424 97 347 97 l 579 97 l 554 69 l 554 903 l 663 903 l 663 0 m 788 629 l 788 903 l 897 903 l 876 629 l 788 629 z "},"đ":{"ha":763,"x_min":56,"x_max":790,"o":"m 388 819 l 790 819 l 790 728 l 388 728 l 388 819 m 663 0 l 429 0 q 235 42 319 0 q 103 158 150 83 q 56 329 56 232 q 96 490 56 419 q 206 601 136 561 q 367 642 276 642 q 526 603 453 642 q 640 500 599 565 l 585 449 q 492 518 549 492 q 381 544 435 544 q 268 517 317 544 q 192 440 219 489 q 164 326 164 390 q 197 208 164 260 q 288 126 229 156 q 424 97 347 97 l 579 97 l 554 69 l 554 903 l 663 903 l 663 0 z "},"é":{"ha":775,"x_min":56,"x_max":722,"o":"m 393 -12 q 223 33 300 -12 q 101 156 146 78 q 56 328 56 233 q 101 499 56 421 q 223 623 146 576 q 393 669 300 669 q 560 628 486 669 q 678 515 635 588 q 722 349 722 443 l 722 311 l 119 311 l 119 400 l 647 400 l 615 347 l 615 365 q 585 474 615 428 q 506 547 556 521 q 393 574 456 574 q 281 543 333 574 q 196 461 228 513 q 164 346 164 410 l 164 317 q 197 197 164 250 q 281 115 229 144 q 393 85 333 85 q 520 114 464 85 q 613 204 576 143 l 719 204 q 647 89 694 138 q 534 14 599 40 q 393 -12 469 -12 m 349 744 l 446 964 l 565 964 l 446 744 l 349 744 z "},"ê":{"ha":775,"x_min":56,"x_max":722,"o":"m 393 -12 q 223 33 300 -12 q 101 156 146 78 q 56 328 56 233 q 101 499 56 421 q 223 623 146 576 q 393 669 300 669 q 560 628 486 669 q 678 515 635 588 q 722 349 722 443 l 722 311 l 119 311 l 119 400 l 647 400 l 615 347 l 615 365 q 585 474 615 428 q 506 547 556 521 q 393 574 456 574 q 281 543 333 574 q 196 461 228 513 q 164 346 164 410 l 164 317 q 197 197 164 250 q 281 115 229 144 q 393 85 333 85 q 520 114 464 85 q 613 204 576 143 l 719 204 q 647 89 694 138 q 534 14 599 40 q 393 -12 469 -12 m 457 964 l 611 744 l 499 744 l 374 926 l 424 926 l 300 744 l 189 744 l 342 964 l 457 964 z "},"ë":{"ha":775,"x_min":56,"x_max":722,"o":"m 393 -12 q 223 33 300 -12 q 101 156 146 78 q 56 328 56 233 q 101 499 56 421 q 223 623 146 576 q 393 669 300 669 q 560 628 486 669 q 678 515 635 588 q 722 349 722 443 l 722 311 l 119 311 l 119 400 l 647 400 l 615 347 l 615 365 q 585 474 615 428 q 506 547 556 521 q 393 574 456 574 q 281 543 333 574 q 196 461 228 513 q 164 346 164 410 l 164 317 q 197 197 164 250 q 281 115 229 144 q 393 85 333 85 q 520 114 464 85 q 613 204 576 143 l 719 204 q 647 89 694 138 q 534 14 599 40 q 393 -12 469 -12 m 276 776 q 226 796 246 776 q 206 846 206 815 q 226 896 206 876 q 276 915 246 915 q 328 896 308 915 q 347 846 347 876 q 328 796 347 815 q 276 776 308 776 m 524 776 q 473 796 493 776 q 453 846 453 815 q 473 896 453 876 q 524 915 493 915 q 575 896 556 915 q 594 846 594 876 q 575 796 594 815 q 524 776 556 776 z "},"è":{"ha":775,"x_min":56,"x_max":722,"o":"m 393 -12 q 223 33 300 -12 q 101 156 146 78 q 56 328 56 233 q 101 499 56 421 q 223 623 146 576 q 393 669 300 669 q 560 628 486 669 q 678 515 635 588 q 722 349 722 443 l 722 311 l 119 311 l 119 400 l 647 400 l 615 347 l 615 365 q 585 474 615 428 q 506 547 556 521 q 393 574 456 574 q 281 543 333 574 q 196 461 228 513 q 164 346 164 410 l 164 317 q 197 197 164 250 q 281 115 229 144 q 393 85 333 85 q 520 114 464 85 q 613 204 576 143 l 719 204 q 647 89 694 138 q 534 14 599 40 q 393 -12 469 -12 m 446 744 l 349 744 l 222 964 l 342 964 l 446 744 z "},"ĕ":{"ha":775,"x_min":56,"x_max":722,"o":"m 393 -12 q 223 33 300 -12 q 101 156 146 78 q 56 328 56 233 q 101 499 56 421 q 223 623 146 576 q 393 669 300 669 q 560 628 486 669 q 678 515 635 588 q 722 349 722 443 l 722 311 l 119 311 l 119 400 l 647 400 l 615 347 l 615 365 q 585 474 615 428 q 506 547 556 521 q 393 574 456 574 q 281 543 333 574 q 196 461 228 513 q 164 346 164 410 l 164 317 q 197 197 164 250 q 281 115 229 144 q 393 85 333 85 q 520 114 464 85 q 613 204 576 143 l 719 204 q 647 89 694 138 q 534 14 599 40 q 393 -12 469 -12 m 400 828 q 483 853 453 828 q 514 929 514 879 l 514 964 l 603 964 l 603 929 q 547 789 603 838 q 400 740 492 740 q 252 789 307 740 q 197 929 197 838 l 197 964 l 286 964 l 286 929 q 316 853 286 879 q 400 828 346 828 z "},"ě":{"ha":775,"x_min":56,"x_max":722,"o":"m 393 -12 q 223 33 300 -12 q 101 156 146 78 q 56 328 56 233 q 101 499 56 421 q 223 623 146 576 q 393 669 300 669 q 560 628 486 669 q 678 515 635 588 q 722 349 722 443 l 722 311 l 119 311 l 119 400 l 647 400 l 615 347 l 615 365 q 585 474 615 428 q 506 547 556 521 q 393 574 456 574 q 281 543 333 574 q 196 461 228 513 q 164 346 164 410 l 164 317 q 197 197 164 250 q 281 115 229 144 q 393 85 333 85 q 520 114 464 85 q 613 204 576 143 l 719 204 q 647 89 694 138 q 534 14 599 40 q 393 -12 469 -12 m 343 744 l 189 964 l 301 964 l 426 782 l 376 782 l 500 964 l 611 964 l 458 744 l 343 744 z "},"ė":{"ha":775,"x_min":56,"x_max":722,"o":"m 393 -12 q 223 33 300 -12 q 101 156 146 78 q 56 328 56 233 q 101 499 56 421 q 223 623 146 576 q 393 669 300 669 q 560 628 486 669 q 678 515 635 588 q 722 349 722 443 l 722 311 l 119 311 l 119 400 l 647 400 l 615 347 l 615 365 q 585 474 615 428 q 506 547 556 521 q 393 574 456 574 q 281 543 333 574 q 196 461 228 513 q 164 346 164 410 l 164 317 q 197 197 164 250 q 281 115 229 144 q 393 85 333 85 q 520 114 464 85 q 613 204 576 143 l 719 204 q 647 89 694 138 q 534 14 599 40 q 393 -12 469 -12 m 400 776 q 344 798 365 776 q 322 853 322 819 q 344 908 322 886 q 400 929 365 929 q 456 908 435 929 q 478 853 478 886 q 456 798 478 819 q 400 776 435 776 z "},"ē":{"ha":775,"x_min":56,"x_max":722,"o":"m 393 -12 q 223 33 300 -12 q 101 156 146 78 q 56 328 56 233 q 101 499 56 421 q 223 623 146 576 q 393 669 300 669 q 560 628 486 669 q 678 515 635 588 q 722 349 722 443 l 722 311 l 119 311 l 119 400 l 647 400 l 615 347 l 615 365 q 585 474 615 428 q 506 547 556 521 q 393 574 456 574 q 281 543 333 574 q 196 461 228 513 q 164 346 164 410 l 164 317 q 197 197 164 250 q 281 115 229 144 q 393 85 333 85 q 520 114 464 85 q 613 204 576 143 l 719 204 q 647 89 694 138 q 534 14 599 40 q 393 -12 469 -12 m 226 888 l 574 888 l 574 790 l 226 790 l 226 888 z "},"ę":{"ha":775,"x_min":56,"x_max":722,"o":"m 492 -231 l 444 -231 q 340 -198 379 -231 q 300 -110 300 -165 q 314 -55 300 -82 q 360 -1 328 -28 q 449 49 392 25 l 454 -3 q 428 -10 443 -7 q 393 -12 414 -12 q 223 33 300 -12 q 101 156 146 78 q 56 328 56 233 q 101 499 56 421 q 223 623 146 576 q 393 669 300 669 q 560 628 486 669 q 678 515 635 588 q 722 349 722 443 l 722 311 l 119 311 l 119 400 l 647 400 l 615 347 l 615 365 q 585 474 615 428 q 506 547 556 521 q 393 574 456 574 q 281 543 333 574 q 196 461 228 513 q 164 346 164 410 l 164 317 q 197 197 164 250 q 281 115 229 144 q 393 85 333 85 q 520 114 464 85 q 613 204 576 143 l 719 204 q 658 101 694 140 q 581 38 622 61 q 499 0 539 15 q 415 -50 435 -24 q 394 -94 394 -76 q 409 -134 394 -121 q 450 -147 424 -147 l 492 -147 l 492 -231 z "},"ğ":{"ha":697,"x_min":38,"x_max":681,"o":"m 331 122 q 181 158 247 122 q 76 256 114 193 q 38 396 38 318 q 76 535 38 474 q 183 633 115 597 q 333 669 250 669 q 496 631 424 669 l 496 601 q 593 518 560 572 q 626 396 626 464 q 586 256 626 318 q 479 158 546 193 q 331 122 413 122 m 522 396 q 497 490 522 449 q 430 556 472 532 q 333 579 388 579 q 238 556 281 579 q 169 490 194 532 q 144 396 144 449 q 169 303 144 344 q 238 237 194 261 q 333 213 281 213 q 429 238 386 213 q 497 304 472 263 q 522 396 522 346 m 71 -208 l 71 -107 l 410 -107 q 507 -76 471 -107 q 543 8 543 -44 q 507 92 543 61 q 410 122 471 122 l 331 122 l 331 197 l 410 197 q 538 172 483 197 q 624 103 593 147 q 654 -3 654 58 q 626 -109 654 -62 q 542 -182 597 -156 q 410 -208 488 -208 l 71 -208 m 410 576 l 401 657 l 681 657 l 681 567 l 410 576 m 338 828 q 421 853 390 828 q 451 929 451 879 l 451 964 l 540 964 l 540 929 q 485 789 540 838 q 338 740 429 740 q 190 789 244 740 q 135 929 135 838 l 135 964 l 224 964 l 224 929 q 253 853 224 879 q 338 828 283 828 z "},"ĝ":{"ha":697,"x_min":38,"x_max":681,"o":"m 331 122 q 181 158 247 122 q 76 256 114 193 q 38 396 38 318 q 76 535 38 474 q 183 633 115 597 q 333 669 250 669 q 496 631 424 669 l 496 601 q 593 518 560 572 q 626 396 626 464 q 586 256 626 318 q 479 158 546 193 q 331 122 413 122 m 522 396 q 497 490 522 449 q 430 556 472 532 q 333 579 388 579 q 238 556 281 579 q 169 490 194 532 q 144 396 144 449 q 169 303 144 344 q 238 237 194 261 q 333 213 281 213 q 429 238 386 213 q 497 304 472 263 q 522 396 522 346 m 71 -208 l 71 -107 l 410 -107 q 507 -76 471 -107 q 543 8 543 -44 q 507 92 543 61 q 410 122 471 122 l 331 122 l 331 197 l 410 197 q 538 172 483 197 q 624 103 593 147 q 654 -3 654 58 q 626 -109 654 -62 q 542 -182 597 -156 q 410 -208 488 -208 l 71 -208 m 410 576 l 401 657 l 681 657 l 681 567 l 410 576 m 399 963 l 553 743 l 440 743 l 315 925 l 365 925 l 242 743 l 131 743 l 283 963 l 399 963 z "},"ģ":{"ha":697,"x_min":38,"x_max":681,"o":"m 331 122 q 181 158 247 122 q 76 256 114 193 q 38 396 38 318 q 76 535 38 474 q 183 633 115 597 q 333 669 250 669 q 496 631 424 669 l 496 601 q 593 518 560 572 q 626 396 626 464 q 586 256 626 318 q 479 158 546 193 q 331 122 413 122 m 522 396 q 497 490 522 449 q 430 556 472 532 q 333 579 388 579 q 238 556 281 579 q 169 490 194 532 q 144 396 144 449 q 169 303 144 344 q 238 237 194 261 q 333 213 281 213 q 429 238 386 213 q 497 304 472 263 q 522 396 522 346 m 71 -208 l 71 -107 l 410 -107 q 507 -76 471 -107 q 543 8 543 -44 q 507 92 543 61 q 410 122 471 122 l 331 122 l 331 197 l 410 197 q 538 172 483 197 q 624 103 593 147 q 654 -3 654 58 q 626 -109 654 -62 q 542 -182 597 -156 q 410 -208 488 -208 l 71 -208 m 410 576 l 401 657 l 681 657 l 681 567 l 410 576 m 396 1007 q 361 926 375 965 q 340 851 347 888 l 297 900 q 335 914 308 914 q 385 895 365 914 q 406 846 406 876 q 386 796 406 815 q 335 776 367 776 q 284 797 304 776 q 264 850 264 817 q 280 922 264 881 q 322 1007 296 964 l 396 1007 z "},"ġ":{"ha":697,"x_min":38,"x_max":681,"o":"m 331 122 q 181 158 247 122 q 76 256 114 193 q 38 396 38 318 q 76 535 38 474 q 183 633 115 597 q 333 669 250 669 q 496 631 424 669 l 496 601 q 593 518 560 572 q 626 396 626 464 q 586 256 626 318 q 479 158 546 193 q 331 122 413 122 m 522 396 q 497 490 522 449 q 430 556 472 532 q 333 579 388 579 q 238 556 281 579 q 169 490 194 532 q 144 396 144 449 q 169 303 144 344 q 238 237 194 261 q 333 213 281 213 q 429 238 386 213 q 497 304 472 263 q 522 396 522 346 m 71 -208 l 71 -107 l 410 -107 q 507 -76 471 -107 q 543 8 543 -44 q 507 92 543 61 q 410 122 471 122 l 331 122 l 331 197 l 410 197 q 538 172 483 197 q 624 103 593 147 q 654 -3 654 58 q 626 -109 654 -62 q 542 -182 597 -156 q 410 -208 488 -208 l 71 -208 m 410 576 l 401 657 l 681 657 l 681 567 l 410 576 m 335 776 q 278 798 300 776 q 257 853 257 819 q 278 908 257 886 q 335 929 300 929 q 391 908 369 929 q 413 853 413 886 q 391 798 413 819 q 335 776 369 776 z "},"ħ":{"ha":706,"x_min":-28,"x_max":622,"o":"m -28 819 l 375 819 l 375 728 l -28 728 l -28 819 m 86 0 l 86 903 l 194 903 l 194 504 l 118 360 q 188 565 118 488 q 375 642 258 642 q 555 570 488 642 q 622 378 622 499 l 622 0 l 514 0 l 514 374 q 471 498 514 451 q 354 544 428 544 q 238 498 282 544 q 194 374 194 451 l 194 0 l 86 0 z "},"ĥ":{"ha":706,"x_min":86,"x_max":622,"o":"m 86 0 l 86 903 l 194 903 l 194 532 l 118 388 q 188 592 118 515 q 375 669 258 669 q 555 598 488 669 q 622 406 622 526 l 622 0 l 514 0 l 514 401 q 471 526 514 479 q 354 572 428 572 q 238 526 282 572 q 194 401 194 479 l 194 0 l 86 0 m 368 1208 l 522 989 l 410 989 l 285 1171 l 335 1171 l 211 989 l 100 989 l 253 1208 l 368 1208 z "},"í":{"ha":281,"x_min":86,"x_max":308,"o":"m 86 657 l 194 657 l 194 0 l 86 0 l 86 657 m 92 744 l 189 964 l 308 964 l 189 744 l 92 744 z "},"î":{"ha":281,"x_min":-68,"x_max":354,"o":"m 86 657 l 194 657 l 194 0 l 86 0 l 86 657 m 200 964 l 354 744 l 242 744 l 117 926 l 167 926 l 43 744 l -68 744 l 85 964 l 200 964 z "},"ï":{"ha":281,"x_min":-51,"x_max":338,"o":"m 86 657 l 194 657 l 194 0 l 86 0 l 86 657 m 19 776 q -31 796 -11 776 q -51 846 -51 815 q -31 896 -51 876 q 19 915 -11 915 q 71 896 51 915 q 90 846 90 876 q 71 796 90 815 q 19 776 51 776 m 267 776 q 216 796 236 776 q 196 846 196 815 q 216 896 196 876 q 267 915 236 915 q 318 896 299 915 q 338 846 338 876 q 318 796 338 815 q 267 776 299 776 z "},"ì":{"ha":281,"x_min":-35,"x_max":194,"o":"m 86 657 l 194 657 l 194 0 l 86 0 l 86 657 m 189 744 l 92 744 l -35 964 l 85 964 l 189 744 z "},"ĭ":{"ha":281,"x_min":-60,"x_max":346,"o":"m 86 657 l 194 657 l 194 0 l 86 0 l 86 657 m 143 828 q 226 853 196 828 q 257 929 257 879 l 257 964 l 346 964 l 346 929 q 290 789 346 838 q 143 740 235 740 q -5 789 50 740 q -60 929 -60 838 l -60 964 l 29 964 l 29 929 q 59 853 29 879 q 143 828 89 828 z "},"ī":{"ha":281,"x_min":-32,"x_max":315,"o":"m 86 657 l 194 657 l 194 0 l 86 0 l 86 657 m -32 903 l 315 903 l 315 806 l -32 806 l -32 903 z "},"į":{"ha":281,"x_min":3,"x_max":211,"o":"m 140 767 q 90 786 110 767 q 69 836 69 806 q 90 886 69 867 q 140 906 110 906 q 192 886 172 906 q 211 836 211 867 q 192 786 211 806 q 140 767 172 767 m 129 35 l 129 0 l 86 0 l 86 657 l 194 657 l 194 0 q 122 -51 147 -25 q 97 -104 97 -78 q 112 -136 97 -125 q 153 -147 126 -147 l 194 -147 l 194 -231 l 147 -231 q 42 -199 82 -231 q 3 -112 3 -167 q 17 -58 3 -83 q 60 -8 32 -32 q 129 35 88 15 z "},"ĩ":{"ha":281,"x_min":-65,"x_max":351,"o":"m 86 657 l 194 657 l 194 0 l 86 0 l 86 657 m -65 744 l -65 833 q -35 933 -65 897 q 49 968 -6 968 q 109 953 85 968 q 151 918 133 939 q 181 876 168 897 q 205 841 193 856 q 232 826 217 826 q 256 838 249 826 q 264 875 264 850 l 264 964 l 351 964 l 351 875 q 322 776 351 811 q 238 740 292 740 q 177 755 201 740 q 136 790 153 769 q 106 832 119 811 q 81 867 93 853 q 54 882 69 882 q 22 833 22 882 l 22 744 l -65 744 z "},"ĵ":{"ha":281,"x_min":-71,"x_max":351,"o":"m 86 657 l 194 657 l 194 -21 q 144 -161 194 -114 q -6 -208 93 -208 l -24 -208 l -24 -111 l -6 -111 q 65 -90 43 -111 q 86 -21 86 -68 l 86 657 m 197 964 l 351 744 l 239 744 l 114 926 l 164 926 l 40 744 l -71 744 l 82 964 l 197 964 z "},"ĳ":{"ha":536,"x_min":69,"x_max":467,"o":"m 86 657 l 194 657 l 194 0 l 86 0 l 86 657 m 140 767 q 90 786 110 767 q 69 836 69 806 q 90 886 69 867 q 140 906 110 906 q 192 886 172 906 q 211 836 211 867 q 192 786 211 806 q 140 767 172 767 m 342 657 l 450 657 l 450 -21 q 399 -161 450 -114 q 250 -208 349 -208 l 232 -208 l 232 -111 l 250 -111 q 320 -90 299 -111 q 342 -21 342 -68 l 342 657 m 396 767 q 345 786 365 767 q 325 836 325 806 q 345 886 325 867 q 396 906 365 906 q 447 886 428 906 q 467 836 467 867 q 447 786 467 806 q 396 767 428 767 z "},"ķ":{"ha":700,"x_min":86,"x_max":644,"o":"m 86 0 l 86 903 l 194 903 l 194 268 l 113 99 q 118 188 113 151 q 138 253 124 225 q 178 310 153 281 l 488 657 l 617 657 l 318 322 l 249 322 q 305 353 271 342 q 365 365 339 365 q 570 294 496 365 q 644 97 644 222 l 644 0 l 536 0 l 536 97 q 490 225 536 179 q 365 271 444 271 q 240 225 286 271 q 194 99 194 179 l 194 0 l 86 0 m 306 -312 q 341 -231 326 -271 q 361 -157 356 -192 l 404 -206 q 367 -219 393 -219 q 316 -201 336 -219 q 296 -151 296 -182 q 316 -101 296 -121 q 367 -82 336 -82 q 418 -102 399 -82 q 438 -156 438 -122 q 422 -227 438 -186 q 379 -312 407 -268 l 306 -312 z "},"ĺ":{"ha":332,"x_min":76,"x_max":303,"o":"m 297 0 l 276 0 q 126 49 176 0 q 76 194 76 97 l 76 903 l 185 903 l 185 197 q 208 122 185 146 q 279 97 231 97 l 297 97 l 297 0 m 86 989 l 183 1208 l 303 1208 l 183 989 l 86 989 z "},"ľ":{"ha":464,"x_min":76,"x_max":419,"o":"m 297 0 l 276 0 q 126 49 176 0 q 76 194 76 97 l 76 903 l 185 903 l 185 197 q 208 122 185 146 q 279 97 231 97 l 297 97 l 297 0 m 310 629 l 310 903 l 419 903 l 399 629 l 310 629 z "},"ļ":{"ha":332,"x_min":76,"x_max":297,"o":"m 297 0 l 276 0 q 126 49 176 0 q 76 194 76 97 l 76 903 l 185 903 l 185 197 q 208 122 185 146 q 279 97 231 97 l 297 97 l 297 0 m 111 -312 q 147 -231 132 -271 q 167 -157 161 -192 l 210 -206 q 172 -219 199 -219 q 122 -201 142 -219 q 101 -151 101 -182 q 122 -101 101 -121 q 172 -82 142 -82 q 224 -102 204 -82 q 243 -156 243 -122 q 228 -227 243 -186 q 185 -312 213 -268 l 111 -312 z "},"ŀ":{"ha":471,"x_min":76,"x_max":435,"o":"m 297 0 l 276 0 q 126 49 176 0 q 76 194 76 97 l 76 903 l 185 903 l 185 197 q 208 122 185 146 q 279 97 231 97 l 297 97 l 297 0 m 364 351 q 313 371 333 351 q 293 421 293 390 q 313 471 293 451 q 364 490 333 490 q 415 471 396 490 q 435 421 435 451 q 415 371 435 390 q 364 351 396 351 z "},"ñ":{"ha":706,"x_min":86,"x_max":622,"o":"m 188 485 l 118 388 q 188 592 118 515 q 375 669 258 669 q 555 598 488 669 q 622 406 622 526 l 622 0 l 514 0 l 514 401 q 471 526 514 479 q 354 572 428 572 q 238 526 282 572 q 194 401 194 479 l 194 0 l 86 0 l 86 657 l 188 657 l 188 485 m 146 744 l 146 833 q 176 933 146 897 q 260 968 206 968 q 320 953 296 968 q 362 918 344 939 q 392 876 379 897 q 416 841 404 856 q 443 826 428 826 q 467 838 460 826 q 475 875 475 850 l 475 964 l 563 964 l 563 875 q 533 776 563 811 q 449 740 503 740 q 388 755 413 740 q 347 790 364 769 q 317 832 331 811 q 292 867 304 853 q 265 882 281 882 q 233 833 233 882 l 233 744 l 146 744 z "},"ń":{"ha":706,"x_min":86,"x_max":622,"o":"m 188 485 l 118 388 q 188 592 118 515 q 375 669 258 669 q 555 598 488 669 q 622 406 622 526 l 622 0 l 514 0 l 514 401 q 471 526 514 479 q 354 572 428 572 q 238 526 282 572 q 194 401 194 479 l 194 0 l 86 0 l 86 657 l 188 657 l 188 485 m 303 744 l 400 964 l 519 964 l 400 744 l 303 744 z "},"ň":{"ha":706,"x_min":86,"x_max":622,"o":"m 188 485 l 118 388 q 188 592 118 515 q 375 669 258 669 q 555 598 488 669 q 622 406 622 526 l 622 0 l 514 0 l 514 401 q 471 526 514 479 q 354 572 428 572 q 238 526 282 572 q 194 401 194 479 l 194 0 l 86 0 l 86 657 l 188 657 l 188 485 m 297 744 l 143 964 l 256 964 l 381 782 l 331 782 l 454 964 l 565 964 l 413 744 l 297 744 z "},"ņ":{"ha":706,"x_min":86,"x_max":622,"o":"m 188 485 l 118 388 q 188 592 118 515 q 375 669 258 669 q 555 598 488 669 q 622 406 622 526 l 622 0 l 514 0 l 514 401 q 471 526 514 479 q 354 572 428 572 q 238 526 282 572 q 194 401 194 479 l 194 0 l 86 0 l 86 657 l 188 657 l 188 485 m 296 -312 q 331 -231 317 -271 q 351 -157 346 -192 l 394 -206 q 357 -219 383 -219 q 306 -201 326 -219 q 286 -151 286 -182 q 306 -101 286 -121 q 357 -82 326 -82 q 408 -102 389 -82 q 428 -156 428 -122 q 413 -227 428 -186 q 369 -312 397 -268 l 296 -312 z "},"ó":{"ha":806,"x_min":56,"x_max":750,"o":"m 403 -12 q 226 33 306 -12 q 101 155 147 78 q 56 328 56 232 q 101 501 56 424 q 226 624 147 579 q 403 669 306 669 q 580 624 501 669 q 704 501 658 579 q 750 328 750 424 q 704 156 750 233 q 580 33 658 78 q 403 -12 501 -12 m 403 571 q 282 538 336 571 q 196 450 228 506 q 164 328 164 394 q 196 206 164 261 q 282 119 228 151 q 403 86 336 86 q 524 119 469 86 q 610 206 578 151 q 642 328 642 261 q 610 450 642 394 q 524 538 578 506 q 403 571 469 571 m 351 744 l 449 964 l 568 964 l 449 744 l 351 744 z "},"ô":{"ha":806,"x_min":56,"x_max":750,"o":"m 403 -12 q 226 33 306 -12 q 101 155 147 78 q 56 328 56 232 q 101 501 56 424 q 226 624 147 579 q 403 669 306 669 q 580 624 501 669 q 704 501 658 579 q 750 328 750 424 q 704 156 750 233 q 580 33 658 78 q 403 -12 501 -12 m 403 571 q 282 538 336 571 q 196 450 228 506 q 164 328 164 394 q 196 206 164 261 q 282 119 228 151 q 403 86 336 86 q 524 119 469 86 q 610 206 578 151 q 642 328 642 261 q 610 450 642 394 q 524 538 578 506 q 403 571 469 571 m 460 964 l 614 744 l 501 744 l 376 926 l 426 926 l 303 744 l 192 744 l 344 964 l 460 964 z "},"ö":{"ha":806,"x_min":56,"x_max":750,"o":"m 403 -12 q 226 33 306 -12 q 101 155 147 78 q 56 328 56 232 q 101 501 56 424 q 226 624 147 579 q 403 669 306 669 q 580 624 501 669 q 704 501 658 579 q 750 328 750 424 q 704 156 750 233 q 580 33 658 78 q 403 -12 501 -12 m 403 571 q 282 538 336 571 q 196 450 228 506 q 164 328 164 394 q 196 206 164 261 q 282 119 228 151 q 403 86 336 86 q 524 119 469 86 q 610 206 578 151 q 642 328 642 261 q 610 450 642 394 q 524 538 578 506 q 403 571 469 571 m 281 776 q 230 796 250 776 q 210 846 210 815 q 230 896 210 876 q 281 915 250 915 q 332 896 313 915 q 351 846 351 876 q 332 796 351 815 q 281 776 313 776 m 528 776 q 477 796 497 776 q 457 846 457 815 q 477 896 457 876 q 528 915 497 915 q 579 896 560 915 q 599 846 599 876 q 579 796 599 815 q 528 776 560 776 z "},"ò":{"ha":806,"x_min":56,"x_max":750,"o":"m 403 -12 q 226 33 306 -12 q 101 155 147 78 q 56 328 56 232 q 101 501 56 424 q 226 624 147 579 q 403 669 306 669 q 580 624 501 669 q 704 501 658 579 q 750 328 750 424 q 704 156 750 233 q 580 33 658 78 q 403 -12 501 -12 m 403 571 q 282 538 336 571 q 196 450 228 506 q 164 328 164 394 q 196 206 164 261 q 282 119 228 151 q 403 86 336 86 q 524 119 469 86 q 610 206 578 151 q 642 328 642 261 q 610 450 642 394 q 524 538 578 506 q 403 571 469 571 m 449 744 l 351 744 l 225 964 l 344 964 l 449 744 z "},"õ":{"ha":806,"x_min":56,"x_max":750,"o":"m 403 -12 q 226 33 306 -12 q 101 155 147 78 q 56 328 56 232 q 101 501 56 424 q 226 624 147 579 q 403 669 306 669 q 580 624 501 669 q 704 501 658 579 q 750 328 750 424 q 704 156 750 233 q 580 33 658 78 q 403 -12 501 -12 m 403 571 q 282 538 336 571 q 196 450 228 506 q 164 328 164 394 q 196 206 164 261 q 282 119 228 151 q 403 86 336 86 q 524 119 469 86 q 610 206 578 151 q 642 328 642 261 q 610 450 642 394 q 524 538 578 506 q 403 571 469 571 m 194 744 l 194 833 q 224 933 194 897 q 308 968 254 968 q 369 953 344 968 q 410 918 393 939 q 440 876 428 897 q 465 841 453 856 q 492 826 476 826 q 516 838 508 826 q 524 875 524 850 l 524 964 l 611 964 l 611 875 q 581 776 611 811 q 497 740 551 740 q 437 755 461 740 q 396 790 413 769 q 366 832 379 811 q 341 867 353 853 q 314 882 329 882 q 282 833 282 882 l 282 744 l 194 744 z "},"ŏ":{"ha":806,"x_min":56,"x_max":750,"o":"m 403 -12 q 226 33 306 -12 q 101 155 147 78 q 56 328 56 232 q 101 501 56 424 q 226 624 147 579 q 403 669 306 669 q 580 624 501 669 q 704 501 658 579 q 750 328 750 424 q 704 156 750 233 q 580 33 658 78 q 403 -12 501 -12 m 403 571 q 282 538 336 571 q 196 450 228 506 q 164 328 164 394 q 196 206 164 261 q 282 119 228 151 q 403 86 336 86 q 524 119 469 86 q 610 206 578 151 q 642 328 642 261 q 610 450 642 394 q 524 538 578 506 q 403 571 469 571 m 403 828 q 486 853 456 828 q 517 929 517 879 l 517 964 l 606 964 l 606 929 q 550 789 606 838 q 403 740 494 740 q 255 789 310 740 q 200 929 200 838 l 200 964 l 289 964 l 289 929 q 319 853 289 879 q 403 828 349 828 z "},"ő":{"ha":806,"x_min":56,"x_max":750,"o":"m 403 -12 q 226 33 306 -12 q 101 155 147 78 q 56 328 56 232 q 101 501 56 424 q 226 624 147 579 q 403 669 306 669 q 580 624 501 669 q 704 501 658 579 q 750 328 750 424 q 704 156 750 233 q 580 33 658 78 q 403 -12 501 -12 m 403 571 q 282 538 336 571 q 196 450 228 506 q 164 328 164 394 q 196 206 164 261 q 282 119 228 151 q 403 86 336 86 q 524 119 469 86 q 610 206 578 151 q 642 328 642 261 q 610 450 642 394 q 524 538 578 506 q 403 571 469 571 m 449 744 l 539 964 l 656 964 l 546 744 l 449 744 m 231 744 l 307 964 l 417 964 l 326 744 l 231 744 z "},"ō":{"ha":806,"x_min":56,"x_max":750,"o":"m 403 -12 q 226 33 306 -12 q 101 155 147 78 q 56 328 56 232 q 101 501 56 424 q 226 624 147 579 q 403 669 306 669 q 580 624 501 669 q 704 501 658 579 q 750 328 750 424 q 704 156 750 233 q 580 33 658 78 q 403 -12 501 -12 m 403 571 q 282 538 336 571 q 196 450 228 506 q 164 328 164 394 q 196 206 164 261 q 282 119 228 151 q 403 86 336 86 q 524 119 469 86 q 610 206 578 151 q 642 328 642 261 q 610 450 642 394 q 524 538 578 506 q 403 571 469 571 m 229 888 l 576 888 l 576 790 l 229 790 l 229 888 z "},"ŕ":{"ha":451,"x_min":86,"x_max":407,"o":"m 86 0 l 86 657 l 186 657 l 186 485 l 132 389 q 199 597 132 524 q 390 669 267 669 l 407 669 l 407 565 l 375 565 q 240 519 285 565 q 194 381 194 474 l 194 0 l 86 0 m 188 744 l 285 964 l 404 964 l 285 744 l 188 744 z "},"ř":{"ha":451,"x_min":17,"x_max":439,"o":"m 86 0 l 86 657 l 186 657 l 186 485 l 132 389 q 199 597 132 524 q 390 669 267 669 l 407 669 l 407 565 l 375 565 q 240 519 285 565 q 194 381 194 474 l 194 0 l 86 0 m 171 744 l 17 964 l 129 964 l 254 782 l 204 782 l 328 964 l 439 964 l 286 744 l 171 744 z "},"ŗ":{"ha":451,"x_min":68,"x_max":407,"o":"m 86 0 l 86 657 l 186 657 l 186 485 l 132 389 q 199 597 132 524 q 390 669 267 669 l 407 669 l 407 565 l 375 565 q 240 519 285 565 q 194 381 194 474 l 194 0 l 86 0 m 78 -312 q 113 -231 99 -271 q 133 -157 128 -192 l 176 -206 q 139 -219 165 -219 q 88 -201 108 -219 q 68 -151 68 -182 q 88 -101 68 -121 q 139 -82 108 -82 q 190 -102 171 -82 q 210 -156 210 -122 q 194 -227 210 -186 q 151 -312 179 -268 l 78 -312 z "},"š":{"ha":574,"x_min":56,"x_max":525,"o":"m 65 0 l 65 97 l 306 97 q 389 121 360 97 q 418 186 418 144 q 392 244 418 224 q 324 276 365 264 q 237 299 283 288 q 149 331 190 311 q 82 387 108 351 q 56 483 56 422 q 110 608 56 558 q 257 657 164 657 l 493 657 l 493 560 l 257 560 q 186 540 210 560 q 163 486 163 519 q 189 432 163 451 q 256 400 215 413 q 344 376 297 388 q 431 343 390 364 q 499 285 472 322 q 525 186 525 249 q 467 52 525 104 q 310 0 410 0 l 65 0 m 228 744 l 74 964 l 186 964 l 311 782 l 261 782 l 385 964 l 496 964 l 343 744 l 228 744 z "},"ś":{"ha":574,"x_min":56,"x_max":525,"o":"m 65 0 l 65 97 l 306 97 q 389 121 360 97 q 418 186 418 144 q 392 244 418 224 q 324 276 365 264 q 237 299 283 288 q 149 331 190 311 q 82 387 108 351 q 56 483 56 422 q 110 608 56 558 q 257 657 164 657 l 493 657 l 493 560 l 257 560 q 186 540 210 560 q 163 486 163 519 q 189 432 163 451 q 256 400 215 413 q 344 376 297 388 q 431 343 390 364 q 499 285 472 322 q 525 186 525 249 q 467 52 525 104 q 310 0 410 0 l 65 0 m 235 744 l 332 964 l 451 964 l 332 744 l 235 744 z "},"ş":{"ha":574,"x_min":56,"x_max":525,"o":"m 65 0 l 65 97 l 306 97 q 389 121 360 97 q 418 186 418 144 q 392 244 418 224 q 324 276 365 264 q 237 299 283 288 q 149 331 190 311 q 82 387 108 351 q 56 483 56 422 q 110 608 56 558 q 257 657 164 657 l 493 657 l 493 560 l 257 560 q 186 540 210 560 q 163 486 163 519 q 189 432 163 451 q 256 400 215 413 q 344 376 297 388 q 431 343 390 364 q 499 285 472 322 q 525 186 525 249 q 467 52 525 104 q 310 0 410 0 l 333 44 l 333 -189 l 225 -189 l 239 44 l 282 0 l 65 0 z "},"ŝ":{"ha":574,"x_min":56,"x_max":525,"o":"m 65 0 l 65 97 l 306 97 q 389 121 360 97 q 418 186 418 144 q 392 244 418 224 q 324 276 365 264 q 237 299 283 288 q 149 331 190 311 q 82 387 108 351 q 56 483 56 422 q 110 608 56 558 q 257 657 164 657 l 493 657 l 493 560 l 257 560 q 186 540 210 560 q 163 486 163 519 q 189 432 163 451 q 256 400 215 413 q 344 376 297 388 q 431 343 390 364 q 499 285 472 322 q 525 186 525 249 q 467 52 525 104 q 310 0 410 0 l 65 0 m 335 964 l 489 744 l 376 744 l 251 926 l 301 926 l 178 744 l 67 744 l 219 964 l 335 964 z "},"ș":{"ha":574,"x_min":56,"x_max":525,"o":"m 65 0 l 65 97 l 306 97 q 389 121 360 97 q 418 186 418 144 q 392 244 418 224 q 324 276 365 264 q 237 299 283 288 q 149 331 190 311 q 82 387 108 351 q 56 483 56 422 q 110 608 56 558 q 257 657 164 657 l 493 657 l 493 560 l 257 560 q 186 540 210 560 q 163 486 163 519 q 189 432 163 451 q 256 400 215 413 q 344 376 297 388 q 431 343 390 364 q 499 285 472 322 q 525 186 525 249 q 467 52 525 104 q 310 0 410 0 l 65 0 m 232 -312 q 267 -231 253 -271 q 288 -157 282 -192 l 331 -206 q 293 -219 319 -219 q 242 -201 263 -219 q 222 -151 222 -182 q 242 -101 222 -121 q 293 -82 263 -82 q 344 -102 325 -82 q 364 -156 364 -122 q 349 -227 364 -186 q 306 -312 333 -268 l 232 -312 z "},"ŧ":{"ha":479,"x_min":7,"x_max":426,"o":"m 7 383 l 392 383 l 392 292 l 7 292 l 7 383 m 424 560 l 182 560 l 182 657 l 424 657 l 424 560 m 329 0 q 161 56 218 0 q 104 221 104 111 l 104 813 l 211 840 l 211 221 q 241 127 211 157 q 332 97 271 97 l 426 97 l 426 0 l 329 0 z "},"ť":{"ha":451,"x_min":76,"x_max":399,"o":"m 396 560 l 154 560 l 154 657 l 396 657 l 396 560 m 301 0 q 133 56 190 0 q 76 221 76 111 l 76 813 l 183 840 l 183 221 q 213 127 183 157 q 304 97 243 97 l 399 97 l 399 0 l 301 0 m 289 765 l 289 1039 l 399 1039 l 378 765 l 289 765 z "},"ţ":{"ha":451,"x_min":76,"x_max":399,"o":"m 396 560 l 154 560 l 154 657 l 396 657 l 396 560 m 301 0 q 133 56 190 0 q 76 221 76 111 l 76 813 l 183 840 l 183 221 q 213 127 183 157 q 304 97 243 97 l 399 97 l 399 0 l 301 0 m 163 -312 q 198 -231 183 -271 q 218 -157 213 -192 l 261 -206 q 224 -219 250 -219 q 173 -201 193 -219 q 153 -151 153 -182 q 173 -101 153 -121 q 224 -82 193 -82 q 275 -102 256 -82 q 294 -156 294 -122 q 279 -227 294 -186 q 236 -312 264 -268 l 163 -312 z "},"ț":{"ha":451,"x_min":76,"x_max":399,"o":"m 396 560 l 154 560 l 154 657 l 396 657 l 396 560 m 301 0 q 133 56 190 0 q 76 221 76 111 l 76 813 l 183 840 l 183 221 q 213 127 183 157 q 304 97 243 97 l 399 97 l 399 0 l 301 0 m 163 -312 q 198 -231 183 -271 q 218 -157 213 -192 l 261 -206 q 224 -219 250 -219 q 173 -201 193 -219 q 153 -151 153 -182 q 173 -101 153 -121 q 224 -82 193 -82 q 275 -102 256 -82 q 294 -156 294 -122 q 279 -227 294 -186 q 236 -312 264 -268 l 163 -312 z "},"ú":{"ha":689,"x_min":83,"x_max":606,"o":"m 83 657 l 192 657 l 192 253 q 233 131 192 176 q 344 86 274 86 q 456 131 415 86 q 497 253 497 176 l 497 657 l 606 657 l 606 260 q 535 60 606 132 q 344 -12 464 -12 q 154 60 225 -12 q 83 260 83 132 l 83 657 m 294 744 l 392 964 l 511 964 l 392 744 l 294 744 z "},"û":{"ha":689,"x_min":83,"x_max":606,"o":"m 83 657 l 192 657 l 192 253 q 233 131 192 176 q 344 86 274 86 q 456 131 415 86 q 497 253 497 176 l 497 657 l 606 657 l 606 260 q 535 60 606 132 q 344 -12 464 -12 q 154 60 225 -12 q 83 260 83 132 l 83 657 m 401 964 l 556 744 l 443 744 l 318 926 l 368 926 l 244 744 l 133 744 l 286 964 l 401 964 z "},"ü":{"ha":689,"x_min":83,"x_max":606,"o":"m 83 657 l 192 657 l 192 253 q 233 131 192 176 q 344 86 274 86 q 456 131 415 86 q 497 253 497 176 l 497 657 l 606 657 l 606 260 q 535 60 606 132 q 344 -12 464 -12 q 154 60 225 -12 q 83 260 83 132 l 83 657 m 221 776 q 170 796 190 776 q 150 846 150 815 q 170 896 150 876 q 221 915 190 915 q 272 896 253 915 q 292 846 292 876 q 272 796 292 815 q 221 776 253 776 m 468 776 q 417 796 438 776 q 397 846 397 815 q 417 896 397 876 q 468 915 438 915 q 519 896 500 915 q 539 846 539 876 q 519 796 539 815 q 468 776 500 776 z "},"ù":{"ha":689,"x_min":83,"x_max":606,"o":"m 83 657 l 192 657 l 192 253 q 233 131 192 176 q 344 86 274 86 q 456 131 415 86 q 497 253 497 176 l 497 657 l 606 657 l 606 260 q 535 60 606 132 q 344 -12 464 -12 q 154 60 225 -12 q 83 260 83 132 l 83 657 m 392 744 l 294 744 l 168 964 l 288 964 l 392 744 z "},"ŭ":{"ha":689,"x_min":83,"x_max":606,"o":"m 83 657 l 192 657 l 192 253 q 233 131 192 176 q 344 86 274 86 q 456 131 415 86 q 497 253 497 176 l 497 657 l 606 657 l 606 260 q 535 60 606 132 q 344 -12 464 -12 q 154 60 225 -12 q 83 260 83 132 l 83 657 m 344 828 q 428 853 397 828 q 458 929 458 879 l 458 964 l 547 964 l 547 929 q 492 789 547 838 q 344 740 436 740 q 197 789 251 740 q 142 929 142 838 l 142 964 l 231 964 l 231 929 q 260 853 231 879 q 344 828 290 828 z "},"ű":{"ha":689,"x_min":83,"x_max":606,"o":"m 83 657 l 192 657 l 192 253 q 233 131 192 176 q 344 86 274 86 q 456 131 415 86 q 497 253 497 176 l 497 657 l 606 657 l 606 260 q 535 60 606 132 q 344 -12 464 -12 q 154 60 225 -12 q 83 260 83 132 l 83 657 m 390 744 l 481 964 l 597 964 l 488 744 l 390 744 m 172 744 l 249 964 l 358 964 l 268 744 l 172 744 z "},"ū":{"ha":689,"x_min":83,"x_max":606,"o":"m 83 657 l 192 657 l 192 253 q 233 131 192 176 q 344 86 274 86 q 456 131 415 86 q 497 253 497 176 l 497 657 l 606 657 l 606 260 q 535 60 606 132 q 344 -12 464 -12 q 154 60 225 -12 q 83 260 83 132 l 83 657 m 171 888 l 518 888 l 518 790 l 171 790 l 171 888 z "},"ų":{"ha":689,"x_min":83,"x_max":606,"o":"m 435 -231 l 388 -231 q 283 -199 322 -231 q 243 -112 243 -167 q 258 -58 243 -83 q 301 -8 272 -32 q 369 35 329 15 l 394 -6 q 372 -10 385 -8 q 344 -12 360 -12 q 154 60 225 -12 q 83 260 83 132 l 83 657 l 192 657 l 192 253 q 233 131 192 176 q 344 86 274 86 q 456 131 415 86 q 497 253 497 176 l 497 657 l 606 657 l 606 260 q 560 91 606 151 q 425 -10 515 31 q 358 -51 378 -31 q 338 -97 338 -71 q 352 -134 338 -121 q 393 -147 367 -147 l 435 -147 l 435 -231 z "},"ů":{"ha":689,"x_min":83,"x_max":606,"o":"m 83 657 l 192 657 l 192 253 q 233 131 192 176 q 344 86 274 86 q 456 131 415 86 q 497 253 497 176 l 497 657 l 606 657 l 606 260 q 535 60 606 132 q 344 -12 464 -12 q 154 60 225 -12 q 83 260 83 132 l 83 657 m 344 821 q 401 841 381 821 q 421 894 421 861 q 401 948 421 928 q 344 968 381 968 q 289 948 310 968 q 268 894 268 928 q 289 841 268 861 q 344 821 310 821 m 344 738 q 259 758 297 738 q 199 815 221 779 q 178 894 178 850 q 225 1006 178 961 q 344 1051 272 1051 q 431 1031 393 1051 q 490 974 468 1010 q 511 894 511 939 q 464 783 511 828 q 344 738 417 738 z "},"ũ":{"ha":689,"x_min":83,"x_max":606,"o":"m 83 657 l 192 657 l 192 253 q 233 131 192 176 q 344 86 274 86 q 456 131 415 86 q 497 253 497 176 l 497 657 l 606 657 l 606 260 q 535 60 606 132 q 344 -12 464 -12 q 154 60 225 -12 q 83 260 83 132 l 83 657 m 136 744 l 136 833 q 166 933 136 897 q 250 968 196 968 q 310 953 286 968 q 352 918 335 939 q 382 876 369 897 q 406 841 394 856 q 433 826 418 826 q 458 838 450 826 q 465 875 465 850 l 465 964 l 553 964 l 553 875 q 523 776 553 811 q 439 740 493 740 q 378 755 403 740 q 338 790 354 769 q 308 832 321 811 q 283 867 294 853 q 256 882 271 882 q 224 833 224 882 l 224 744 l 136 744 z "},"ẃ":{"ha":1036,"x_min":86,"x_max":988,"o":"m 86 0 l 86 657 l 194 657 l 194 104 l 240 104 q 410 163 347 104 q 472 338 472 224 l 472 657 l 579 657 l 579 104 l 610 104 q 772 151 719 104 q 838 310 824 199 l 879 657 l 988 657 l 946 310 q 847 74 926 147 q 614 0 768 0 l 482 0 l 482 97 q 408 35 456 57 q 325 8 372 17 q 213 0 278 0 l 86 0 m 476 744 l 574 964 l 693 964 l 574 744 l 476 744 z "},"ŵ":{"ha":1036,"x_min":86,"x_max":988,"o":"m 86 0 l 86 657 l 194 657 l 194 104 l 240 104 q 410 163 347 104 q 472 338 472 224 l 472 657 l 579 657 l 579 104 l 610 104 q 772 151 719 104 q 838 310 824 199 l 879 657 l 988 657 l 946 310 q 847 74 926 147 q 614 0 768 0 l 482 0 l 482 97 q 408 35 456 57 q 325 8 372 17 q 213 0 278 0 l 86 0 m 586 964 l 740 744 l 628 744 l 503 926 l 553 926 l 429 744 l 318 744 l 471 964 l 586 964 z "},"ẅ":{"ha":1036,"x_min":86,"x_max":988,"o":"m 86 0 l 86 657 l 194 657 l 194 104 l 240 104 q 410 163 347 104 q 472 338 472 224 l 472 657 l 579 657 l 579 104 l 610 104 q 772 151 719 104 q 838 310 824 199 l 879 657 l 988 657 l 946 310 q 847 74 926 147 q 614 0 768 0 l 482 0 l 482 97 q 408 35 456 57 q 325 8 372 17 q 213 0 278 0 l 86 0 m 404 776 q 353 796 374 776 q 333 846 333 815 q 353 896 333 876 q 404 915 374 915 q 456 896 436 915 q 475 846 475 876 q 456 796 475 815 q 404 776 436 776 m 651 776 q 601 796 621 776 q 581 846 581 815 q 601 896 581 876 q 651 915 621 915 q 703 896 683 915 q 722 846 722 876 q 703 796 722 815 q 651 776 683 776 z "},"ẁ":{"ha":1036,"x_min":86,"x_max":988,"o":"m 86 0 l 86 657 l 194 657 l 194 104 l 240 104 q 410 163 347 104 q 472 338 472 224 l 472 657 l 579 657 l 579 104 l 610 104 q 772 151 719 104 q 838 310 824 199 l 879 657 l 988 657 l 946 310 q 847 74 926 147 q 614 0 768 0 l 482 0 l 482 97 q 408 35 456 57 q 325 8 372 17 q 213 0 278 0 l 86 0 m 568 744 l 471 744 l 344 964 l 464 964 l 568 744 z "},"ý":{"ha":686,"x_min":63,"x_max":651,"o":"m 63 349 q 73 497 63 421 q 106 657 83 572 l 215 657 q 181 483 190 551 q 171 349 171 414 q 236 160 171 226 q 411 94 301 94 l 431 94 l 431 -7 l 411 -7 q 229 35 308 -7 q 106 156 150 76 q 63 349 63 236 m 297 -208 l 540 657 l 651 657 l 413 -208 l 297 -208 m 335 744 l 432 964 l 551 964 l 432 744 l 335 744 z "},"ÿ":{"ha":686,"x_min":63,"x_max":651,"o":"m 63 349 q 73 497 63 421 q 106 657 83 572 l 215 657 q 181 483 190 551 q 171 349 171 414 q 236 160 171 226 q 411 94 301 94 l 431 94 l 431 -7 l 411 -7 q 229 35 308 -7 q 106 156 150 76 q 63 349 63 236 m 297 -208 l 540 657 l 651 657 l 413 -208 l 297 -208 m 265 776 q 215 796 235 776 q 194 846 194 815 q 215 896 194 876 q 265 915 235 915 q 317 896 297 915 q 336 846 336 876 q 317 796 336 815 q 265 776 297 776 m 513 776 q 462 796 482 776 q 442 846 442 815 q 462 896 442 876 q 513 915 482 915 q 564 896 544 915 q 583 846 583 876 q 564 796 583 815 q 513 776 544 776 z "},"ŷ":{"ha":686,"x_min":63,"x_max":651,"o":"m 63 349 q 73 497 63 421 q 106 657 83 572 l 215 657 q 181 483 190 551 q 171 349 171 414 q 236 160 171 226 q 411 94 301 94 l 431 94 l 431 -7 l 411 -7 q 229 35 308 -7 q 106 156 150 76 q 63 349 63 236 m 297 -208 l 540 657 l 651 657 l 413 -208 l 297 -208 m 436 964 l 590 744 l 478 744 l 353 926 l 403 926 l 279 744 l 168 744 l 321 964 l 436 964 z "},"ỳ":{"ha":686,"x_min":63,"x_max":651,"o":"m 63 349 q 73 497 63 421 q 106 657 83 572 l 215 657 q 181 483 190 551 q 171 349 171 414 q 236 160 171 226 q 411 94 301 94 l 431 94 l 431 -7 l 411 -7 q 229 35 308 -7 q 106 156 150 76 q 63 349 63 236 m 297 -208 l 540 657 l 651 657 l 413 -208 l 297 -208 m 428 744 l 331 744 l 204 964 l 324 964 l 428 744 z "},"ž":{"ha":572,"x_min":42,"x_max":528,"o":"m 524 0 l 42 0 l 400 638 l 410 560 l 43 560 l 43 657 l 528 657 l 171 19 l 167 97 l 524 97 l 524 0 m 242 744 l 88 964 l 200 964 l 325 782 l 275 782 l 399 964 l 510 964 l 357 744 l 242 744 z "},"ź":{"ha":572,"x_min":42,"x_max":528,"o":"m 524 0 l 42 0 l 400 638 l 410 560 l 43 560 l 43 657 l 528 657 l 171 19 l 167 97 l 524 97 l 524 0 m 229 744 l 326 964 l 446 964 l 326 744 l 229 744 z "},"ż":{"ha":572,"x_min":42,"x_max":528,"o":"m 524 0 l 42 0 l 400 638 l 410 560 l 43 560 l 43 657 l 528 657 l 171 19 l 167 97 l 524 97 l 524 0 m 299 776 q 242 798 264 776 q 221 853 221 819 q 242 908 221 886 q 299 929 264 929 q 355 908 333 929 q 376 853 376 886 q 355 798 376 819 q 299 776 333 776 z "},"´":{"ha":722,"x_min":310,"x_max":526,"o":"m 310 744 l 407 964 l 526 964 l 407 744 l 310 744 z "},"`":{"ha":722,"x_min":183,"x_max":407,"o":"m 407 744 l 310 744 l 183 964 l 303 964 l 407 744 z "},"ˆ":{"ha":722,"x_min":150,"x_max":572,"o":"m 418 964 l 572 744 l 460 744 l 335 926 l 385 926 l 261 744 l 150 744 l 303 964 l 418 964 z "},"ˇ":{"ha":722,"x_min":150,"x_max":572,"o":"m 304 744 l 150 964 l 263 964 l 388 782 l 338 782 l 461 964 l 572 964 l 419 744 l 304 744 z "},"˜":{"ha":722,"x_min":153,"x_max":569,"o":"m 153 744 l 153 833 q 183 933 153 897 q 267 968 213 968 q 327 953 303 968 q 369 918 351 939 q 399 876 386 897 q 423 841 411 856 q 450 826 435 826 q 474 838 467 826 q 482 875 482 850 l 482 964 l 569 964 l 569 875 q 540 776 569 811 q 456 740 510 740 q 395 755 419 740 q 354 790 371 769 q 324 832 338 811 q 299 867 311 853 q 272 882 288 882 q 240 833 240 882 l 240 744 l 153 744 z "},"¨":{"ha":722,"x_min":167,"x_max":556,"o":"m 238 776 q 187 796 207 776 q 167 846 167 815 q 187 896 167 876 q 238 915 207 915 q 289 896 269 915 q 308 846 308 876 q 289 796 308 815 q 238 776 269 776 m 485 776 q 434 796 454 776 q 414 846 414 815 q 434 896 414 876 q 485 915 454 915 q 536 896 517 915 q 556 846 556 876 q 536 796 556 815 q 485 776 517 776 z "},"˚":{"ha":722,"x_min":194,"x_max":528,"o":"m 361 821 q 417 841 397 821 q 438 894 438 861 q 417 948 438 928 q 361 968 397 968 q 306 948 326 968 q 285 894 285 928 q 306 841 285 861 q 361 821 326 821 m 361 738 q 276 758 314 738 q 216 815 238 779 q 194 894 194 850 q 242 1006 194 961 q 361 1051 289 1051 q 447 1031 410 1051 q 506 974 485 1010 q 528 894 528 939 q 481 783 528 828 q 361 738 433 738 z "},"¸":{"ha":722,"x_min":308,"x_max":417,"o":"m 417 44 l 417 -189 l 308 -189 l 322 44 l 417 44 z "},"˝":{"ha":722,"x_min":189,"x_max":614,"o":"m 407 744 l 497 964 l 614 964 l 504 744 l 407 744 m 189 744 l 265 964 l 375 964 l 285 744 l 189 744 z "},"˘":{"ha":722,"x_min":158,"x_max":564,"o":"m 361 828 q 444 853 414 828 q 475 929 475 879 l 475 964 l 564 964 l 564 929 q 508 789 564 838 q 361 740 453 740 q 213 789 268 740 q 158 929 158 838 l 158 964 l 247 964 l 247 929 q 277 853 247 879 q 361 828 307 828 z "},"¯":{"ha":722,"x_min":188,"x_max":535,"o":"m 188 888 l 535 888 l 535 790 l 188 790 l 188 888 z "},"˙":{"ha":722,"x_min":283,"x_max":439,"o":"m 361 776 q 305 798 326 776 q 283 853 283 819 q 305 908 283 886 q 361 929 326 929 q 417 908 396 929 q 439 853 439 886 q 417 798 439 819 q 361 776 396 776 z "},"·":{"ha":722,"x_min":290,"x_max":432,"o":"m 361 332 q 310 351 331 332 q 290 401 290 371 q 310 451 290 432 q 361 471 331 471 q 413 451 393 471 q 432 401 432 432 q 413 351 432 371 q 361 332 393 332 z "},"˛":{"ha":722,"x_min":297,"x_max":489,"o":"m 489 -231 l 442 -231 q 337 -199 376 -231 q 297 -112 297 -167 q 312 -58 297 -83 q 355 -8 326 -32 q 424 35 383 15 l 489 0 q 417 -51 442 -25 q 392 -104 392 -78 q 406 -136 392 -125 q 447 -147 421 -147 l 489 -147 l 489 -231 z "},"":{"ha":722,"x_min":286,"x_max":428,"o":"m 296 -312 q 331 -231 317 -271 q 351 -157 346 -192 l 394 -206 q 357 -219 383 -219 q 306 -201 326 -219 q 286 -151 286 -182 q 306 -101 286 -121 q 357 -82 326 -82 q 408 -102 389 -82 q 428 -156 428 -122 q 413 -227 428 -186 q 369 -312 397 -268 l 296 -312 z "},".":{"ha":267,"x_min":63,"x_max":204,"o":"m 133 -12 q 83 7 103 -12 q 63 57 63 26 q 83 107 63 88 q 133 126 103 126 q 185 107 165 126 q 204 57 204 88 q 185 7 204 26 q 133 -12 165 -12 z "},",":{"ha":267,"x_min":53,"x_max":204,"o":"m 53 -175 q 98 -56 81 -107 q 122 36 115 -6 l 168 0 q 154 -9 164 -6 q 133 -12 144 -12 q 83 7 103 -12 q 63 57 63 26 q 83 107 63 88 q 133 126 103 126 q 185 106 165 126 q 204 54 204 86 q 183 -40 204 22 q 129 -175 163 -101 l 53 -175 z "},":":{"ha":267,"x_min":63,"x_max":204,"o":"m 133 -12 q 83 7 103 -12 q 63 57 63 26 q 83 107 63 88 q 133 126 103 126 q 185 107 165 126 q 204 57 204 88 q 185 7 204 26 q 133 -12 165 -12 m 133 475 q 83 494 103 475 q 63 544 63 514 q 83 594 63 575 q 133 614 103 614 q 185 594 165 614 q 204 544 204 575 q 185 494 204 514 q 133 475 165 475 z "},";":{"ha":267,"x_min":53,"x_max":204,"o":"m 53 -175 q 98 -56 81 -107 q 122 36 115 -6 l 168 0 q 154 -9 164 -6 q 133 -12 144 -12 q 83 7 103 -12 q 63 57 63 26 q 83 107 63 88 q 133 126 103 126 q 185 106 165 126 q 204 54 204 86 q 183 -40 204 22 q 129 -175 163 -101 l 53 -175 m 133 475 q 83 494 103 475 q 63 544 63 514 q 83 594 63 575 q 133 614 103 614 q 185 594 165 614 q 204 544 204 575 q 185 494 204 514 q 133 475 165 475 z "},"…":{"ha":833,"x_min":63,"x_max":771,"o":"m 133 -12 q 83 7 103 -12 q 63 57 63 26 q 83 107 63 88 q 133 126 103 126 q 185 107 165 126 q 204 57 204 88 q 185 7 204 26 q 133 -12 165 -12 m 415 -12 q 365 7 385 -12 q 344 57 344 26 q 365 107 344 88 q 415 126 385 126 q 467 107 447 126 q 486 57 486 88 q 467 7 486 26 q 415 -12 447 -12 m 700 -12 q 649 7 669 -12 q 629 57 629 26 q 649 107 629 88 q 700 126 669 126 q 751 107 732 126 q 771 57 771 88 q 751 7 771 26 q 700 -12 732 -12 z "},"?":{"ha":710,"x_min":42,"x_max":661,"o":"m 361 -12 q 310 7 331 -12 q 290 57 290 26 q 310 107 290 88 q 361 126 331 126 q 413 107 393 126 q 432 57 432 88 q 413 7 432 26 q 361 -12 393 -12 m 313 258 l 311 442 l 351 442 q 453 467 408 442 q 526 534 499 492 q 553 629 553 576 q 526 724 553 682 q 453 792 499 767 q 351 817 408 817 q 248 791 293 817 q 176 721 203 765 q 150 618 150 676 l 42 618 q 81 773 42 706 q 191 878 121 840 q 351 915 261 915 q 510 878 440 915 q 621 777 581 842 q 661 629 661 713 q 622 484 661 547 q 514 386 583 421 q 351 351 444 351 l 414 404 l 410 258 l 313 258 z "},"!":{"ha":294,"x_min":76,"x_max":218,"o":"m 92 903 l 203 903 l 196 258 l 99 258 l 92 903 m 147 -12 q 97 7 117 -12 q 76 57 76 26 q 97 107 76 88 q 147 126 117 126 q 199 107 179 126 q 218 57 218 88 q 199 7 218 26 q 147 -12 179 -12 z "},"¿":{"ha":710,"x_min":49,"x_max":668,"o":"m 349 669 q 399 650 379 669 q 419 600 419 631 q 400 550 419 569 q 349 531 381 531 q 298 550 318 531 q 278 600 278 569 q 298 650 278 631 q 349 669 318 669 m 397 399 l 399 215 l 358 215 q 257 190 303 215 q 184 123 211 165 q 157 28 157 81 q 184 -67 157 -25 q 257 -135 211 -110 q 358 -160 303 -160 q 463 -134 417 -160 q 534 -63 508 -108 q 560 39 560 -18 l 668 39 q 628 -115 668 -49 q 519 -220 589 -182 q 358 -258 450 -258 q 199 -222 269 -258 q 89 -120 129 -185 q 49 28 49 -56 q 88 174 49 111 q 197 271 126 236 q 358 306 267 306 l 296 253 l 300 399 l 397 399 z "},"¡":{"ha":294,"x_min":76,"x_max":218,"o":"m 203 -246 l 92 -246 l 99 399 l 196 399 l 203 -246 m 147 669 q 199 650 179 669 q 218 600 218 631 q 199 550 218 569 q 147 531 179 531 q 97 550 117 531 q 76 600 76 569 q 97 650 76 631 q 147 669 117 669 z "},"(":{"ha":463,"x_min":58,"x_max":435,"o":"m 435 -232 l 413 -224 q 224 -101 303 -183 q 101 94 144 -19 q 58 340 58 207 q 101 588 58 475 q 224 782 144 700 q 413 904 303 864 l 435 913 l 435 813 l 417 804 q 233 626 300 749 q 167 340 167 504 q 233 55 167 176 q 417 -124 300 -67 l 435 -132 l 435 -232 z "},")":{"ha":463,"x_min":28,"x_max":404,"o":"m 28 -232 l 28 -132 l 46 -124 q 229 55 163 -67 q 296 340 296 176 q 229 626 296 504 q 46 804 163 749 l 28 813 l 28 913 l 50 904 q 239 782 160 864 q 361 588 318 700 q 404 340 404 475 q 361 94 404 207 q 239 -101 318 -19 q 50 -224 160 -183 l 28 -232 z "},"{":{"ha":525,"x_min":35,"x_max":497,"o":"m 497 -233 l 417 -233 q 243 -174 303 -233 q 183 -4 183 -115 l 183 206 q 97 296 183 296 l 35 296 l 35 392 l 97 392 q 183 482 183 392 l 183 692 q 243 861 183 803 q 417 919 303 919 l 497 919 l 497 828 l 432 828 q 293 692 293 828 l 293 497 q 264 392 293 433 q 174 336 235 351 l 174 351 q 264 296 235 338 q 293 190 293 254 l 293 -4 q 432 -142 293 -142 l 497 -142 l 497 -233 z "},"}":{"ha":525,"x_min":28,"x_max":490,"o":"m 28 -233 l 28 -142 l 93 -142 q 232 -4 232 -142 l 232 190 q 262 296 232 254 q 351 351 292 338 l 351 336 q 262 392 292 351 q 232 497 232 433 l 232 692 q 93 828 232 828 l 28 828 l 28 919 l 108 919 q 282 861 222 919 q 342 692 342 803 l 342 482 q 428 392 342 392 l 490 392 l 490 296 l 428 296 q 342 206 342 296 l 342 -4 q 282 -174 342 -115 q 108 -233 222 -233 l 28 -233 z "},"[":{"ha":446,"x_min":104,"x_max":418,"o":"m 104 -233 l 104 919 l 418 919 l 418 828 l 214 828 l 214 -142 l 418 -142 l 418 -233 l 104 -233 z "},"]":{"ha":446,"x_min":28,"x_max":342,"o":"m 342 -233 l 28 -233 l 28 -142 l 232 -142 l 232 828 l 28 828 l 28 919 l 342 919 l 342 -233 z "},"/":{"ha":425,"x_min":35,"x_max":390,"o":"m 279 903 l 390 903 l 146 -208 l 35 -208 l 279 903 z "},"\\":{"ha":425,"x_min":35,"x_max":390,"o":"m 390 -208 l 279 -208 l 35 903 l 146 903 l 390 -208 z "},"_":{"ha":694,"x_min":56,"x_max":639,"o":"m 56 -82 l 639 -82 l 639 -179 l 56 -179 l 56 -82 z "},"-":{"ha":556,"x_min":56,"x_max":500,"o":"m 56 390 l 500 390 l 500 294 l 56 294 l 56 390 z "},"­":{"ha":0,"x_min":0,"x_max":0,"o":""},"–":{"ha":722,"x_min":56,"x_max":667,"o":"m 56 393 l 667 393 l 667 292 l 56 292 l 56 393 z "},"—":{"ha":1417,"x_min":56,"x_max":1361,"o":"m 56 393 l 1361 393 l 1361 292 l 56 292 l 56 393 z "},"¦":{"ha":319,"x_min":104,"x_max":215,"o":"m 104 310 l 215 310 l 215 -208 l 104 -208 l 104 310 m 104 903 l 215 903 l 215 385 l 104 385 l 104 903 z "},"|":{"ha":319,"x_min":104,"x_max":215,"o":"m 104 903 l 215 903 l 215 -208 l 104 -208 l 104 903 z "},"«":{"ha":668,"x_min":35,"x_max":626,"o":"m 424 389 l 626 68 l 506 68 l 332 340 l 506 613 l 622 613 l 419 292 l 424 389 m 126 389 l 329 68 l 208 68 l 35 340 l 208 613 l 325 613 l 122 292 l 126 389 z "},"»":{"ha":668,"x_min":42,"x_max":633,"o":"m 244 292 l 42 613 l 163 613 l 336 340 l 163 68 l 46 68 l 249 389 l 244 292 m 542 292 l 339 613 l 460 613 l 633 340 l 460 68 l 343 68 l 546 389 l 542 292 z "},"‹":{"ha":371,"x_min":35,"x_max":329,"o":"m 126 389 l 329 68 l 208 68 l 35 340 l 208 613 l 325 613 l 122 292 l 126 389 z "},"›":{"ha":371,"x_min":42,"x_max":336,"o":"m 244 292 l 42 613 l 163 613 l 336 340 l 163 68 l 46 68 l 249 389 l 244 292 z "},"‚":{"ha":257,"x_min":53,"x_max":194,"o":"m 129 -147 l 54 -147 q 90 -47 76 -90 q 113 36 104 -3 l 158 0 q 144 -9 154 -6 q 124 -12 135 -12 q 73 7 93 -12 q 53 57 53 26 q 73 107 53 88 q 124 126 93 126 q 175 106 156 126 q 194 54 194 86 q 176 -28 194 26 q 129 -147 158 -82 z "},"„":{"ha":482,"x_min":53,"x_max":419,"o":"m 129 -147 l 54 -147 q 90 -47 76 -90 q 113 36 104 -3 l 158 0 q 144 -9 154 -6 q 124 -12 135 -12 q 73 7 93 -12 q 53 57 53 26 q 73 107 53 88 q 124 126 93 126 q 175 106 156 126 q 194 54 194 86 q 176 -28 194 26 q 129 -147 158 -82 m 354 -147 l 279 -147 q 315 -47 301 -90 q 338 36 329 -3 l 383 0 q 369 -9 379 -6 q 349 -12 360 -12 q 298 7 318 -12 q 278 57 278 26 q 298 107 278 88 q 349 126 318 126 q 400 106 381 126 q 419 54 419 86 q 401 -28 419 26 q 354 -147 383 -82 z "},"‘":{"ha":257,"x_min":63,"x_max":204,"o":"m 128 903 l 203 903 q 167 803 181 846 q 144 719 153 760 l 99 756 q 113 765 103 761 q 133 768 124 768 q 184 749 164 768 q 204 699 204 729 q 185 649 204 668 q 133 629 165 629 q 83 649 103 629 q 63 701 63 669 q 81 784 63 729 q 128 903 99 839 z "},"“":{"ha":482,"x_min":63,"x_max":429,"o":"m 128 903 l 203 903 q 167 803 181 846 q 144 719 153 760 l 99 756 q 113 765 103 761 q 133 768 124 768 q 184 749 164 768 q 204 699 204 729 q 185 649 204 668 q 133 629 165 629 q 83 649 103 629 q 63 701 63 669 q 81 784 63 729 q 128 903 99 839 m 353 903 l 428 903 q 392 803 406 846 q 369 719 378 760 l 324 756 q 338 765 328 761 q 358 768 349 768 q 409 749 389 768 q 429 699 429 729 q 410 649 429 668 q 358 629 390 629 q 308 649 328 629 q 288 701 288 669 q 306 784 288 729 q 353 903 324 839 z "},"’":{"ha":257,"x_min":53,"x_max":194,"o":"m 129 642 l 54 642 q 90 742 76 699 q 113 825 104 786 l 158 789 q 144 780 154 783 q 124 776 135 776 q 73 796 93 776 q 53 846 53 815 q 73 896 53 876 q 124 915 93 915 q 175 895 156 915 q 194 843 194 875 q 176 761 194 815 q 129 642 158 707 z "},"”":{"ha":482,"x_min":53,"x_max":419,"o":"m 129 642 l 54 642 q 90 742 76 699 q 113 825 104 786 l 158 789 q 144 780 154 783 q 124 776 135 776 q 73 796 93 776 q 53 846 53 815 q 73 896 53 876 q 124 915 93 915 q 175 895 156 915 q 194 843 194 875 q 176 761 194 815 q 129 642 158 707 m 354 642 l 279 642 q 315 742 301 699 q 338 825 329 786 l 383 789 q 369 780 379 783 q 349 776 360 776 q 298 796 318 776 q 278 846 278 815 q 298 896 278 876 q 349 915 318 915 q 400 895 381 915 q 419 843 419 875 q 401 761 419 815 q 354 642 383 707 z "},"'":{"ha":233,"x_min":63,"x_max":171,"o":"m 63 903 l 171 903 l 161 629 l 74 629 l 63 903 z "},"\"":{"ha":446,"x_min":63,"x_max":383,"o":"m 63 903 l 171 903 l 161 629 l 74 629 l 63 903 m 275 903 l 383 903 l 374 629 l 286 629 l 275 903 z "},"•":{"ha":318,"x_min":56,"x_max":263,"o":"m 158 513 q 233 484 204 513 q 263 413 263 456 q 233 340 263 369 q 158 310 204 310 q 85 339 114 310 q 56 411 56 368 q 85 483 56 454 q 158 513 114 513 z "},"&":{"ha":826,"x_min":47,"x_max":826,"o":"m 639 671 l 536 671 q 515 744 536 711 q 459 795 494 776 q 378 814 424 814 q 297 795 333 814 q 240 744 261 776 q 219 671 219 713 q 299 529 219 592 l 233 461 q 144 560 174 508 q 114 671 114 613 q 149 796 114 740 q 243 883 183 851 q 378 915 303 915 q 512 883 453 915 q 605 797 571 851 q 639 671 639 742 m 382 -12 q 211 27 288 -12 q 91 135 135 67 q 47 288 47 203 q 91 438 47 371 q 209 544 135 506 q 375 583 283 583 l 413 583 l 413 483 l 375 483 q 264 458 313 483 q 188 389 215 433 q 161 288 161 344 q 190 188 161 232 q 270 117 219 143 q 382 90 321 90 q 506 118 453 90 q 588 195 558 146 q 617 308 617 244 l 617 363 l 638 339 l 521 339 l 521 439 l 826 439 l 826 339 l 703 339 l 731 363 l 731 308 q 685 144 731 217 q 562 29 640 71 q 382 -12 483 -12 z "},"¶":{"ha":847,"x_min":42,"x_max":743,"o":"m 317 -208 l 317 121 q 297 233 317 186 q 245 317 276 281 q 179 385 214 353 q 113 453 144 418 q 62 535 82 489 q 42 644 42 581 q 79 782 42 724 q 182 872 117 840 q 331 903 247 903 l 743 903 l 743 -208 l 632 -208 l 632 828 l 671 799 l 386 799 l 428 828 l 428 -208 l 317 -208 z "},"†":{"ha":678,"x_min":35,"x_max":643,"o":"m 396 -208 l 282 -208 l 289 558 l 35 553 l 35 657 l 289 651 l 282 903 l 396 903 l 390 651 l 643 657 l 643 553 l 390 558 l 396 -208 z "},"‡":{"ha":678,"x_min":35,"x_max":643,"o":"m 396 -208 l 282 -208 l 289 43 l 35 39 l 35 143 l 288 138 l 288 558 l 35 553 l 35 657 l 289 651 l 282 903 l 396 903 l 390 651 l 643 657 l 643 553 l 392 558 l 392 138 l 643 143 l 643 39 l 390 43 l 396 -208 z "},"§":{"ha":671,"x_min":49,"x_max":622,"o":"m 92 -208 l 92 -104 l 365 -104 q 435 -87 410 -104 q 461 -39 461 -69 q 431 13 461 -7 q 354 50 401 33 q 255 86 307 67 q 156 137 203 106 q 78 217 108 168 q 49 340 49 265 q 85 464 49 406 q 184 559 121 522 q 328 596 247 596 q 367 593 350 596 q 401 586 385 590 l 306 544 q 150 628 193 585 q 107 733 107 672 q 133 822 107 783 q 205 881 158 860 q 314 903 251 903 l 549 903 l 549 799 l 314 799 q 244 781 269 799 q 218 732 218 764 q 247 677 218 699 q 322 638 276 656 q 420 601 368 621 q 518 550 472 581 q 593 472 564 519 q 622 349 622 424 q 586 224 622 283 q 487 129 550 165 q 342 93 424 93 q 306 98 324 93 q 274 110 288 103 l 364 149 q 526 67 479 111 q 572 -39 572 24 q 547 -127 572 -89 q 475 -187 521 -165 q 365 -208 429 -208 l 92 -208 m 340 169 q 427 194 388 169 q 490 259 467 218 q 514 349 514 300 q 488 438 514 400 q 421 498 463 476 q 331 519 379 519 q 244 495 283 519 q 181 430 204 471 q 157 340 157 389 q 183 251 157 290 q 250 191 208 213 q 340 169 292 169 z "},"*":{"ha":536,"x_min":11,"x_max":525,"o":"m 458 474 l 376 413 l 267 575 l 160 413 l 78 474 l 197 626 l 11 678 l 42 776 l 225 710 l 217 903 l 319 903 l 313 708 l 494 776 l 525 678 l 338 625 l 458 474 z "},"™":{"ha":1088,"x_min":28,"x_max":1004,"o":"m 376 821 l 28 821 l 28 903 l 376 903 l 376 821 m 249 372 l 156 372 l 156 856 l 249 856 l 249 372 m 450 903 l 494 903 q 669 853 597 903 q 753 724 742 804 l 701 724 q 785 853 714 804 q 960 903 856 903 l 1004 903 l 1004 372 l 915 372 l 915 839 l 958 815 l 929 815 q 814 774 856 815 q 772 661 772 733 l 772 539 l 683 539 l 683 661 q 642 774 683 733 q 525 815 600 815 l 497 815 l 539 839 l 539 372 l 450 372 l 450 903 z "},"®":{"ha":678,"x_min":35,"x_max":643,"o":"m 335 322 q 182 361 250 322 q 74 467 114 400 q 35 618 35 533 q 74 771 35 704 q 182 876 114 838 q 335 915 250 915 q 491 876 421 915 q 602 771 561 838 q 643 618 643 704 q 602 467 643 533 q 491 361 561 400 q 335 322 421 322 m 335 846 q 219 817 269 846 q 140 736 168 788 q 111 618 111 685 q 140 501 111 553 q 219 421 168 450 q 335 392 269 392 q 455 421 403 392 q 537 501 507 450 q 567 618 567 553 q 537 736 567 685 q 455 817 507 788 q 335 846 403 846 m 238 774 l 357 774 q 437 748 410 774 q 464 686 464 722 q 447 631 464 651 q 407 596 431 610 q 359 569 383 582 q 318 541 335 557 q 301 497 301 525 l 261 507 q 275 563 261 542 q 310 598 289 585 q 351 622 331 611 q 385 645 371 632 q 399 681 399 658 q 388 705 399 696 q 357 714 376 714 l 289 714 l 303 725 l 303 549 l 268 503 q 293 575 268 547 q 356 603 318 603 q 440 573 408 603 q 471 497 471 543 l 471 476 l 406 476 l 406 499 q 392 536 406 522 q 354 550 378 550 q 317 537 332 550 q 303 503 303 524 l 303 476 l 238 476 l 238 774 z "},"©":{"ha":1068,"x_min":58,"x_max":1010,"o":"m 533 -12 q 347 23 433 -12 q 197 122 261 58 q 95 270 132 186 q 58 451 58 354 q 95 633 58 549 q 197 781 132 717 q 347 880 261 844 q 533 915 433 915 q 719 880 633 915 q 871 781 806 844 q 973 633 936 717 q 1010 451 1010 549 q 973 270 1010 354 q 871 122 936 186 q 719 23 806 58 q 533 -12 633 -12 m 533 83 q 678 112 611 83 q 797 191 746 140 q 878 308 849 242 q 907 451 907 375 q 878 594 907 528 q 797 712 849 661 q 678 791 746 763 q 533 819 611 819 q 389 791 457 819 q 270 712 321 763 q 190 594 219 661 q 161 451 161 528 q 190 308 161 375 q 270 191 219 242 q 389 112 321 140 q 533 83 457 83 m 538 222 q 419 253 472 222 q 334 338 365 285 q 303 456 303 390 q 334 574 303 521 q 419 659 365 628 q 538 690 472 690 q 683 642 619 690 q 768 513 746 593 l 668 513 q 617 578 651 554 q 538 601 582 601 q 467 582 500 601 q 415 529 435 563 q 396 456 396 496 q 415 383 396 417 q 467 331 435 350 q 538 311 500 311 q 620 336 583 311 q 671 404 657 361 l 769 404 q 687 272 750 321 q 538 222 624 222 z "},"@":{"ha":1099,"x_min":50,"x_max":1057,"o":"m 703 -268 l 565 -268 q 362 -231 456 -268 q 198 -128 268 -194 q 89 26 128 -62 q 50 218 50 115 q 89 417 50 325 q 198 577 128 508 q 362 684 268 646 q 565 722 456 722 q 759 688 669 722 q 915 590 849 653 q 1019 445 982 528 q 1057 265 1057 363 q 999 63 1057 139 q 842 -12 940 -12 q 707 42 760 -12 q 654 179 654 96 l 654 404 l 676 363 l 569 363 q 461 323 503 363 q 419 219 419 283 q 453 122 419 160 q 540 85 488 85 q 614 101 581 85 q 683 153 647 117 l 715 79 q 531 -12 642 -12 q 419 17 468 -12 q 341 99 369 47 q 313 218 313 151 q 345 344 313 290 q 436 429 378 399 q 569 460 494 460 l 758 460 l 758 179 q 782 110 758 135 q 847 85 806 85 q 927 131 900 85 q 954 265 954 178 q 903 449 954 368 q 764 578 851 531 q 565 626 676 626 q 403 595 478 626 q 272 508 328 564 q 184 378 215 453 q 153 218 153 304 q 184 65 153 136 q 272 -59 215 -6 q 403 -142 328 -112 q 565 -172 478 -172 l 703 -172 l 703 -268 z "},"ª":{"ha":546,"x_min":35,"x_max":476,"o":"m 243 363 q 133 384 179 363 q 60 443 86 406 q 35 529 35 481 q 92 651 35 603 q 243 699 149 699 q 386 653 332 699 q 440 533 440 608 q 385 408 440 453 q 243 363 331 363 m 254 443 q 342 467 308 443 q 375 532 375 490 q 342 595 375 572 q 254 618 308 618 q 167 595 200 618 q 135 529 135 572 q 168 467 135 490 q 254 443 201 443 m 261 821 q 190 801 218 821 q 150 747 161 781 l 50 747 q 91 833 61 796 q 165 890 121 869 q 261 910 208 910 q 375 885 326 910 q 450 813 424 860 q 476 699 476 765 l 476 372 l 389 372 l 389 490 l 375 490 l 375 704 q 362 767 375 740 q 323 807 349 793 q 261 821 297 821 z "},"º":{"ha":636,"x_min":38,"x_max":599,"o":"m 318 365 q 176 401 239 365 q 75 499 113 438 q 38 638 38 561 q 75 776 38 714 q 176 874 113 838 q 318 910 240 910 q 460 874 397 910 q 561 776 524 838 q 599 638 599 714 q 562 499 599 561 q 461 401 525 438 q 318 365 397 365 m 318 461 q 408 485 368 461 q 471 549 447 508 q 494 638 494 589 q 471 726 494 686 q 408 790 447 765 q 318 814 368 814 q 229 790 269 814 q 165 727 189 767 q 142 638 142 688 q 165 549 142 589 q 229 485 189 508 q 318 461 269 461 z "},"#":{"ha":875,"x_min":28,"x_max":847,"o":"m 101 0 l 151 225 l 28 225 l 28 322 l 169 322 l 247 676 l 613 676 l 663 903 l 774 903 l 724 676 l 847 676 l 847 579 l 706 579 l 631 225 l 261 225 l 213 0 l 101 0 m 279 322 l 539 322 l 594 579 l 336 579 l 279 322 m 422 903 l 403 810 q 304 629 376 686 q 108 572 232 572 l 56 572 l 56 669 l 108 669 q 231 701 188 669 q 293 810 275 732 l 314 903 l 422 903 m 453 0 l 472 92 q 571 272 499 214 q 767 329 643 329 l 819 329 l 819 232 l 767 232 q 644 201 688 232 q 582 92 600 169 l 561 0 l 453 0 z "},"№":{"ha":1250,"x_min":104,"x_max":1208,"o":"m 821 311 l 821 408 l 1192 408 l 1192 311 l 821 311 m 1007 515 q 906 542 951 515 q 833 613 860 568 q 806 713 806 658 q 833 813 806 768 q 906 883 860 857 q 1007 910 951 910 q 1109 883 1064 910 q 1181 813 1154 857 q 1208 713 1208 768 q 1181 613 1208 658 q 1109 542 1154 568 q 1007 515 1064 515 m 1007 604 q 1083 635 1051 604 q 1114 713 1114 665 q 1083 792 1114 763 q 1007 821 1051 821 q 954 808 979 821 q 915 770 929 794 q 900 713 900 746 q 915 656 900 681 q 954 618 929 632 q 1007 604 979 604 m 104 0 l 104 903 l 208 903 q 388 565 289 714 q 618 288 486 415 l 590 274 l 590 903 l 701 903 l 701 0 l 590 0 l 590 207 l 611 151 q 452 311 528 226 q 313 488 376 396 q 200 675 249 581 l 215 675 l 215 0 l 104 0 z "},"€":{"ha":693,"x_min":18,"x_max":644,"o":"m 547 508 l 18 508 l 18 603 l 547 603 l 547 508 m 547 300 l 18 300 l 18 394 l 547 394 l 547 300 m 644 0 l 574 0 q 397 35 479 0 q 251 132 314 69 q 154 276 189 194 q 119 451 119 358 q 154 627 119 546 q 251 771 189 708 q 397 868 314 833 q 574 903 479 903 l 644 903 l 644 799 l 574 799 q 440 772 501 799 q 331 697 378 744 q 259 586 285 649 q 233 451 233 524 q 259 317 233 379 q 331 206 285 254 q 440 131 378 158 q 574 104 501 104 l 644 104 l 644 0 z "},"$":{"ha":681,"x_min":50,"x_max":628,"o":"m 293 60 l 401 60 l 401 -129 l 293 -129 l 293 60 m 289 1032 l 397 1032 l 397 847 l 289 847 l 289 1032 m 344 -12 q 198 20 265 -12 q 90 114 131 53 q 50 264 50 175 l 161 264 q 185 175 161 214 q 250 114 208 136 q 344 92 292 92 q 467 133 419 92 q 514 239 514 174 q 490 317 514 286 q 427 369 467 347 q 340 408 388 390 q 246 446 293 425 q 159 496 199 467 q 96 569 119 525 q 72 679 72 613 q 108 798 72 744 q 203 883 143 851 q 335 915 263 915 q 476 883 415 915 q 572 792 538 850 q 607 658 607 735 l 496 658 q 451 769 496 726 q 335 811 406 811 q 260 794 294 811 q 206 747 226 776 q 186 679 186 717 q 210 604 186 633 q 273 553 233 575 q 360 515 313 532 q 454 476 407 497 q 541 425 501 456 q 604 350 581 394 q 628 239 628 306 q 591 110 628 167 q 490 20 554 53 q 344 -12 426 -12 z "},"¥":{"ha":700,"x_min":35,"x_max":665,"o":"m 336 543 l 544 903 l 665 903 l 413 485 l 285 485 l 35 903 l 158 903 l 365 543 l 336 543 m 404 0 l 293 0 l 293 524 l 404 524 l 404 0 m 83 551 l 615 551 l 615 457 l 83 457 l 83 551 m 83 343 l 615 343 l 615 249 l 83 249 l 83 343 z "},"£":{"ha":669,"x_min":33,"x_max":621,"o":"m 35 0 l 35 104 l 42 104 q 125 128 99 104 q 151 203 151 151 l 151 643 q 222 836 151 769 q 408 903 292 903 l 597 903 l 597 799 l 408 799 q 303 762 344 799 q 263 643 263 725 l 263 218 q 224 112 263 150 q 110 67 186 74 l 118 104 l 621 104 l 621 0 l 35 0 m 33 342 l 33 442 l 567 442 l 567 342 l 33 342 z "},"₹":{"ha":629,"x_min":76,"x_max":594,"o":"m 594 563 l 76 563 l 76 660 l 594 660 l 594 563 m 146 319 l 163 385 l 524 0 l 379 0 l 76 319 l 76 417 l 118 417 q 299 467 238 417 q 360 606 360 518 q 298 751 360 697 q 118 806 236 806 l 76 806 l 76 903 l 594 903 l 594 806 l 250 806 l 250 865 q 414 773 357 843 q 471 606 471 703 q 431 458 471 524 q 319 356 392 393 q 146 319 246 319 z "},"¢":{"ha":785,"x_min":56,"x_max":735,"o":"m 346 138 l 454 138 l 454 0 l 346 0 l 346 138 m 346 903 l 454 903 l 454 758 l 346 758 l 346 903 m 628 381 l 735 381 q 670 238 718 300 q 553 142 622 176 q 400 107 483 107 q 226 152 304 107 q 101 274 147 197 q 56 447 56 351 q 101 621 56 543 q 226 744 147 699 q 400 789 304 789 q 550 756 482 789 q 666 665 618 724 q 732 526 714 606 l 624 526 q 538 645 597 600 q 400 690 478 690 q 281 658 335 690 q 196 572 228 626 q 164 447 164 517 q 196 324 164 379 q 281 238 228 269 q 400 206 335 206 q 501 228 454 206 q 581 290 547 250 q 628 381 614 329 z "},"¤":{"ha":846,"x_min":39,"x_max":807,"o":"m 39 756 l 118 836 l 283 669 l 204 590 l 39 756 m 807 756 l 642 590 l 561 669 l 726 836 l 807 756 m 39 144 l 204 310 l 283 229 l 118 64 l 39 144 m 807 144 l 726 64 l 561 229 l 642 310 l 807 144 m 422 140 q 263 182 335 140 q 147 294 190 224 q 104 450 104 364 q 147 608 104 538 q 263 719 190 678 q 422 760 335 760 q 583 719 511 760 q 699 608 656 678 q 742 450 742 538 q 699 294 742 364 q 583 182 656 224 q 422 140 511 140 m 422 238 q 530 267 482 238 q 606 344 578 296 q 635 450 635 392 q 606 557 635 508 q 530 634 578 606 q 422 663 482 663 q 316 634 364 663 q 240 557 268 606 q 211 450 211 508 q 240 344 211 392 q 316 267 268 296 q 422 238 364 238 z "},"➀":{"ha":1147,"x_min":58,"x_max":1089,"o":"m 574 861 q 415 830 489 861 q 285 742 340 799 q 198 612 229 686 q 167 451 167 538 q 198 291 167 365 q 285 160 229 217 q 415 73 340 104 q 574 42 489 42 q 733 73 660 42 q 863 160 807 104 q 949 291 918 217 q 981 451 981 365 q 949 612 981 538 q 863 742 918 686 q 733 830 807 799 q 574 861 660 861 m 574 -58 q 372 -19 465 -58 q 208 90 278 19 q 98 252 138 160 q 58 451 58 344 q 98 651 58 558 q 208 813 138 743 q 372 922 278 883 q 574 961 465 961 q 776 922 682 961 q 940 813 869 883 q 1049 651 1010 743 q 1089 451 1089 558 q 1049 252 1089 344 q 940 90 1010 160 q 776 -19 869 19 q 574 -58 682 -58 m 653 728 l 653 186 l 551 186 l 551 576 q 495 560 525 567 q 431 551 465 554 l 431 649 q 553 678 496 658 q 653 728 610 699 z "},"➁":{"ha":1147,"x_min":58,"x_max":1089,"o":"m 574 -58 q 372 -19 465 -58 q 208 90 278 19 q 98 252 138 160 q 58 451 58 344 q 98 651 58 558 q 208 813 138 743 q 372 922 278 883 q 574 961 465 961 q 776 922 682 961 q 940 813 869 883 q 1049 651 1010 743 q 1089 451 1089 558 q 1049 252 1089 344 q 940 90 1010 160 q 776 -19 869 19 q 574 -58 682 -58 m 764 283 l 764 186 l 382 186 l 601 444 q 647 508 635 483 q 658 554 658 532 q 635 609 658 586 q 578 632 611 632 q 521 609 544 632 q 497 554 497 586 q 531 485 497 514 l 471 415 q 399 557 399 475 q 422 642 399 604 q 487 701 446 679 q 578 724 528 724 q 669 701 629 724 q 733 642 710 679 q 757 557 757 604 q 742 483 757 518 q 689 404 728 449 l 586 283 l 764 283 m 574 861 q 415 830 489 861 q 285 742 340 799 q 198 612 229 686 q 167 451 167 538 q 198 291 167 365 q 285 160 229 217 q 415 73 340 104 q 574 42 489 42 q 733 73 660 42 q 863 160 807 104 q 949 291 918 217 q 981 451 981 365 q 949 612 981 538 q 863 742 918 686 q 733 830 807 799 q 574 861 660 861 z "},"➂":{"ha":1147,"x_min":58,"x_max":1089,"o":"m 574 -58 q 372 -19 465 -58 q 208 90 278 19 q 98 252 138 160 q 58 451 58 344 q 98 651 58 558 q 208 813 138 743 q 372 922 278 883 q 574 961 465 961 q 776 922 682 961 q 940 813 869 883 q 1049 651 1010 743 q 1089 451 1089 558 q 1049 252 1089 344 q 940 90 1010 160 q 776 -19 869 19 q 574 -58 682 -58 m 779 360 q 753 267 779 308 q 681 203 726 226 q 579 179 636 179 q 474 205 521 179 q 401 276 428 231 q 375 379 375 321 l 476 379 q 490 324 476 349 q 526 287 503 300 q 579 274 549 274 q 650 298 622 274 q 678 360 678 322 q 666 399 678 382 q 633 425 654 415 q 582 435 611 435 l 547 435 l 547 532 l 582 532 q 606 531 593 532 q 624 529 618 531 q 638 574 638 551 q 619 613 638 597 q 574 629 601 629 q 527 611 546 629 q 508 567 508 593 l 407 567 q 453 680 407 636 q 574 724 500 724 q 692 683 644 724 q 739 579 739 642 q 732 535 739 557 q 710 494 725 514 q 762 438 744 472 q 779 360 779 403 m 574 861 q 415 830 489 861 q 285 742 340 799 q 198 612 229 686 q 167 451 167 538 q 198 291 167 365 q 285 160 229 217 q 415 73 340 104 q 574 42 489 42 q 733 73 660 42 q 863 160 807 104 q 949 291 918 217 q 981 451 981 365 q 949 612 981 538 q 863 742 918 686 q 733 830 807 799 q 574 861 660 861 z "},"➃":{"ha":1147,"x_min":58,"x_max":1089,"o":"m 574 -58 q 372 -19 465 -58 q 208 90 278 19 q 98 252 138 160 q 58 451 58 344 q 98 651 58 558 q 208 813 138 743 q 372 922 278 883 q 574 961 465 961 q 776 922 682 961 q 940 813 869 883 q 1049 651 1010 743 q 1089 451 1089 558 q 1049 252 1089 344 q 940 90 1010 160 q 776 -19 869 19 q 574 -58 682 -58 m 726 589 l 726 186 l 625 186 l 625 236 q 607 304 625 281 q 560 342 589 328 q 499 367 532 356 q 438 399 467 379 q 392 456 410 419 q 374 556 374 493 l 374 717 l 475 717 l 475 556 q 484 506 475 525 q 508 475 493 488 q 543 454 524 463 q 583 438 563 446 q 625 419 604 431 l 625 589 l 726 589 m 574 861 q 415 830 489 861 q 285 742 340 799 q 198 612 229 686 q 167 451 167 538 q 198 291 167 365 q 285 160 229 217 q 415 73 340 104 q 574 42 489 42 q 733 73 660 42 q 863 160 807 104 q 949 291 918 217 q 981 451 981 365 q 949 612 981 538 q 863 742 918 686 q 733 830 807 799 q 574 861 660 861 z "},"➄":{"ha":1147,"x_min":58,"x_max":1089,"o":"m 574 -58 q 372 -19 465 -58 q 208 90 278 19 q 98 252 138 160 q 58 451 58 344 q 98 651 58 558 q 208 813 138 743 q 372 922 278 883 q 574 961 465 961 q 776 922 682 961 q 940 813 869 883 q 1049 651 1010 743 q 1089 451 1089 558 q 1049 252 1089 344 q 940 90 1010 160 q 776 -19 869 19 q 574 -58 682 -58 m 778 354 q 753 266 778 306 q 685 203 728 226 q 588 181 643 181 q 485 204 531 181 q 415 270 440 228 q 389 369 389 313 l 490 369 q 515 303 490 331 q 588 275 540 275 q 649 298 625 275 q 674 356 674 321 q 650 409 674 388 q 583 436 626 431 l 410 460 l 463 718 l 726 718 l 726 621 l 542 621 l 525 540 l 597 531 q 732 473 686 518 q 778 354 778 428 m 574 861 q 415 830 489 861 q 285 742 340 799 q 198 612 229 686 q 167 451 167 538 q 198 291 167 365 q 285 160 229 217 q 415 73 340 104 q 574 42 489 42 q 733 73 660 42 q 863 160 807 104 q 949 291 918 217 q 981 451 981 365 q 949 612 981 538 q 863 742 918 686 q 733 830 807 799 q 574 861 660 861 z "},"➅":{"ha":1147,"x_min":58,"x_max":1089,"o":"m 574 -58 q 372 -19 465 -58 q 208 90 278 19 q 98 252 138 160 q 58 451 58 344 q 98 651 58 558 q 208 813 138 743 q 372 922 278 883 q 574 961 465 961 q 776 922 682 961 q 940 813 869 883 q 1049 651 1010 743 q 1089 451 1089 558 q 1049 252 1089 344 q 940 90 1010 160 q 776 -19 869 19 q 574 -58 682 -58 m 574 861 q 415 830 489 861 q 285 742 340 799 q 198 612 229 686 q 167 451 167 538 q 198 291 167 365 q 285 160 229 217 q 415 73 340 104 q 574 42 489 42 q 733 73 660 42 q 863 160 807 104 q 949 291 918 217 q 981 451 981 365 q 949 612 981 538 q 863 742 918 686 q 733 830 807 799 q 574 861 660 861 m 574 179 q 469 205 515 179 q 395 274 422 231 q 368 372 368 318 q 385 453 368 417 q 428 522 403 490 q 479 585 453 554 q 525 647 506 615 q 549 717 544 679 l 653 717 q 636 653 649 682 q 606 601 624 625 q 567 554 588 578 q 651 542 613 556 q 719 505 690 529 q 763 447 747 481 q 779 372 779 413 q 752 274 779 318 q 678 205 725 231 q 574 179 632 179 m 574 274 q 626 287 603 274 q 664 323 650 300 q 678 372 678 346 q 664 422 678 400 q 626 458 650 444 q 574 471 603 471 q 522 457 546 471 q 484 421 499 443 q 469 372 469 399 q 483 323 469 346 q 521 287 497 300 q 574 274 544 274 z "},"➆":{"ha":1147,"x_min":58,"x_max":1089,"o":"m 574 -58 q 372 -19 465 -58 q 208 90 278 19 q 98 252 138 160 q 58 451 58 344 q 98 651 58 558 q 208 813 138 743 q 372 922 278 883 q 574 961 465 961 q 776 922 682 961 q 940 813 869 883 q 1049 651 1010 743 q 1089 451 1089 558 q 1049 252 1089 344 q 940 90 1010 160 q 776 -19 869 19 q 574 -58 682 -58 m 765 717 q 701 571 728 636 q 656 446 674 506 q 628 324 639 386 q 613 186 618 261 l 508 186 q 528 343 515 272 q 563 481 540 414 q 618 619 585 547 l 403 619 l 403 717 l 765 717 m 574 861 q 415 830 489 861 q 285 742 340 799 q 198 612 229 686 q 167 451 167 538 q 198 291 167 365 q 285 160 229 217 q 415 73 340 104 q 574 42 489 42 q 733 73 660 42 q 863 160 807 104 q 949 291 918 217 q 981 451 981 365 q 949 612 981 538 q 863 742 918 686 q 733 830 807 799 q 574 861 660 861 z "},"➇":{"ha":1147,"x_min":58,"x_max":1089,"o":"m 574 -58 q 372 -19 465 -58 q 208 90 278 19 q 98 252 138 160 q 58 451 58 344 q 98 651 58 558 q 208 813 138 743 q 372 922 278 883 q 574 961 465 961 q 776 922 682 961 q 940 813 869 883 q 1049 651 1010 743 q 1089 451 1089 558 q 1049 252 1089 344 q 940 90 1010 160 q 776 -19 869 19 q 574 -58 682 -58 m 781 350 q 753 264 781 303 q 679 202 726 225 q 574 179 632 179 q 469 201 515 179 q 395 263 422 224 q 368 350 368 301 q 397 438 368 399 q 476 497 426 478 q 437 540 451 514 q 422 596 422 565 q 465 688 422 653 q 574 724 507 724 q 683 688 640 724 q 726 596 726 653 q 712 540 726 565 q 672 497 697 514 q 751 439 722 478 q 781 350 781 400 m 574 646 q 530 631 547 646 q 513 592 513 615 q 530 552 513 568 q 574 536 547 536 q 618 552 600 536 q 636 592 636 568 q 619 631 636 615 q 574 646 601 646 m 574 274 q 647 297 618 274 q 675 356 675 321 q 647 417 675 393 q 574 442 618 442 q 501 417 529 442 q 474 356 474 393 q 502 297 474 321 q 574 274 531 274 m 574 861 q 415 830 489 861 q 285 742 340 799 q 198 612 229 686 q 167 451 167 538 q 198 291 167 365 q 285 160 229 217 q 415 73 340 104 q 574 42 489 42 q 733 73 660 42 q 863 160 807 104 q 949 291 918 217 q 981 451 981 365 q 949 612 981 538 q 863 742 918 686 q 733 830 807 799 q 574 861 660 861 z "},"➈":{"ha":1147,"x_min":58,"x_max":1089,"o":"m 574 -58 q 372 -19 465 -58 q 208 90 278 19 q 98 252 138 160 q 58 451 58 344 q 98 651 58 558 q 208 813 138 743 q 372 922 278 883 q 574 961 465 961 q 776 922 682 961 q 940 813 869 883 q 1049 651 1010 743 q 1089 451 1089 558 q 1049 252 1089 344 q 940 90 1010 160 q 776 -19 869 19 q 574 -58 682 -58 m 574 861 q 415 830 489 861 q 285 743 340 799 q 198 613 229 688 q 167 451 167 538 q 198 290 167 365 q 285 160 229 215 q 415 73 340 104 q 574 42 489 42 q 733 73 660 42 q 863 160 807 104 q 949 291 918 217 q 981 451 981 365 q 949 612 981 538 q 863 742 918 686 q 733 830 807 799 q 574 861 660 861 m 581 724 q 685 698 639 724 q 759 629 732 672 q 786 531 786 586 q 769 449 786 486 q 726 381 751 413 q 675 318 701 349 q 629 256 649 288 q 606 186 610 224 l 501 186 q 518 250 506 222 q 549 302 531 278 q 588 349 568 326 q 503 360 542 347 q 435 398 464 374 q 391 456 407 422 q 375 531 375 490 q 402 629 375 586 q 476 698 429 672 q 581 724 522 724 m 581 629 q 528 616 551 629 q 490 581 504 603 q 476 531 476 558 q 490 481 476 504 q 528 445 504 458 q 581 432 551 432 q 632 446 608 432 q 670 482 656 460 q 685 531 685 504 q 671 581 685 558 q 633 616 657 603 q 581 629 610 629 z "},"➊":{"ha":1147,"x_min":58,"x_max":1089,"o":"m 574 -58 q 372 -19 465 -58 q 208 90 278 19 q 98 252 138 160 q 58 451 58 344 q 98 651 58 558 q 208 813 138 743 q 372 922 278 883 q 574 961 465 961 q 776 922 682 961 q 940 813 869 883 q 1049 651 1010 743 q 1089 451 1089 558 q 1049 252 1089 344 q 940 90 1010 160 q 776 -19 869 19 q 574 -58 682 -58 m 653 728 q 553 678 610 699 q 431 649 496 658 l 431 551 q 495 560 465 554 q 551 576 525 567 l 551 186 l 653 186 l 653 728 z "},"➋":{"ha":1147,"x_min":58,"x_max":1089,"o":"m 574 -58 q 372 -19 465 -58 q 208 90 278 19 q 98 252 138 160 q 58 451 58 344 q 98 651 58 558 q 208 813 138 743 q 372 922 278 883 q 574 961 465 961 q 776 922 682 961 q 940 813 869 883 q 1049 651 1010 743 q 1089 451 1089 558 q 1049 252 1089 344 q 940 90 1010 160 q 776 -19 869 19 q 574 -58 682 -58 m 764 283 l 586 283 l 689 404 q 742 483 728 449 q 757 557 757 518 q 733 642 757 604 q 669 701 710 679 q 578 724 629 724 q 487 701 528 724 q 422 642 446 679 q 399 557 399 604 q 471 415 399 475 l 531 485 q 497 554 497 514 q 521 609 497 586 q 578 632 544 632 q 635 609 611 632 q 658 554 658 586 q 647 508 658 532 q 601 444 635 483 l 382 186 l 764 186 l 764 283 z "},"➌":{"ha":1147,"x_min":58,"x_max":1089,"o":"m 574 -58 q 372 -19 465 -58 q 208 90 278 19 q 98 252 138 160 q 58 451 58 344 q 98 651 58 558 q 208 813 138 743 q 372 922 278 883 q 574 961 465 961 q 776 922 682 961 q 940 813 869 883 q 1049 651 1010 743 q 1089 451 1089 558 q 1049 252 1089 344 q 940 90 1010 160 q 776 -19 869 19 q 574 -58 682 -58 m 779 360 q 762 438 779 403 q 710 494 744 472 q 732 535 725 514 q 739 579 739 557 q 692 683 739 642 q 574 724 644 724 q 453 680 500 724 q 407 567 407 636 l 508 567 q 527 611 508 593 q 574 629 546 629 q 619 613 601 629 q 638 574 638 597 q 624 529 638 551 q 606 531 618 531 q 582 532 593 532 l 547 532 l 547 435 l 582 435 q 633 425 611 435 q 666 399 654 415 q 678 360 678 382 q 650 298 678 322 q 579 274 622 274 q 526 287 549 274 q 490 324 503 300 q 476 379 476 349 l 375 379 q 401 276 375 321 q 474 205 428 231 q 579 179 521 179 q 681 203 636 179 q 753 267 726 226 q 779 360 779 308 z "},"➍":{"ha":1147,"x_min":58,"x_max":1089,"o":"m 574 -58 q 372 -19 465 -58 q 208 90 278 19 q 98 252 138 160 q 58 451 58 344 q 98 651 58 558 q 208 813 138 743 q 372 922 278 883 q 574 961 465 961 q 776 922 682 961 q 940 813 869 883 q 1049 651 1010 743 q 1089 451 1089 558 q 1049 252 1089 344 q 940 90 1010 160 q 776 -19 869 19 q 574 -58 682 -58 m 726 589 l 625 589 l 625 419 q 583 438 604 431 q 543 454 563 446 q 508 475 524 463 q 484 506 493 488 q 475 556 475 525 l 475 717 l 374 717 l 374 556 q 392 456 374 493 q 438 399 410 419 q 499 367 467 379 q 560 342 532 356 q 607 304 589 328 q 625 236 625 281 l 625 186 l 726 186 l 726 589 z "},"➎":{"ha":1147,"x_min":58,"x_max":1089,"o":"m 574 -58 q 372 -19 465 -58 q 208 90 278 19 q 98 252 138 160 q 58 451 58 344 q 98 651 58 558 q 208 813 138 743 q 372 922 278 883 q 574 961 465 961 q 776 922 682 961 q 940 813 869 883 q 1049 651 1010 743 q 1089 451 1089 558 q 1049 252 1089 344 q 940 90 1010 160 q 776 -19 869 19 q 574 -58 682 -58 m 778 354 q 732 473 778 428 q 597 531 686 518 l 525 540 l 542 621 l 726 621 l 726 718 l 463 718 l 410 460 l 583 436 q 650 409 626 431 q 674 356 674 388 q 649 298 674 321 q 588 275 625 275 q 515 303 540 275 q 490 369 490 331 l 389 369 q 415 270 389 313 q 485 204 440 228 q 588 181 531 181 q 685 203 643 181 q 753 266 728 226 q 778 354 778 306 z "},"➏":{"ha":1147,"x_min":58,"x_max":1089,"o":"m 574 -58 q 372 -19 465 -58 q 208 90 278 19 q 98 252 138 160 q 58 451 58 344 q 98 651 58 558 q 208 813 138 743 q 372 922 278 883 q 574 961 465 961 q 776 922 682 961 q 940 813 869 883 q 1049 651 1010 743 q 1089 451 1089 558 q 1049 252 1089 344 q 940 90 1010 160 q 776 -19 869 19 q 574 -58 682 -58 m 574 179 q 678 205 632 179 q 752 274 725 231 q 779 372 779 318 q 763 447 779 413 q 719 505 747 481 q 651 542 690 529 q 567 554 613 556 q 606 601 588 578 q 636 653 624 625 q 653 717 649 682 l 549 717 q 525 647 544 679 q 479 585 506 615 q 428 522 453 554 q 385 453 403 490 q 368 372 368 417 q 395 274 368 318 q 469 205 422 231 q 574 179 515 179 m 574 274 q 521 287 544 274 q 483 323 497 300 q 469 372 469 346 q 484 421 469 399 q 522 457 499 443 q 574 471 546 471 q 626 458 603 471 q 664 422 650 444 q 678 372 678 400 q 664 323 678 346 q 626 287 650 300 q 574 274 603 274 z "},"➐":{"ha":1147,"x_min":58,"x_max":1089,"o":"m 574 -58 q 372 -19 465 -58 q 208 90 278 19 q 98 252 138 160 q 58 451 58 344 q 98 651 58 558 q 208 813 138 743 q 372 922 278 883 q 574 961 465 961 q 776 922 682 961 q 940 813 869 883 q 1049 651 1010 743 q 1089 451 1089 558 q 1049 252 1089 344 q 940 90 1010 160 q 776 -19 869 19 q 574 -58 682 -58 m 765 717 l 403 717 l 403 619 l 618 619 q 563 481 585 547 q 528 343 540 414 q 508 186 515 272 l 613 186 q 628 324 618 261 q 656 446 639 386 q 701 571 674 506 q 765 717 728 636 z "},"➑":{"ha":1147,"x_min":58,"x_max":1089,"o":"m 574 -58 q 372 -19 465 -58 q 208 90 278 19 q 98 252 138 160 q 58 451 58 344 q 98 651 58 558 q 208 813 138 743 q 372 922 278 883 q 574 961 465 961 q 776 922 682 961 q 940 813 869 883 q 1049 651 1010 743 q 1089 451 1089 558 q 1049 252 1089 344 q 940 90 1010 160 q 776 -19 869 19 q 574 -58 682 -58 m 781 350 q 751 439 781 400 q 672 497 722 478 q 712 540 697 514 q 726 596 726 565 q 683 688 726 653 q 574 724 640 724 q 465 688 507 724 q 422 596 422 653 q 437 540 422 565 q 476 497 451 514 q 397 438 426 478 q 368 350 368 399 q 395 263 368 301 q 469 201 422 224 q 574 179 515 179 q 679 202 632 179 q 753 264 726 225 q 781 350 781 303 m 574 646 q 619 631 601 646 q 636 592 636 615 q 618 552 636 568 q 574 536 600 536 q 530 552 547 536 q 513 592 513 568 q 530 631 513 615 q 574 646 547 646 m 574 274 q 502 297 531 274 q 474 356 474 321 q 501 417 474 393 q 574 442 529 442 q 647 417 618 442 q 675 356 675 393 q 647 297 675 321 q 574 274 618 274 z "},"➒":{"ha":1147,"x_min":58,"x_max":1089,"o":"m 574 -58 q 372 -19 465 -58 q 208 90 278 19 q 98 252 138 160 q 58 451 58 344 q 98 651 58 558 q 208 813 138 743 q 372 922 278 883 q 574 961 465 961 q 776 922 682 961 q 940 813 869 883 q 1049 651 1010 743 q 1089 451 1089 558 q 1049 252 1089 344 q 940 90 1010 160 q 776 -19 869 19 q 574 -58 682 -58 m 581 724 q 476 698 522 724 q 402 629 429 672 q 375 531 375 586 q 391 456 375 490 q 435 398 407 422 q 503 360 464 374 q 588 349 542 347 q 549 302 568 326 q 518 250 531 278 q 501 186 506 222 l 606 186 q 629 256 610 224 q 675 318 649 288 q 726 381 701 349 q 769 449 751 413 q 786 531 786 486 q 759 629 786 586 q 685 698 732 672 q 581 724 639 724 m 581 629 q 633 616 610 629 q 671 581 657 603 q 685 531 685 558 q 670 482 685 504 q 632 446 656 460 q 581 432 608 432 q 528 445 551 432 q 490 481 504 458 q 476 531 476 504 q 490 581 476 558 q 528 616 504 603 q 581 629 551 629 z "},"°":{"ha":469,"x_min":49,"x_max":421,"o":"m 235 551 q 141 576 183 551 q 74 642 99 600 q 49 733 49 683 q 74 826 49 785 q 141 891 99 867 q 235 915 183 915 q 329 891 288 915 q 396 826 371 867 q 421 733 421 785 q 396 642 421 683 q 329 576 371 600 q 235 551 288 551 m 235 825 q 189 813 210 825 q 156 779 168 800 q 143 733 143 758 q 156 688 143 708 q 189 654 168 667 q 235 642 210 642 q 299 669 272 642 q 326 733 326 696 q 299 798 326 771 q 235 825 272 825 z "},"%":{"ha":1099,"x_min":49,"x_max":1050,"o":"m 244 0 l 735 903 l 854 903 l 364 0 l 244 0 m 263 496 q 154 524 203 496 q 77 599 106 551 q 49 706 49 647 q 77 811 49 764 q 154 887 106 858 q 263 915 203 915 q 370 887 322 915 q 447 811 418 858 q 476 706 476 764 q 447 599 476 647 q 370 524 418 551 q 263 496 322 496 m 263 825 q 203 809 231 825 q 159 766 175 793 q 143 706 143 739 q 159 646 143 674 q 203 602 175 618 q 263 586 231 586 q 322 602 294 586 q 365 646 349 618 q 381 706 381 674 q 365 766 381 739 q 322 809 349 793 q 263 825 296 825 m 836 -12 q 728 16 776 -12 q 651 92 679 44 q 622 197 622 139 q 651 303 622 256 q 728 379 679 351 q 836 407 776 407 q 944 379 896 407 q 1021 303 992 351 q 1050 197 1050 256 q 1021 92 1050 139 q 944 16 992 44 q 836 -12 896 -12 m 836 317 q 776 301 804 317 q 733 258 749 285 q 717 197 717 231 q 733 138 717 165 q 776 94 749 110 q 836 78 804 78 q 896 94 869 78 q 938 138 922 110 q 954 197 954 165 q 938 258 954 231 q 896 301 922 285 q 836 317 869 317 z "},"‰":{"ha":1607,"x_min":49,"x_max":1558,"o":"m 1344 -12 q 1236 16 1285 -12 q 1159 92 1188 44 q 1131 197 1131 139 q 1159 303 1131 256 q 1236 379 1188 351 q 1344 407 1285 407 q 1452 379 1404 407 q 1529 303 1500 351 q 1558 197 1558 256 q 1529 92 1558 139 q 1452 16 1500 44 q 1344 -12 1404 -12 m 1344 317 q 1285 301 1313 317 q 1241 258 1257 285 q 1225 197 1225 231 q 1241 138 1225 165 q 1285 94 1257 110 q 1344 78 1313 78 q 1404 94 1378 78 q 1447 138 1431 110 q 1463 197 1463 165 q 1447 258 1463 231 q 1404 301 1431 285 q 1344 317 1378 317 m 244 0 l 735 903 l 854 903 l 364 0 l 244 0 m 263 496 q 154 524 203 496 q 77 599 106 551 q 49 706 49 647 q 77 811 49 764 q 154 887 106 858 q 263 915 203 915 q 370 887 322 915 q 447 811 418 858 q 476 706 476 764 q 447 599 476 647 q 370 524 418 551 q 263 496 322 496 m 263 825 q 203 809 231 825 q 159 766 175 793 q 143 706 143 739 q 159 646 143 674 q 203 602 175 618 q 263 586 231 586 q 322 602 296 586 q 365 646 349 618 q 381 706 381 674 q 365 766 381 739 q 322 809 349 793 q 263 825 296 825 m 836 -12 q 728 16 776 -12 q 651 92 679 44 q 622 197 622 139 q 651 303 622 256 q 728 379 679 351 q 836 407 776 407 q 944 379 896 407 q 1021 303 992 351 q 1050 197 1050 256 q 1021 92 1050 139 q 944 16 992 44 q 836 -12 896 -12 m 836 317 q 776 301 804 317 q 733 258 749 285 q 717 197 717 231 q 733 138 717 165 q 776 94 749 110 q 836 78 804 78 q 896 94 869 78 q 938 138 922 110 q 954 197 954 165 q 938 258 954 231 q 896 301 922 285 q 836 317 869 317 z "},"⁄":{"ha":374,"x_min":-117,"x_max":490,"o":"m -117 0 l 374 903 l 490 903 l 0 0 l -117 0 z "},"∕":{"ha":374,"x_min":-117,"x_max":490,"o":"m -117 0 l 374 903 l 490 903 l 0 0 l -117 0 z "},"⁰":{"ha":617,"x_min":28,"x_max":589,"o":"m 308 365 q 166 401 229 365 q 65 499 103 438 q 28 638 28 561 q 65 776 28 714 q 167 874 103 838 q 308 910 231 910 q 451 874 388 910 q 551 776 514 838 q 589 638 589 714 q 552 499 589 561 q 451 401 515 438 q 308 365 388 365 m 308 465 q 397 488 357 465 q 459 551 436 511 q 482 638 482 590 q 458 724 482 685 q 395 786 435 763 q 308 810 356 810 q 220 787 260 810 q 158 724 181 764 q 135 638 135 685 q 158 551 135 590 q 222 489 182 513 q 308 465 261 465 z "},"¹":{"ha":313,"x_min":14,"x_max":236,"o":"m 14 835 q 136 865 79 844 q 236 914 193 885 l 236 372 l 135 372 l 135 839 l 211 808 q 130 761 181 779 q 14 738 79 743 l 14 835 z "},"²":{"ha":451,"x_min":28,"x_max":410,"o":"m 224 910 q 315 888 275 910 q 379 828 356 865 q 403 743 403 790 q 388 669 403 704 q 335 590 374 635 l 153 375 l 146 469 l 410 469 l 410 372 l 28 372 l 247 631 q 292 694 281 669 q 304 740 304 718 q 281 795 304 772 q 224 818 257 818 q 167 795 190 818 q 143 740 143 772 q 176 671 143 700 l 117 601 q 44 743 44 661 q 68 828 44 790 q 132 888 92 865 q 224 910 172 910 z "},"³":{"ha":460,"x_min":28,"x_max":432,"o":"m 232 365 q 128 391 174 365 q 55 462 82 417 q 28 565 28 507 l 129 565 q 142 510 129 535 q 178 473 156 486 q 232 460 201 460 q 303 485 276 460 q 331 546 331 510 q 319 584 331 567 q 286 611 307 601 q 235 621 265 621 l 200 621 l 200 718 l 235 718 q 339 696 294 718 q 408 635 383 674 q 432 546 432 596 q 406 453 432 494 q 334 389 379 413 q 232 365 289 365 m 326 646 l 254 689 q 290 760 290 722 q 272 799 290 783 q 226 815 254 815 q 180 797 199 815 q 161 753 161 779 l 60 753 q 106 865 60 821 q 226 910 151 910 q 344 869 297 910 q 392 765 392 828 q 375 700 392 731 q 326 646 358 669 z "},"⁴":{"ha":464,"x_min":49,"x_max":401,"o":"m 401 372 l 300 372 l 300 422 q 282 490 300 467 q 235 528 264 514 q 174 553 207 542 q 113 585 142 565 q 67 642 85 606 q 49 742 49 679 l 49 903 l 150 903 l 150 742 q 167 677 150 699 q 212 644 185 656 q 269 621 239 632 q 326 589 299 610 q 370 529 353 568 q 388 422 388 490 l 300 543 l 300 775 l 401 775 l 401 372 z "},"⁵":{"ha":465,"x_min":42,"x_max":431,"o":"m 240 365 q 138 389 183 365 q 67 455 93 413 q 42 554 42 497 l 143 554 q 168 488 143 515 q 240 460 193 460 q 302 483 278 460 q 326 540 326 506 q 303 594 326 572 q 236 621 279 615 l 63 644 l 115 903 l 379 903 l 379 806 l 151 806 l 204 856 l 169 685 l 132 732 l 250 715 q 385 658 339 703 q 431 539 431 613 q 406 451 431 490 q 338 388 381 411 q 240 365 296 365 z "},"⁶":{"ha":474,"x_min":35,"x_max":446,"o":"m 240 365 q 135 391 182 365 q 62 460 89 417 q 35 558 35 504 q 52 640 35 603 q 94 708 69 676 q 146 771 119 740 q 192 833 172 801 q 215 903 211 865 l 319 903 q 303 840 315 868 q 272 788 290 811 q 233 740 254 764 q 318 728 279 742 q 385 691 357 715 q 430 633 414 667 q 446 558 446 599 q 419 460 446 504 q 345 391 392 417 q 240 365 299 365 m 240 460 q 293 473 269 460 q 331 509 317 486 q 344 558 344 532 q 331 608 344 586 q 293 644 317 631 q 240 657 269 657 q 189 643 213 657 q 151 607 165 629 q 136 558 136 585 q 150 509 136 532 q 188 473 164 486 q 240 460 211 460 z "},"⁷":{"ha":425,"x_min":35,"x_max":397,"o":"m 244 372 l 140 372 q 157 514 146 449 q 186 640 168 579 q 231 762 204 700 q 294 894 258 824 l 306 806 l 35 806 l 35 903 l 397 903 q 333 757 360 822 q 288 632 306 692 q 260 510 271 572 q 244 372 250 447 z "},"⁸":{"ha":468,"x_min":28,"x_max":440,"o":"m 233 460 q 306 483 278 460 q 335 542 335 507 q 306 603 335 579 q 233 628 278 628 q 161 603 189 628 q 133 542 133 579 q 162 483 133 507 q 233 460 190 460 m 233 832 q 190 817 207 832 q 172 778 172 801 q 190 738 172 754 q 233 722 207 722 q 278 738 260 722 q 296 778 296 754 q 278 817 296 801 q 233 832 261 832 m 233 365 q 128 388 175 365 q 55 449 82 410 q 28 536 28 488 q 54 621 28 583 q 127 680 81 658 q 233 701 174 701 q 341 680 294 701 q 414 622 388 658 q 440 536 440 585 q 413 450 440 489 q 338 388 385 411 q 233 365 292 365 m 233 910 q 343 874 300 910 q 386 782 386 839 q 343 692 386 726 q 233 657 300 657 q 124 692 167 657 q 82 782 82 726 q 124 874 82 839 q 233 910 167 910 z "},"⁹":{"ha":474,"x_min":28,"x_max":439,"o":"m 233 910 q 338 884 292 910 q 412 815 385 858 q 439 717 439 772 q 422 635 439 672 q 379 567 404 599 q 328 504 354 535 q 282 442 301 474 q 258 372 263 410 l 154 372 q 171 436 158 408 q 202 488 183 464 q 240 535 221 513 q 156 547 194 533 q 88 584 117 560 q 44 642 60 608 q 28 717 28 676 q 55 815 28 772 q 128 884 82 858 q 233 910 175 910 m 233 815 q 181 802 204 815 q 143 767 157 789 q 129 717 129 744 q 143 667 129 690 q 181 631 157 644 q 233 618 204 618 q 285 632 261 618 q 323 668 308 646 q 338 717 338 690 q 324 767 338 744 q 286 802 310 789 q 233 815 263 815 z "},"₀":{"ha":617,"x_min":28,"x_max":589,"o":"m 308 -6 q 166 31 229 -6 q 65 128 103 67 q 28 267 28 190 q 65 405 28 343 q 167 503 103 467 q 308 539 231 539 q 451 503 388 539 q 551 405 514 467 q 589 267 589 343 q 552 128 589 190 q 451 31 515 67 q 308 -6 388 -6 m 308 94 q 397 117 357 94 q 459 180 436 140 q 482 267 482 219 q 458 353 482 314 q 395 415 435 392 q 308 439 356 439 q 220 416 260 439 q 158 353 181 393 q 135 267 135 314 q 158 181 135 219 q 222 118 182 142 q 308 94 261 94 z "},"₁":{"ha":313,"x_min":14,"x_max":236,"o":"m 14 463 q 136 492 79 472 q 236 542 193 513 l 236 0 l 135 0 l 135 467 l 211 436 q 130 389 181 407 q 14 365 79 371 l 14 463 z "},"₂":{"ha":451,"x_min":28,"x_max":410,"o":"m 224 538 q 315 515 275 538 q 379 456 356 493 q 403 371 403 418 q 388 297 403 332 q 335 218 374 263 l 153 3 l 146 97 l 410 97 l 410 0 l 28 0 l 247 258 q 292 322 281 297 q 304 368 304 346 q 281 423 304 400 q 224 446 257 446 q 167 423 190 446 q 143 368 143 400 q 176 299 143 328 l 117 229 q 44 371 44 289 q 68 456 44 418 q 132 515 92 493 q 224 538 172 538 z "},"₃":{"ha":460,"x_min":28,"x_max":432,"o":"m 232 -7 q 128 19 174 -7 q 55 90 82 44 q 28 193 28 135 l 129 193 q 142 138 129 163 q 178 101 156 114 q 232 88 201 88 q 303 113 276 88 q 331 174 331 138 q 319 212 331 194 q 286 239 307 229 q 235 249 265 249 l 200 249 l 200 346 l 235 346 q 339 324 294 346 q 408 263 383 301 q 432 174 432 224 q 406 81 432 122 q 334 17 379 40 q 232 -7 289 -7 m 326 274 l 254 317 q 290 388 290 350 q 272 427 290 411 q 226 443 254 443 q 180 425 199 443 q 161 381 161 407 l 60 381 q 106 493 60 449 q 226 538 151 538 q 344 497 297 538 q 392 393 392 456 q 375 328 392 358 q 326 274 358 297 z "},"₄":{"ha":464,"x_min":49,"x_max":401,"o":"m 401 0 l 300 0 l 300 50 q 282 118 300 94 q 235 156 264 142 q 174 181 207 169 q 113 213 142 193 q 67 270 85 233 q 49 369 49 307 l 49 531 l 150 531 l 150 369 q 167 306 150 328 q 212 272 185 283 q 269 249 239 260 q 326 217 299 238 q 370 157 353 196 q 388 50 388 118 l 300 171 l 300 403 l 401 403 l 401 0 z "},"₅":{"ha":465,"x_min":42,"x_max":431,"o":"m 240 -7 q 138 17 183 -7 q 67 83 93 40 q 42 182 42 125 l 143 182 q 168 115 143 143 q 240 88 193 88 q 302 110 278 88 q 326 168 326 133 q 303 222 326 200 q 236 249 279 243 l 63 272 l 115 531 l 379 531 l 379 433 l 151 433 l 204 483 l 169 313 l 132 360 l 250 343 q 385 285 339 331 q 431 167 431 240 q 406 78 431 118 q 338 16 381 39 q 240 -7 296 -7 z "},"₆":{"ha":474,"x_min":35,"x_max":446,"o":"m 240 -7 q 135 19 182 -7 q 62 88 89 44 q 35 186 35 132 q 52 267 35 231 q 94 336 69 304 q 146 399 119 368 q 192 461 172 429 q 215 531 211 493 l 319 531 q 303 467 315 496 q 272 415 290 439 q 233 368 254 392 q 318 356 279 369 q 385 319 357 343 q 430 260 414 294 q 446 186 446 226 q 419 88 446 132 q 345 19 392 44 q 240 -7 299 -7 m 240 88 q 293 101 269 88 q 331 137 317 114 q 344 186 344 160 q 331 236 344 214 q 293 272 317 258 q 240 285 269 285 q 189 271 213 285 q 151 235 165 257 q 136 186 136 213 q 150 137 136 160 q 188 101 164 114 q 240 88 211 88 z "},"₇":{"ha":425,"x_min":35,"x_max":397,"o":"m 244 0 l 140 0 q 157 142 146 76 q 186 267 168 207 q 231 390 204 328 q 294 522 258 451 l 306 433 l 35 433 l 35 531 l 397 531 q 333 385 360 450 q 288 260 306 319 q 260 138 271 200 q 244 0 250 75 z "},"₈":{"ha":468,"x_min":28,"x_max":440,"o":"m 233 88 q 306 111 278 88 q 335 169 335 135 q 306 231 335 207 q 233 256 278 256 q 161 231 189 256 q 133 169 133 207 q 162 111 133 135 q 233 88 190 88 m 233 460 q 190 444 207 460 q 172 406 172 429 q 190 366 172 382 q 233 350 207 350 q 278 366 260 350 q 296 406 296 382 q 278 444 296 429 q 233 460 261 460 m 233 -7 q 128 15 175 -7 q 55 76 82 38 q 28 164 28 115 q 54 249 28 211 q 127 308 81 286 q 233 329 174 329 q 341 308 294 329 q 414 249 388 286 q 440 164 440 213 q 413 78 440 117 q 338 16 385 39 q 233 -7 292 -7 m 233 538 q 343 502 300 538 q 386 410 386 467 q 343 319 386 354 q 233 285 300 285 q 124 319 167 285 q 82 410 82 354 q 124 502 82 467 q 233 538 167 538 z "},"₉":{"ha":474,"x_min":28,"x_max":439,"o":"m 233 538 q 338 512 292 538 q 412 443 385 486 q 439 344 439 400 q 422 263 439 300 q 379 194 404 226 q 328 132 354 163 q 282 69 301 101 q 258 0 263 38 l 154 0 q 171 64 158 36 q 202 116 183 92 q 240 163 221 140 q 156 174 194 161 q 88 212 117 188 q 44 270 60 236 q 28 344 28 304 q 55 443 28 400 q 128 512 82 486 q 233 538 175 538 m 233 443 q 181 430 204 443 q 143 394 157 417 q 129 344 129 372 q 143 295 129 318 q 181 259 157 272 q 233 246 204 246 q 285 260 261 246 q 323 296 308 274 q 338 344 338 318 q 324 394 338 372 q 286 430 310 417 q 233 443 263 443 z "},"½":{"ha":1035,"x_min":14,"x_max":993,"o":"m 14 835 q 136 865 79 844 q 236 914 193 885 l 236 372 l 135 372 l 135 839 l 211 808 q 130 761 181 779 q 14 738 79 743 l 14 835 m 161 0 l 651 903 l 768 903 l 278 0 l 161 0 m 807 538 q 899 515 858 538 q 963 456 939 493 q 986 371 986 418 q 972 297 986 332 q 918 218 957 263 l 736 3 l 729 97 l 993 97 l 993 0 l 611 0 l 831 258 q 876 322 864 297 q 888 368 888 346 q 864 423 888 400 q 807 446 840 446 q 750 423 774 446 q 726 368 726 400 q 760 299 726 328 l 700 229 q 628 371 628 289 q 651 456 628 418 q 716 515 675 493 q 807 538 757 538 z "},"⅓":{"ha":1040,"x_min":14,"x_max":1013,"o":"m 14 835 q 136 865 79 844 q 236 914 193 885 l 236 372 l 135 372 l 135 839 l 211 808 q 130 761 181 779 q 14 738 79 743 l 14 835 m 161 0 l 651 903 l 768 903 l 278 0 l 161 0 m 813 -7 q 708 19 754 -7 q 635 90 663 44 q 608 193 608 135 l 710 193 q 723 138 710 163 q 759 101 736 114 q 813 88 782 88 q 884 113 857 88 q 911 174 911 138 q 899 212 911 194 q 867 239 888 229 q 815 249 846 249 l 781 249 l 781 346 l 815 346 q 919 324 875 346 q 988 263 964 301 q 1013 174 1013 224 q 986 81 1013 122 q 915 17 960 40 q 813 -7 869 -7 m 907 274 l 835 317 q 871 388 871 350 q 853 427 871 411 q 807 443 835 443 q 760 425 779 443 q 742 381 742 407 l 640 381 q 686 493 640 449 q 807 538 732 538 q 925 497 878 538 q 972 393 972 456 q 956 328 972 358 q 907 274 939 297 z "},"¼":{"ha":1093,"x_min":14,"x_max":1031,"o":"m 14 835 q 136 865 79 844 q 236 914 193 885 l 236 372 l 135 372 l 135 839 l 211 808 q 130 761 181 779 q 14 738 79 743 l 14 835 m 161 0 l 651 903 l 768 903 l 278 0 l 161 0 m 1031 0 l 929 0 l 929 50 q 911 118 929 94 q 865 156 893 142 q 803 181 836 169 q 742 213 771 193 q 696 270 714 233 q 678 369 678 307 l 678 531 l 779 531 l 779 369 q 797 306 779 328 q 841 272 814 283 q 898 249 868 260 q 955 217 928 238 q 999 157 982 196 q 1017 50 1017 118 l 929 171 l 929 403 l 1031 403 l 1031 0 z "},"⅕":{"ha":1049,"x_min":14,"x_max":1014,"o":"m 14 835 q 136 865 79 844 q 236 914 193 885 l 236 372 l 135 372 l 135 839 l 211 808 q 130 761 181 779 q 14 738 79 743 l 14 835 m 163 0 l 653 903 l 769 903 l 279 0 l 163 0 m 824 -7 q 722 17 767 -7 q 651 83 676 40 q 625 182 625 125 l 726 182 q 751 115 726 143 q 824 88 776 88 q 885 110 861 88 q 910 168 910 133 q 886 222 910 200 q 819 249 863 243 l 646 272 l 699 531 l 963 531 l 963 433 l 735 433 l 788 483 l 753 313 l 715 360 l 833 343 q 968 285 922 331 q 1014 167 1014 240 q 989 78 1014 118 q 922 16 964 39 q 824 -7 879 -7 z "},"⅙":{"ha":1008,"x_min":14,"x_max":981,"o":"m 14 835 q 136 865 79 844 q 236 914 193 885 l 236 372 l 135 372 l 135 839 l 211 808 q 130 761 181 779 q 14 738 79 743 l 14 835 m 163 0 l 653 903 l 769 903 l 279 0 l 163 0 m 775 -7 q 670 19 717 -7 q 597 88 624 44 q 569 186 569 132 q 587 267 569 231 q 629 336 604 304 q 681 399 654 368 q 726 461 707 429 q 750 531 746 493 l 854 531 q 838 467 850 496 q 807 415 825 439 q 768 368 789 392 q 853 356 814 369 q 920 319 892 343 q 965 260 949 294 q 981 186 981 226 q 953 88 981 132 q 880 19 926 44 q 775 -7 833 -7 m 775 88 q 828 101 804 88 q 865 137 851 114 q 879 186 879 160 q 865 236 879 214 q 828 272 851 258 q 775 285 804 285 q 724 271 747 285 q 685 235 700 257 q 671 186 671 213 q 685 137 671 160 q 722 101 699 114 q 775 88 746 88 z "},"⅐":{"ha":1044,"x_min":14,"x_max":1017,"o":"m 14 835 q 136 865 79 844 q 236 914 193 885 l 236 372 l 135 372 l 135 839 l 211 808 q 130 761 181 779 q 14 738 79 743 l 14 835 m 161 0 l 651 903 l 768 903 l 278 0 l 161 0 m 864 0 l 760 0 q 776 142 765 76 q 806 267 788 207 q 851 390 824 328 q 914 522 878 451 l 925 433 l 654 433 l 654 531 l 1017 531 q 952 385 979 450 q 908 260 925 319 q 880 138 890 200 q 864 0 869 75 z "},"⅛":{"ha":1026,"x_min":14,"x_max":999,"o":"m 14 835 q 136 865 79 844 q 236 914 193 885 l 236 372 l 135 372 l 135 839 l 211 808 q 130 761 181 779 q 14 738 79 743 l 14 835 m 161 0 l 651 903 l 768 903 l 278 0 l 161 0 m 792 86 q 865 110 836 86 q 893 168 893 133 q 865 230 893 206 q 792 254 836 254 q 719 230 747 254 q 692 168 692 206 q 720 110 692 133 q 792 86 749 86 m 792 458 q 748 443 765 458 q 731 404 731 428 q 748 365 731 381 q 792 349 765 349 q 836 365 818 349 q 854 404 854 381 q 837 443 854 428 q 792 458 819 458 m 792 -8 q 687 14 733 -8 q 613 75 640 36 q 586 163 586 114 q 613 247 586 210 q 685 306 639 285 q 792 328 732 328 q 899 306 853 328 q 972 248 946 285 q 999 163 999 211 q 971 76 999 115 q 897 15 943 38 q 792 -8 850 -8 m 792 536 q 901 501 858 536 q 944 408 944 465 q 901 318 944 353 q 792 283 858 283 q 683 318 725 283 q 640 408 640 353 q 683 501 640 465 q 792 536 725 536 z "},"⅑":{"ha":1064,"x_min":14,"x_max":1029,"o":"m 14 835 q 136 865 79 844 q 236 914 193 885 l 236 372 l 135 372 l 135 839 l 211 808 q 130 761 181 779 q 14 738 79 743 l 14 835 m 161 0 l 651 903 l 768 903 l 278 0 l 161 0 m 824 538 q 928 512 882 538 q 1002 443 975 486 q 1029 344 1029 400 q 1012 263 1029 300 q 969 194 994 226 q 918 132 944 163 q 872 69 892 101 q 849 0 853 38 l 744 0 q 761 64 749 36 q 792 116 774 92 q 831 163 811 140 q 746 174 785 161 q 678 212 707 188 q 634 270 650 236 q 618 344 618 304 q 645 443 618 400 q 719 512 672 486 q 824 538 765 538 m 824 443 q 771 430 794 443 q 733 394 747 417 q 719 344 719 372 q 733 295 719 318 q 771 259 747 272 q 824 246 794 246 q 875 260 851 246 q 913 296 899 274 q 928 344 928 318 q 914 394 928 372 q 876 430 900 417 q 824 443 853 443 z "},"⅔":{"ha":1199,"x_min":28,"x_max":1171,"o":"m 224 910 q 315 888 275 910 q 379 828 356 865 q 403 743 403 790 q 388 669 403 704 q 335 590 374 635 l 153 375 l 146 469 l 410 469 l 410 372 l 28 372 l 247 631 q 292 694 281 669 q 304 740 304 718 q 281 795 304 772 q 224 818 257 818 q 167 795 190 818 q 143 740 143 772 q 176 671 143 700 l 117 601 q 44 743 44 661 q 68 828 44 790 q 132 888 92 865 q 224 910 172 910 m 319 0 l 810 903 l 926 903 l 436 0 l 319 0 m 971 -7 q 867 19 913 -7 q 794 90 821 44 q 767 193 767 135 l 868 193 q 881 138 868 163 q 917 101 894 114 q 971 88 940 88 q 1042 113 1015 88 q 1069 174 1069 138 q 1058 212 1069 194 q 1025 239 1046 229 q 974 249 1004 249 l 939 249 l 939 346 l 974 346 q 1078 324 1033 346 q 1147 263 1122 301 q 1171 174 1171 224 q 1144 81 1171 122 q 1073 17 1118 40 q 971 -7 1028 -7 m 1065 274 l 993 317 q 1029 388 1029 350 q 1011 427 1029 411 q 965 443 993 443 q 919 425 938 443 q 900 381 900 407 l 799 381 q 844 493 799 449 q 965 538 890 538 q 1083 497 1036 538 q 1131 393 1131 456 q 1114 328 1131 358 q 1065 274 1097 297 z "},"⅖":{"ha":1199,"x_min":28,"x_max":1164,"o":"m 224 910 q 315 888 275 910 q 379 828 356 865 q 403 743 403 790 q 388 669 403 704 q 335 590 374 635 l 153 375 l 146 469 l 410 469 l 410 372 l 28 372 l 247 631 q 292 694 281 669 q 304 740 304 718 q 281 795 304 772 q 224 818 257 818 q 167 795 190 818 q 143 740 143 772 q 176 671 143 700 l 117 601 q 44 743 44 661 q 68 828 44 790 q 132 888 92 865 q 224 910 172 910 m 319 0 l 810 903 l 926 903 l 436 0 l 319 0 m 974 -7 q 872 17 917 -7 q 801 83 826 40 q 775 182 775 125 l 876 182 q 901 115 876 143 q 974 88 926 88 q 1035 110 1011 88 q 1060 168 1060 133 q 1036 222 1060 200 q 969 249 1013 243 l 796 272 l 849 531 l 1113 531 l 1113 433 l 885 433 l 938 483 l 903 313 l 865 360 l 983 343 q 1118 285 1072 331 q 1164 167 1164 240 q 1139 78 1164 118 q 1072 16 1114 39 q 974 -7 1029 -7 z "},"¾":{"ha":1229,"x_min":28,"x_max":1167,"o":"m 232 365 q 128 391 174 365 q 55 462 82 417 q 28 565 28 507 l 129 565 q 142 510 129 535 q 178 473 156 486 q 232 460 201 460 q 303 485 276 460 q 331 546 331 510 q 319 584 331 567 q 286 611 307 601 q 235 621 265 621 l 200 621 l 200 718 l 235 718 q 339 696 294 718 q 408 635 383 674 q 432 546 432 596 q 406 453 432 494 q 334 389 379 413 q 232 365 289 365 m 326 646 l 254 689 q 290 760 290 722 q 272 799 290 783 q 226 815 254 815 q 180 797 199 815 q 161 753 161 779 l 60 753 q 106 865 60 821 q 226 910 151 910 q 344 869 297 910 q 392 765 392 828 q 375 700 392 731 q 326 646 358 669 m 294 0 l 785 903 l 901 903 l 411 0 l 294 0 m 1167 0 l 1065 0 l 1065 50 q 1047 118 1065 94 q 1001 156 1029 142 q 940 181 972 169 q 878 213 907 193 q 832 270 850 233 q 814 369 814 307 l 814 531 l 915 531 l 915 369 q 933 306 915 328 q 977 272 950 283 q 1034 249 1004 260 q 1091 217 1064 238 q 1135 157 1118 196 q 1153 50 1153 118 l 1065 171 l 1065 403 l 1167 403 l 1167 0 z "},"⅗":{"ha":1181,"x_min":28,"x_max":1146,"o":"m 232 365 q 128 391 174 365 q 55 462 82 417 q 28 565 28 507 l 129 565 q 142 510 129 535 q 178 473 156 486 q 232 460 201 460 q 303 485 276 460 q 331 546 331 510 q 319 584 331 567 q 286 611 307 601 q 235 621 265 621 l 200 621 l 200 718 l 235 718 q 339 696 294 718 q 408 635 383 674 q 432 546 432 596 q 406 453 432 494 q 334 389 379 413 q 232 365 289 365 m 326 646 l 254 689 q 290 760 290 722 q 272 799 290 783 q 226 815 254 815 q 180 797 199 815 q 161 753 161 779 l 60 753 q 106 865 60 821 q 226 910 151 910 q 344 869 297 910 q 392 765 392 828 q 375 700 392 731 q 326 646 358 669 m 294 0 l 785 903 l 901 903 l 411 0 l 294 0 m 956 -7 q 853 17 899 -7 q 783 83 808 40 q 757 182 757 125 l 858 182 q 883 115 858 143 q 956 88 908 88 q 1017 110 993 88 q 1042 168 1042 133 q 1018 222 1042 200 q 951 249 994 243 l 778 272 l 831 531 l 1094 531 l 1094 433 l 867 433 l 919 483 l 885 313 l 847 360 l 965 343 q 1100 285 1054 331 q 1146 167 1146 240 q 1121 78 1146 118 q 1053 16 1096 39 q 956 -7 1011 -7 z "},"⅜":{"ha":1160,"x_min":28,"x_max":1132,"o":"m 232 365 q 128 391 174 365 q 55 462 82 417 q 28 565 28 507 l 129 565 q 142 510 129 535 q 178 473 156 486 q 232 460 201 460 q 303 485 276 460 q 331 546 331 510 q 319 584 331 567 q 286 611 307 601 q 235 621 265 621 l 200 621 l 200 718 l 235 718 q 339 696 294 718 q 408 635 383 674 q 432 546 432 596 q 406 453 432 494 q 334 389 379 413 q 232 365 289 365 m 326 646 l 254 689 q 290 760 290 722 q 272 799 290 783 q 226 815 254 815 q 180 797 199 815 q 161 753 161 779 l 60 753 q 106 865 60 821 q 226 910 151 910 q 344 869 297 910 q 392 765 392 828 q 375 700 392 731 q 326 646 358 669 m 294 0 l 785 903 l 901 903 l 411 0 l 294 0 m 925 88 q 998 111 969 88 q 1026 169 1026 135 q 998 231 1026 207 q 925 256 969 256 q 853 231 881 256 q 825 169 825 207 q 853 111 825 135 q 925 88 882 88 m 925 460 q 881 444 899 460 q 864 406 864 429 q 881 366 864 382 q 925 350 899 350 q 969 366 951 350 q 988 406 988 382 q 970 444 988 429 q 925 460 953 460 m 925 -7 q 820 15 867 -7 q 747 76 774 38 q 719 164 719 115 q 746 249 719 211 q 819 308 772 286 q 925 329 865 329 q 1033 308 986 329 q 1106 249 1079 286 q 1132 164 1132 213 q 1104 78 1132 117 q 1030 16 1076 39 q 925 -7 983 -7 m 925 538 q 1035 502 992 538 q 1078 410 1078 467 q 1035 319 1078 354 q 925 285 992 285 q 816 319 858 285 q 774 410 774 354 q 816 502 774 467 q 925 538 858 538 z "},"⅘":{"ha":1207,"x_min":49,"x_max":1172,"o":"m 401 372 l 300 372 l 300 422 q 282 490 300 467 q 235 528 264 514 q 174 553 207 542 q 113 585 142 565 q 67 642 85 606 q 49 742 49 679 l 49 903 l 150 903 l 150 742 q 167 677 150 699 q 212 644 185 656 q 269 621 239 632 q 326 589 299 610 q 370 529 353 568 q 388 422 388 490 l 300 543 l 300 775 l 401 775 l 401 372 m 321 0 l 811 903 l 928 903 l 438 0 l 321 0 m 982 -7 q 880 17 925 -7 q 809 83 835 40 q 783 182 783 125 l 885 182 q 910 115 885 143 q 982 88 935 88 q 1044 110 1019 88 q 1068 168 1068 133 q 1044 222 1068 200 q 978 249 1021 243 l 804 272 l 857 531 l 1121 531 l 1121 433 l 893 433 l 946 483 l 911 313 l 874 360 l 992 343 q 1126 285 1081 331 q 1172 167 1172 240 q 1147 78 1172 118 q 1080 16 1122 39 q 982 -7 1038 -7 z "},"⅚":{"ha":1136,"x_min":42,"x_max":1108,"o":"m 240 365 q 138 389 183 365 q 67 455 93 413 q 42 554 42 497 l 143 554 q 168 488 143 515 q 240 460 193 460 q 302 483 278 460 q 326 540 326 506 q 303 594 326 572 q 236 621 279 615 l 63 644 l 115 903 l 379 903 l 379 806 l 151 806 l 204 856 l 169 685 l 132 732 l 250 715 q 385 658 339 703 q 431 539 431 613 q 406 451 431 490 q 338 388 381 411 q 240 365 296 365 m 290 0 l 781 903 l 897 903 l 407 0 l 290 0 m 903 -7 q 798 19 844 -7 q 724 88 751 44 q 697 186 697 132 q 715 267 697 231 q 757 336 732 304 q 808 399 782 368 q 854 461 835 429 q 878 531 874 493 l 982 531 q 965 467 978 496 q 935 415 953 439 q 896 368 917 392 q 981 356 942 369 q 1048 319 1019 343 q 1092 260 1076 294 q 1108 186 1108 226 q 1081 88 1108 132 q 1008 19 1054 44 q 903 -7 961 -7 m 903 88 q 956 101 932 88 q 993 137 979 114 q 1007 186 1007 160 q 993 236 1007 214 q 956 272 979 258 q 903 285 932 285 q 851 271 875 285 q 813 235 828 257 q 799 186 799 213 q 813 137 799 160 q 850 101 826 114 q 903 88 874 88 z "},"⅝":{"ha":1156,"x_min":42,"x_max":1128,"o":"m 240 365 q 138 389 183 365 q 67 455 93 413 q 42 554 42 497 l 143 554 q 168 488 143 515 q 240 460 193 460 q 302 483 278 460 q 326 540 326 506 q 303 594 326 572 q 236 621 279 615 l 63 644 l 115 903 l 379 903 l 379 806 l 151 806 l 204 856 l 169 685 l 132 732 l 250 715 q 385 658 339 703 q 431 539 431 613 q 406 451 431 490 q 338 388 381 411 q 240 365 296 365 m 290 0 l 781 903 l 897 903 l 407 0 l 290 0 m 921 88 q 994 111 965 88 q 1022 169 1022 135 q 994 231 1022 207 q 921 256 965 256 q 849 231 876 256 q 821 169 821 207 q 849 111 821 135 q 921 88 878 88 m 921 460 q 877 444 894 460 q 860 406 860 429 q 877 366 860 382 q 921 350 894 350 q 965 366 947 350 q 983 406 983 382 q 966 444 983 429 q 921 460 949 460 m 921 -7 q 816 15 863 -7 q 742 76 769 38 q 715 164 715 115 q 742 249 715 211 q 815 308 768 286 q 921 329 861 329 q 1028 308 982 329 q 1101 249 1075 286 q 1128 164 1128 213 q 1100 78 1128 117 q 1026 16 1072 39 q 921 -7 979 -7 m 921 538 q 1031 502 988 538 q 1074 410 1074 467 q 1031 319 1074 354 q 921 285 988 285 q 812 319 854 285 q 769 410 769 354 q 812 502 769 467 q 921 538 854 538 z "},"⅞":{"ha":1046,"x_min":35,"x_max":1019,"o":"m 244 372 l 140 372 q 157 514 146 449 q 186 640 168 579 q 231 762 204 700 q 294 894 258 824 l 306 806 l 35 806 l 35 903 l 397 903 q 333 757 360 822 q 288 632 306 692 q 260 510 271 572 q 244 372 250 447 m 182 0 l 672 903 l 789 903 l 299 0 l 182 0 m 813 88 q 885 111 857 88 q 914 169 914 135 q 885 231 914 207 q 813 256 857 256 q 740 231 768 256 q 713 169 713 207 q 741 111 713 135 q 813 88 769 88 m 813 460 q 769 444 786 460 q 751 406 751 429 q 769 366 751 382 q 813 350 786 350 q 857 366 839 350 q 875 406 875 382 q 858 444 875 429 q 813 460 840 460 m 813 -7 q 708 15 754 -7 q 634 76 661 38 q 607 164 607 115 q 633 249 607 211 q 706 308 660 286 q 813 329 753 329 q 920 308 874 329 q 993 249 967 286 q 1019 164 1019 213 q 992 78 1019 117 q 917 16 964 39 q 813 -7 871 -7 m 813 538 q 922 502 879 538 q 965 410 965 467 q 922 319 965 354 q 813 285 879 285 q 703 319 746 285 q 661 410 661 354 q 703 502 661 467 q 813 538 746 538 z "},"+":{"ha":667,"x_min":69,"x_max":597,"o":"m 69 486 l 597 486 l 597 397 l 69 397 l 69 486 m 378 706 l 378 178 l 289 178 l 289 706 l 378 706 z "},"−":{"ha":667,"x_min":69,"x_max":597,"o":"m 69 486 l 597 486 l 597 397 l 69 397 l 69 486 z "},"×":{"ha":667,"x_min":97,"x_max":569,"o":"m 97 268 l 507 679 l 569 617 l 160 206 l 97 268 m 161 679 l 569 268 l 507 206 l 97 615 l 161 679 z "},"÷":{"ha":667,"x_min":69,"x_max":597,"o":"m 69 486 l 597 486 l 597 397 l 69 397 l 69 486 m 333 107 q 283 126 303 107 q 263 176 263 146 q 283 226 263 207 q 333 246 303 246 q 385 226 365 246 q 404 176 404 207 q 385 126 404 146 q 333 107 365 107 m 333 638 q 283 657 303 638 q 263 707 263 676 q 283 757 263 738 q 333 776 303 776 q 385 757 365 776 q 404 707 404 738 q 385 657 404 676 q 333 638 365 638 z "},"=":{"ha":667,"x_min":69,"x_max":597,"o":"m 69 332 l 597 332 l 597 243 l 69 243 l 69 332 m 69 639 l 597 639 l 597 551 l 69 551 l 69 639 z "},"¬":{"ha":667,"x_min":69,"x_max":597,"o":"m 69 486 l 597 486 l 597 178 l 507 178 l 507 397 l 69 397 l 69 486 z "},"~":{"ha":667,"x_min":69,"x_max":597,"o":"m 479 458 q 597 486 542 458 l 597 397 q 541 377 571 385 q 479 369 511 369 q 376 383 425 369 q 280 411 326 397 q 188 425 233 425 q 125 417 154 425 q 69 397 96 410 l 69 486 q 125 506 96 499 q 188 514 154 514 q 290 500 242 514 q 385 472 339 486 q 479 458 432 458 z "},"<":{"ha":667,"x_min":83,"x_max":569,"o":"m 83 396 l 83 514 l 569 739 l 569 635 l 138 442 l 138 469 l 569 276 l 569 171 l 83 396 z "},">":{"ha":667,"x_min":97,"x_max":583,"o":"m 583 515 l 583 397 l 97 172 l 97 276 l 529 469 l 529 442 l 97 635 l 97 740 l 583 515 z "},"±":{"ha":667,"x_min":69,"x_max":597,"o":"m 69 533 l 597 533 l 597 444 l 69 444 l 69 533 m 378 753 l 378 225 l 289 225 l 289 753 l 378 753 m 69 89 l 597 89 l 597 0 l 69 0 l 69 89 z "},"^":{"ha":729,"x_min":74,"x_max":656,"o":"m 350 639 l 378 639 l 181 222 l 74 222 l 308 708 l 421 708 l 656 222 l 546 222 l 350 639 z "},"≠":{"ha":667,"x_min":69,"x_max":597,"o":"m 413 783 l 506 783 l 256 101 l 163 101 l 413 783 m 69 332 l 597 332 l 597 243 l 69 243 l 69 332 m 69 639 l 597 639 l 597 551 l 69 551 l 69 639 z "},"≈":{"ha":667,"x_min":69,"x_max":597,"o":"m 479 613 q 597 640 542 613 l 597 551 q 541 531 571 539 q 479 524 511 524 q 376 538 425 524 q 280 565 326 551 q 188 579 233 579 q 125 572 154 579 q 69 551 96 564 l 69 640 q 125 660 96 653 q 188 668 154 668 q 290 654 242 668 q 385 626 339 640 q 479 613 432 613 m 479 304 q 597 332 542 304 l 597 243 q 541 223 571 231 q 479 215 511 215 q 376 229 425 215 q 280 257 326 243 q 188 271 233 271 q 125 263 154 271 q 69 243 96 256 l 69 332 q 125 352 96 344 q 188 360 154 360 q 290 346 242 360 q 385 318 339 332 q 479 304 432 304 z "},"≤":{"ha":667,"x_min":83,"x_max":569,"o":"m 83 83 l 569 83 l 569 0 l 83 0 l 83 83 m 83 410 l 83 528 l 569 739 l 569 635 l 138 456 l 138 483 l 569 318 l 569 213 l 83 410 z "},"≥":{"ha":667,"x_min":97,"x_max":583,"o":"m 97 0 l 97 83 l 583 83 l 583 0 l 97 0 m 97 213 l 97 317 l 529 496 l 529 468 l 97 633 l 97 739 l 583 542 l 583 424 l 97 213 z "},"←":{"ha":863,"x_min":32,"x_max":815,"o":"m 251 33 l 32 329 l 251 625 l 360 625 l 124 301 l 124 356 l 360 33 l 251 33 m 82 282 l 82 375 l 815 379 l 815 278 l 82 282 z "},"↑":{"ha":685,"x_min":46,"x_max":638,"o":"m 46 560 l 342 779 l 638 560 l 638 456 l 315 693 l 369 693 l 46 456 l 46 560 m 294 735 l 390 735 l 394 0 l 289 0 l 294 735 z "}}}
